<svg xmlns="http://www.w3.org/2000/svg" xmlns:xlink="http://www.w3.org/1999/xlink" width="375" height="100" viewBox="0 0 375 100">
  <defs>
    <filter id="Rectangle_9" x="0" y="0" width="375" height="100" filterUnits="userSpaceOnUse">
      <feOffset dy="3" input="SourceAlpha"/>
      <feGaussianBlur stdDeviation="5" result="blur"/>
      <feFlood flood-opacity="0.161"/>
      <feComposite operator="in" in2="blur"/>
      <feComposite in="SourceGraphic"/>
    </filter>
  </defs>
  <g id="HireInfo_Apply-obj" transform="translate(-1250 -586)">
    <g transform="matrix(1, 0, 0, 1, 1250, 586)" filter="url(#Rectangle_9)">
      <rect id="Rectangle_9-2" data-name="Rectangle 9" width="345" height="70" transform="translate(15 12)" fill="#dd7171"/>
    </g>
    <g id="채용공고등록하기-obj" transform="translate(-74 435)">
      <path id="Path_58" data-name="Path 58" d="M0,0H183V30H0Z" transform="translate(1420 180)" fill="none"/>
      <path id="Path_57" data-name="Path 57" d="M11.52-8.244h1.44v-5.9h2.16V2.592H12.96V-6.282H11.52V1.782H9.36V-13.806h2.16ZM.774-11.7H3.6v-2.07H5.814v2.07H8.478v1.926H5.814v1.458a5.637,5.637,0,0,0,.054.828,3.016,3.016,0,0,0,.18.675,3.615,3.615,0,0,0,.324.621q.2.306.468.648.5.63,1.143,1.314T9.2-2.97L7.7-1.566q-.522-.54-1.035-1.1T5.742-3.708q-.324-.378-.585-.7a2.415,2.415,0,0,1-.351-.54H4.788a2.745,2.745,0,0,1-.351.558q-.261.342-.6.756-.45.54-1.026,1.179T1.674-1.26L.18-2.754Q.738-3.294,1.377-4t1.161-1.35a8,8,0,0,0,.495-.684,3.563,3.563,0,0,0,.333-.657,3.329,3.329,0,0,0,.18-.72A6.515,6.515,0,0,0,3.6-8.3V-9.774H.774ZM20.628-6.12V-8.136a3.188,3.188,0,0,1-1.143-.981,2.3,2.3,0,0,1-.4-1.341v-.432a2.3,2.3,0,0,1,.4-1.341,3.129,3.129,0,0,1,1.134-.972,6.479,6.479,0,0,1,1.737-.594A11.022,11.022,0,0,1,24.57-14a11.022,11.022,0,0,1,2.214.207,6.479,6.479,0,0,1,1.737.594,3.129,3.129,0,0,1,1.134.972,2.3,2.3,0,0,1,.405,1.341v.432a2.3,2.3,0,0,1-.405,1.341,3.188,3.188,0,0,1-1.143.981V-6.12h3.726v1.854H16.9V-6.12ZM24.57,3.1a10.978,10.978,0,0,1-2.079-.189,6.427,6.427,0,0,1-1.719-.567,3.324,3.324,0,0,1-1.17-.954A2.187,2.187,0,0,1,19.17.036V-.5a2.187,2.187,0,0,1,.432-1.35,3.324,3.324,0,0,1,1.17-.954,6.427,6.427,0,0,1,1.719-.567,11.529,11.529,0,0,1,4.158,0,6.427,6.427,0,0,1,1.719.567,3.324,3.324,0,0,1,1.17.954A2.187,2.187,0,0,1,29.97-.5v.54a2.187,2.187,0,0,1-.432,1.35,3.324,3.324,0,0,1-1.17.954,6.427,6.427,0,0,1-1.719.567A10.978,10.978,0,0,1,24.57,3.1Zm0-15.282a7.781,7.781,0,0,0-1.278.1,4.353,4.353,0,0,0-1.026.288,2.208,2.208,0,0,0-.684.441.757.757,0,0,0-.252.54v.288a.746.746,0,0,0,.252.549,2.313,2.313,0,0,0,.684.432,4.353,4.353,0,0,0,1.026.288,7.781,7.781,0,0,0,1.278.1,7.781,7.781,0,0,0,1.278-.1,4.353,4.353,0,0,0,1.026-.288,2.313,2.313,0,0,0,.684-.432.746.746,0,0,0,.252-.549v-.288a.757.757,0,0,0-.252-.54,2.208,2.208,0,0,0-.684-.441,4.353,4.353,0,0,0-1.026-.288A7.781,7.781,0,0,0,24.57-12.186Zm0,10.458a6.738,6.738,0,0,0-1.161.1A4.9,4.9,0,0,0,22.4-1.35a2.311,2.311,0,0,0-.711.432.752.752,0,0,0-.27.558v.252a.752.752,0,0,0,.27.558A2.311,2.311,0,0,0,22.4.882a4.9,4.9,0,0,0,1.008.279,6.738,6.738,0,0,0,1.161.1,6.738,6.738,0,0,0,1.161-.1A4.9,4.9,0,0,0,26.739.882,2.311,2.311,0,0,0,27.45.45a.752.752,0,0,0,.27-.558V-.36a.752.752,0,0,0-.27-.558,2.311,2.311,0,0,0-.711-.432,4.9,4.9,0,0,0-1.008-.279A6.738,6.738,0,0,0,24.57-1.728Zm0-5.616a12.284,12.284,0,0,1-1.692-.108V-6.12h3.384V-7.452A12.538,12.538,0,0,1,24.57-7.344Zm14.04.7V-9.684H40.9v3.042h7.722v1.908H33.282V-6.642ZM40.95,3.1a10.494,10.494,0,0,1-2.079-.2A6.227,6.227,0,0,1,37.152,2.3a3.452,3.452,0,0,1-1.17-.981A2.226,2.226,0,0,1,35.55-.036v-.54a2.226,2.226,0,0,1,.432-1.359,3.452,3.452,0,0,1,1.17-.981,6.227,6.227,0,0,1,1.719-.594,11.014,11.014,0,0,1,4.158,0,6.227,6.227,0,0,1,1.719.594,3.452,3.452,0,0,1,1.17.981A2.226,2.226,0,0,1,46.35-.576v.54a2.226,2.226,0,0,1-.432,1.359,3.452,3.452,0,0,1-1.17.981,6.227,6.227,0,0,1-1.719.594A10.5,10.5,0,0,1,40.95,3.1Zm0-4.95a6.9,6.9,0,0,0-1.17.1,4.886,4.886,0,0,0-1.017.279,2.128,2.128,0,0,0-.711.45.826.826,0,0,0-.27.594V-.18a.826.826,0,0,0,.27.594,2.128,2.128,0,0,0,.711.45,4.886,4.886,0,0,0,1.017.279,6.9,6.9,0,0,0,1.17.1,6.9,6.9,0,0,0,1.17-.1A4.886,4.886,0,0,0,43.137.864a2.128,2.128,0,0,0,.711-.45.826.826,0,0,0,.27-.594V-.432a.826.826,0,0,0-.27-.594,2.128,2.128,0,0,0-.711-.45,4.886,4.886,0,0,0-1.017-.279A6.9,6.9,0,0,0,40.95-1.854Zm5.49-11.682v2.448q0,.306-.027.747t-.081.945q-.054.5-.126,1.008t-.162.918L43.83-7.722A15.355,15.355,0,0,0,44.1-9.5q.072-.828.072-1.512v-.594H35.28v-1.926Zm8.5,12.1V-7.272H57.2V-1.44H65V.486H49.662V-1.44ZM60.03-3.474a28.416,28.416,0,0,0,.45-3.15q.126-1.512.126-3.1v-1.044H51.5v-1.962H62.874v2.412q0,2.106-.144,3.825A30.336,30.336,0,0,1,62.28-3.2Zm25.848-2.88V-4.5H70.542V-6.354ZM78.21,3.1a10.978,10.978,0,0,1-2.079-.189,6.427,6.427,0,0,1-1.719-.567,3.325,3.325,0,0,1-1.17-.954A2.216,2.216,0,0,1,72.81.018v-.54a2.226,2.226,0,0,1,.432-1.359,3.281,3.281,0,0,1,1.17-.963,6.427,6.427,0,0,1,1.719-.567,11.529,11.529,0,0,1,4.158,0,6.427,6.427,0,0,1,1.719.567,3.281,3.281,0,0,1,1.17.963A2.226,2.226,0,0,1,83.61-.522v.54a2.216,2.216,0,0,1-.432,1.368,3.325,3.325,0,0,1-1.17.954,6.427,6.427,0,0,1-1.719.567A10.978,10.978,0,0,1,78.21,3.1Zm0-4.86a6.738,6.738,0,0,0-1.161.1,4.9,4.9,0,0,0-1.008.279,2.311,2.311,0,0,0-.711.432.769.769,0,0,0-.27.576v.252a.769.769,0,0,0,.27.576,2.311,2.311,0,0,0,.711.432,4.9,4.9,0,0,0,1.008.279,6.738,6.738,0,0,0,1.161.1,6.738,6.738,0,0,0,1.161-.1A4.9,4.9,0,0,0,80.379.882,2.311,2.311,0,0,0,81.09.45a.769.769,0,0,0,.27-.576V-.378a.769.769,0,0,0-.27-.576,2.311,2.311,0,0,0-.711-.432,4.9,4.9,0,0,0-1.008-.279A6.738,6.738,0,0,0,78.21-1.764ZM83.556-11.7H74.97v2.268h8.712v1.854H72.72v-5.976H83.556ZM95.724-6.516v1.134h6.534v1.818H86.922V-5.382h6.534V-6.516H89.064v-4.446h8.73v-.918H89.01v-1.8h11.016v4.446H91.3v.918h9.018v1.8Zm-6.8,3.96h11.268V2.808H97.92V-.72h-9Zm27.666-5.112h2.3v1.98h-2.3v8.28H114.3v-16.74h2.286ZM108.27-1.062a4.88,4.88,0,0,1-1.773-.3,4,4,0,0,1-1.3-.792,3.29,3.29,0,0,1-.8-1.134,3.324,3.324,0,0,1-.27-1.305V-5.652a3.324,3.324,0,0,1,.27-1.305,3.29,3.29,0,0,1,.8-1.134,4,4,0,0,1,1.3-.792,4.88,4.88,0,0,1,1.773-.3,4.9,4.9,0,0,1,1.764.3,3.977,3.977,0,0,1,1.305.792,3.29,3.29,0,0,1,.8,1.134,3.324,3.324,0,0,1,.27,1.305V-4.59a3.324,3.324,0,0,1-.27,1.305,3.29,3.29,0,0,1-.8,1.134,3.977,3.977,0,0,1-1.305.792A4.9,4.9,0,0,1,108.27-1.062Zm0-1.908a2.288,2.288,0,0,0,.864-.153,1.973,1.973,0,0,0,.639-.4,1.707,1.707,0,0,0,.4-.576,1.716,1.716,0,0,0,.135-.666v-.7a1.716,1.716,0,0,0-.135-.666,1.707,1.707,0,0,0-.4-.576,1.973,1.973,0,0,0-.639-.4,2.288,2.288,0,0,0-.864-.153,2.288,2.288,0,0,0-.864.153,1.973,1.973,0,0,0-.639.4,1.707,1.707,0,0,0-.4.576,1.716,1.716,0,0,0-.135.666v.7a1.716,1.716,0,0,0,.135.666,1.707,1.707,0,0,0,.4.576,1.973,1.973,0,0,0,.639.4A2.288,2.288,0,0,0,108.27-2.97Zm1.152-11.052v2.16h3.6v1.926h-9.666v-1.926h3.762v-2.16ZM133.776,2.592H131.49v-16.74h2.286ZM120.42-2.646q1.35-.81,2.3-1.44a18.309,18.309,0,0,0,1.593-1.161,6.629,6.629,0,0,0,1.008-1.008,3.88,3.88,0,0,0,.558-.963,3.883,3.883,0,0,0,.243-1.026q.054-.54.054-1.206v-1.242h-5.454v-1.962h7.74v3.312a13.608,13.608,0,0,1-.09,1.638,5.332,5.332,0,0,1-.351,1.377,4.976,4.976,0,0,1-.738,1.233,9.169,9.169,0,0,1-1.233,1.233,20.841,20.841,0,0,1-1.845,1.368q-1.089.729-2.583,1.647Z" transform="translate(1465 204)" fill="#fff"/>
      <path id="Icon_awesome-address-card" data-name="Icon awesome-address-card" d="M25.507,2.25H2.319A2.319,2.319,0,0,0,0,4.569v17a2.319,2.319,0,0,0,2.319,2.319H25.507a2.319,2.319,0,0,0,2.319-2.319v-17A2.319,2.319,0,0,0,25.507,2.25ZM8.5,6.888A3.092,3.092,0,1,1,5.411,9.979,3.095,3.095,0,0,1,8.5,6.888Zm5.411,11.439a1.013,1.013,0,0,1-1.082.928H4.174a1.013,1.013,0,0,1-1.082-.928V17.4a3.042,3.042,0,0,1,3.246-2.783H6.58a4.976,4.976,0,0,0,3.845,0h.242A3.042,3.042,0,0,1,13.913,17.4Zm10.821-2.551a.388.388,0,0,1-.386.386H17.391A.388.388,0,0,1,17,15.776V15a.388.388,0,0,1,.386-.386h6.956a.388.388,0,0,1,.386.386Zm0-3.092a.388.388,0,0,1-.386.386H17.391A.388.388,0,0,1,17,12.685v-.773a.388.388,0,0,1,.386-.386h6.956a.388.388,0,0,1,.386.386Zm0-3.092a.388.388,0,0,1-.386.386H17.391A.388.388,0,0,1,17,9.593V8.82a.388.388,0,0,1,.386-.386h6.956a.388.388,0,0,1,.386.386Z" transform="translate(1424 184.858)" fill="#fff"/>
    </g>
  </g>
</svg>
