<svg xmlns="http://www.w3.org/2000/svg" width="395.878" height="64.204" viewBox="0 0 395.878 64.204">
  <g id="Hire-Info-Text-obj" transform="translate(-348.81 -450.452)">
    <path id="패스_60" data-name="패스 60" d="M-197.19-15.408q0-5.364,2.142-8.136t6.426-2.772q4.284,0,6.426,2.772t2.142,8.136q0,5.364-2.142,8.136T-188.622-4.5q-4.284,0-6.426-2.772T-197.19-15.408Zm12.708,0a11.427,11.427,0,0,0-.918-5.166,3.326,3.326,0,0,0-3.222-1.746,3.326,3.326,0,0,0-3.222,1.746,11.427,11.427,0,0,0-.918,5.166,11.427,11.427,0,0,0,.918,5.166A3.326,3.326,0,0,0-188.622-8.5a3.326,3.326,0,0,0,3.222-1.746A11.427,11.427,0,0,0-184.482-15.408Zm9.648,1.944h-7.956v-3.888h7.956v-8.892a1.646,1.646,0,0,1,.7-1.476,2.821,2.821,0,0,1,1.6-.468,2.761,2.761,0,0,1,1.566.468,1.646,1.646,0,0,1,.7,1.476V1.332a1.646,1.646,0,0,1-.7,1.476,2.761,2.761,0,0,1-1.566.468,2.822,2.822,0,0,1-1.6-.468,1.646,1.646,0,0,1-.7-1.476Zm20.808-9.612a3.226,3.226,0,0,1,.666-2.34,3.424,3.424,0,0,1,2.394-.648h4.14a1.382,1.382,0,0,1,1.224.576,2.355,2.355,0,0,1,.4,1.368,2.355,2.355,0,0,1-.4,1.368,1.382,1.382,0,0,1-1.224.576h-1.98a.732.732,0,0,0-.828.828v7.7a.732.732,0,0,0,.828.828q.864,0,1.566-.054t1.386-.162a1.292,1.292,0,0,1,1.26.36,2.085,2.085,0,0,1,.54,1.26,2.722,2.722,0,0,1-.2,1.4,1.341,1.341,0,0,1-1.062.72,35.285,35.285,0,0,1-5.652.36,3.424,3.424,0,0,1-2.394-.648,3.226,3.226,0,0,1-.666-2.34Zm-4.824.9a.732.732,0,0,0-.828.828v7.7a.732.732,0,0,0,.828.828q.468,0,1.008-.054T-156.69-13a1.391,1.391,0,0,1,1.278.378,2.057,2.057,0,0,1,.522,1.242,2.722,2.722,0,0,1-.2,1.4,1.341,1.341,0,0,1-1.062.72A18.126,18.126,0,0,1-158.418-9q-1.3.072-2.592.072a3.424,3.424,0,0,1-2.394-.648,3.226,3.226,0,0,1-.666-2.34v-11.16a3.226,3.226,0,0,1,.666-2.34,3.424,3.424,0,0,1,2.394-.648h4a1.382,1.382,0,0,1,1.224.576,2.355,2.355,0,0,1,.4,1.368,2.355,2.355,0,0,1-.4,1.368,1.383,1.383,0,0,1-1.224.576Zm17.352,6.3h-2.88a1.337,1.337,0,0,1-1.206-.576,2.437,2.437,0,0,1-.378-1.368,2.5,2.5,0,0,1,.378-1.4,1.337,1.337,0,0,1,1.206-.576h2.88v-6.48a1.624,1.624,0,0,1,.684-1.44,2.677,2.677,0,0,1,1.548-.468,2.619,2.619,0,0,1,1.512.468,1.624,1.624,0,0,1,.684,1.44V-5.544a1.624,1.624,0,0,1-.684,1.44,2.619,2.619,0,0,1-1.512.468,2.677,2.677,0,0,1-1.548-.468,1.624,1.624,0,0,1-.684-1.44ZM-156.114,4.932a3.424,3.424,0,0,1-2.394-.648,3.226,3.226,0,0,1-.666-2.34V-4.644a1.646,1.646,0,0,1,.7-1.476,2.884,2.884,0,0,1,1.638-.468,2.822,2.822,0,0,1,1.6.468,1.646,1.646,0,0,1,.7,1.476V.18a.732.732,0,0,0,.828.828h15.8a1.382,1.382,0,0,1,1.224.576,2.418,2.418,0,0,1,.4,1.4,2.355,2.355,0,0,1-.4,1.368,1.383,1.383,0,0,1-1.224.576Zm47.232-28.476a1.382,1.382,0,0,1,1.224.576,2.355,2.355,0,0,1,.4,1.368,2.355,2.355,0,0,1-.4,1.368,1.382,1.382,0,0,1-1.224.576h-3.96v1.872q0,1.044.072,1.836a6.679,6.679,0,0,0,.288,1.458,5.985,5.985,0,0,0,.576,1.26,10.336,10.336,0,0,0,.936,1.278q.9,1.044,1.764,1.944t1.4,1.4a1.63,1.63,0,0,1,.558,1.422A2.259,2.259,0,0,1-107.91-5.8a1.928,1.928,0,0,1-1.35.648,2.008,2.008,0,0,1-1.458-.576q-.576-.54-1.152-1.152t-1.26-1.332q-.576-.612-.918-1.044a5.837,5.837,0,0,1-.54-.792,5.853,5.853,0,0,1-.306-.63,2.247,2.247,0,0,1-.144-.558h-.036a4.005,4.005,0,0,1-.5,1.3,12.562,12.562,0,0,1-1.512,1.908q-.72.792-1.476,1.566t-1.512,1.494a1.763,1.763,0,0,1-1.458.54,2.069,2.069,0,0,1-1.386-.648,2.394,2.394,0,0,1-.684-1.458,1.718,1.718,0,0,1,.54-1.422q1.044-1.008,1.98-1.98t1.836-2.016a10.336,10.336,0,0,0,.936-1.278,5.985,5.985,0,0,0,.576-1.26,6.679,6.679,0,0,0,.288-1.458q.072-.792.072-1.836v-1.872h-4.392a1.382,1.382,0,0,1-1.224-.576,2.355,2.355,0,0,1-.4-1.368,2.355,2.355,0,0,1,.4-1.368,1.382,1.382,0,0,1,1.224-.576h4.392v-2.592a1.61,1.61,0,0,1,.7-1.44,2.761,2.761,0,0,1,1.566-.468,2.761,2.761,0,0,1,1.566.468,1.61,1.61,0,0,1,.7,1.44v2.592Zm6.84,6.192h2.88v-9.036a1.526,1.526,0,0,1,.648-1.368,2.6,2.6,0,0,1,1.476-.432,2.6,2.6,0,0,1,1.476.432,1.526,1.526,0,0,1,.648,1.368V1.476a1.525,1.525,0,0,1-.648,1.368,2.6,2.6,0,0,1-1.476.432,2.6,2.6,0,0,1-1.476-.432,1.525,1.525,0,0,1-.648-1.368v-14.94h-2.88V-.036a1.526,1.526,0,0,1-.648,1.368,2.6,2.6,0,0,1-1.476.432,2.54,2.54,0,0,1-1.44-.432,1.525,1.525,0,0,1-.648-1.368V-26.028a1.526,1.526,0,0,1,.648-1.368,2.54,2.54,0,0,1,1.44-.432,2.6,2.6,0,0,1,1.476.432,1.526,1.526,0,0,1,.648,1.368Zm26.5,2.448a27.927,27.927,0,0,1-4.716-.36A11.847,11.847,0,0,1-83.808-16.4,5.877,5.877,0,0,1-86.04-18.36a5.1,5.1,0,0,1-.774-2.844,5.1,5.1,0,0,1,.774-2.844,5.877,5.877,0,0,1,2.232-1.962,11.847,11.847,0,0,1,3.546-1.134,27.928,27.928,0,0,1,4.716-.36,27.928,27.928,0,0,1,4.716.36,11.847,11.847,0,0,1,3.546,1.134,5.877,5.877,0,0,1,2.232,1.962,5.1,5.1,0,0,1,.774,2.844,5.1,5.1,0,0,1-.774,2.844A5.877,5.877,0,0,1-67.284-16.4a11.847,11.847,0,0,1-3.546,1.134A27.927,27.927,0,0,1-75.546-14.9Zm0-8.928a13.849,13.849,0,0,0-5.148.684A2.146,2.146,0,0,0-82.242-21.2a2.146,2.146,0,0,0,1.548,1.944,13.849,13.849,0,0,0,5.148.684A13.849,13.849,0,0,0-70.4-19.26,2.146,2.146,0,0,0-68.85-21.2,2.146,2.146,0,0,0-70.4-23.148,13.849,13.849,0,0,0-75.546-23.832ZM-89.19-8.352A1.352,1.352,0,0,1-90.4-8.91a2.35,2.35,0,0,1-.378-1.35,2.286,2.286,0,0,1,.378-1.314,1.352,1.352,0,0,1,1.206-.558H-82.6v-5.22h4.392v5.22h5.328v-5.22h4.392v5.22H-61.9a1.352,1.352,0,0,1,1.206.558,2.286,2.286,0,0,1,.378,1.314A2.35,2.35,0,0,1-60.7-8.91a1.352,1.352,0,0,1-1.206.558Zm2.3,8.028a5.1,5.1,0,0,1,.774-2.844,5.848,5.848,0,0,1,2.25-1.962A12.085,12.085,0,0,1-80.3-6.264a28.171,28.171,0,0,1,4.752-.36,28.252,28.252,0,0,1,4.734.36A12.094,12.094,0,0,1-67.23-5.13a5.848,5.848,0,0,1,2.25,1.962,5.1,5.1,0,0,1,.774,2.844A5.1,5.1,0,0,1-64.98,2.52a5.848,5.848,0,0,1-2.25,1.962,12.094,12.094,0,0,1-3.582,1.134,28.252,28.252,0,0,1-4.734.36,28.171,28.171,0,0,1-4.752-.36,12.085,12.085,0,0,1-3.564-1.134,5.848,5.848,0,0,1-2.25-1.962A5.1,5.1,0,0,1-86.886-.324Zm18.108,0q0-1.26-1.566-1.962a13.8,13.8,0,0,0-5.2-.7,13.8,13.8,0,0,0-5.2.7q-1.566.7-1.566,1.962t1.566,1.962a13.8,13.8,0,0,0,5.2.7,13.8,13.8,0,0,0,5.2-.7Q-68.778.936-68.778-.324ZM-52.866-22.9a1.382,1.382,0,0,1-1.224-.576,2.418,2.418,0,0,1-.4-1.4,2.418,2.418,0,0,1,.4-1.4,1.382,1.382,0,0,1,1.224-.576h18.288a3.424,3.424,0,0,1,2.394.648,3.226,3.226,0,0,1,.666,2.34v2.628a21.419,21.419,0,0,1-.144,2.538,12.261,12.261,0,0,1-.432,2.142,1.909,1.909,0,0,1-1.1,1.278,2.778,2.778,0,0,1-1.746.126,2.278,2.278,0,0,1-1.35-.774,1.755,1.755,0,0,1-.27-1.566,17.076,17.076,0,0,0,.432-3.852v-.72a.732.732,0,0,0-.828-.828ZM-56.394-9.54a1.382,1.382,0,0,1-1.224-.576,2.355,2.355,0,0,1-.4-1.368,2.294,2.294,0,0,1,.4-1.332,1.382,1.382,0,0,1,1.224-.576h9v-4.032a1.61,1.61,0,0,1,.7-1.44,2.822,2.822,0,0,1,1.6-.468,2.822,2.822,0,0,1,1.6.468,1.61,1.61,0,0,1,.7,1.44v4.032h13.608a1.382,1.382,0,0,1,1.224.576,2.294,2.294,0,0,1,.4,1.332,2.355,2.355,0,0,1-.4,1.368,1.382,1.382,0,0,1-1.224.576Zm2.268,8.892a5.433,5.433,0,0,1,.774-2.934A5.944,5.944,0,0,1-51.1-5.634a11.731,11.731,0,0,1,3.564-1.188A26.859,26.859,0,0,1-42.786-7.2a26.936,26.936,0,0,1,4.734.378A11.738,11.738,0,0,1-34.47-5.634a5.944,5.944,0,0,1,2.25,2.052,5.433,5.433,0,0,1,.774,2.934,5.433,5.433,0,0,1-.774,2.934,5.944,5.944,0,0,1-2.25,2.052,11.738,11.738,0,0,1-3.582,1.188,26.936,26.936,0,0,1-4.734.378,26.859,26.859,0,0,1-4.752-.378A11.731,11.731,0,0,1-51.1,4.338a5.944,5.944,0,0,1-2.25-2.052A5.433,5.433,0,0,1-54.126-.648Zm18.108,0A2.369,2.369,0,0,0-37.584-2.79a12.629,12.629,0,0,0-5.2-.774,12.629,12.629,0,0,0-5.2.774A2.369,2.369,0,0,0-49.554-.648a2.369,2.369,0,0,0,1.566,2.142,12.629,12.629,0,0,0,5.2.774,12.629,12.629,0,0,0,5.2-.774A2.369,2.369,0,0,0-36.018-.648Zm15.84-21.276A1.382,1.382,0,0,1-21.4-22.5a2.418,2.418,0,0,1-.4-1.4,2.418,2.418,0,0,1,.4-1.4,1.382,1.382,0,0,1,1.224-.576H-1.746a3.424,3.424,0,0,1,2.394.648,3.226,3.226,0,0,1,.666,2.34v3.24q0,3.312-.234,5.868A38.372,38.372,0,0,1,.342-8.964,1.778,1.778,0,0,1-.684-7.632a3.062,3.062,0,0,1-1.818.18,2.59,2.59,0,0,1-1.35-.72,1.628,1.628,0,0,1-.342-1.512A41.279,41.279,0,0,0-3.51-14.4q.216-2.448.216-5.364V-21.1a.732.732,0,0,0-.828-.828ZM3.582-3.564a1.382,1.382,0,0,1,1.224.576A2.355,2.355,0,0,1,5.2-1.62a2.355,2.355,0,0,1-.4,1.368A1.382,1.382,0,0,1,3.582.324H-23.634a1.382,1.382,0,0,1-1.224-.576,2.355,2.355,0,0,1-.4-1.368,2.355,2.355,0,0,1,.4-1.368,1.382,1.382,0,0,1,1.224-.576h9v-9.684a1.646,1.646,0,0,1,.7-1.476,2.822,2.822,0,0,1,1.6-.468,2.822,2.822,0,0,1,1.6.468,1.646,1.646,0,0,1,.7,1.476v9.684Zm11.052-10.8a3.424,3.424,0,0,1-2.394-.648,3.226,3.226,0,0,1-.666-2.34v-2.3A3.226,3.226,0,0,1,12.24-22a3.424,3.424,0,0,1,2.394-.648h14.22a.477.477,0,0,0,.54-.54v-.4a.477.477,0,0,0-.54-.54H12.978a1.262,1.262,0,0,1-1.116-.522,2.072,2.072,0,0,1-.36-1.206,2.072,2.072,0,0,1,.36-1.206,1.262,1.262,0,0,1,1.116-.522H30.762a3.424,3.424,0,0,1,2.394.648,3.226,3.226,0,0,1,.666,2.34v2.268a3.226,3.226,0,0,1-.666,2.34,3.424,3.424,0,0,1-2.394.648H16.542a.477.477,0,0,0-.54.54v.432a.477.477,0,0,0,.54.54H33.066a1.262,1.262,0,0,1,1.116.522,2.072,2.072,0,0,1,.36,1.206,2.072,2.072,0,0,1-.36,1.206,1.262,1.262,0,0,1-1.116.522ZM9.054-9.216a1.348,1.348,0,0,1-1.17-.522,2.121,2.121,0,0,1-.378-1.278,2.121,2.121,0,0,1,.378-1.278,1.348,1.348,0,0,1,1.17-.522h27.36a1.348,1.348,0,0,1,1.17.522,2.121,2.121,0,0,1,.378,1.278,2.121,2.121,0,0,1-.378,1.278,1.348,1.348,0,0,1-1.17.522Zm5.364,14.76A3.424,3.424,0,0,1,12.024,4.9a3.226,3.226,0,0,1-.666-2.34V.252a3.226,3.226,0,0,1,.666-2.34,3.424,3.424,0,0,1,2.394-.648H29.07a.477.477,0,0,0,.54-.54v-.4a.477.477,0,0,0-.54-.54H12.762a1.262,1.262,0,0,1-1.116-.522,2.072,2.072,0,0,1-.36-1.206,2.072,2.072,0,0,1,.36-1.206,1.262,1.262,0,0,1,1.116-.522H30.978a3.424,3.424,0,0,1,2.394.648,3.226,3.226,0,0,1,.666,2.34v2.268a3.226,3.226,0,0,1-.666,2.34,3.424,3.424,0,0,1-2.394.648H16.326a.477.477,0,0,0-.54.54v.432a.477.477,0,0,0,.54.54H33.282A1.262,1.262,0,0,1,34.4,2.61a2.072,2.072,0,0,1,.36,1.206,2.072,2.072,0,0,1-.36,1.206,1.262,1.262,0,0,1-1.116.522ZM51.39-20.52a1.382,1.382,0,0,1-1.224-.576,2.355,2.355,0,0,1-.4-1.368,2.355,2.355,0,0,1,.4-1.368,1.382,1.382,0,0,1,1.224-.576h5.58v-2.2a1.646,1.646,0,0,1,.7-1.476,2.821,2.821,0,0,1,1.6-.468,2.822,2.822,0,0,1,1.6.468,1.646,1.646,0,0,1,.7,1.476v2.2H66.8a1.382,1.382,0,0,1,1.224.576,2.355,2.355,0,0,1,.4,1.368,2.355,2.355,0,0,1-.4,1.368,1.382,1.382,0,0,1-1.224.576h-5.22v.828a4.737,4.737,0,0,0,.486,2.268,5.053,5.053,0,0,0,1.53,1.656q1.26.9,2.3,1.584T67.59-13.1a1.724,1.724,0,0,1,.864,1.278,2.177,2.177,0,0,1-.324,1.494,2.472,2.472,0,0,1-1.17.882,1.757,1.757,0,0,1-1.638-.234q-.72-.468-1.62-1.044t-1.764-1.188a12.388,12.388,0,0,1-1.908-1.512,2.855,2.855,0,0,1-.684-1.044H59.31a2.791,2.791,0,0,1-.738,1.242,12.638,12.638,0,0,1-1.962,1.566L54.558-10.3q-.972.648-2.088,1.332a1.605,1.605,0,0,1-.792.27,1.793,1.793,0,0,1-.756-.126,2.24,2.24,0,0,1-.648-.4,2.438,2.438,0,0,1-.468-.54,2.683,2.683,0,0,1-.36-1.494,1.59,1.59,0,0,1,.864-1.314q1.152-.72,2.268-1.44t2.376-1.62a5.053,5.053,0,0,0,1.53-1.656,4.737,4.737,0,0,0,.486-2.268v-.972Zm27.288.072a1.42,1.42,0,0,1,1.26.576,2.418,2.418,0,0,1,.4,1.4,2.5,2.5,0,0,1-.4,1.422,1.4,1.4,0,0,1-1.26.594H75.294v6.012a1.646,1.646,0,0,1-.7,1.476,2.821,2.821,0,0,1-1.6.468,2.821,2.821,0,0,1-1.6-.468,1.646,1.646,0,0,1-.7-1.476v-15.8a1.646,1.646,0,0,1,.7-1.476,2.821,2.821,0,0,1,1.6-.468,2.821,2.821,0,0,1,1.6.468,1.646,1.646,0,0,1,.7,1.476v5.8ZM66.942-3.24V-3.1a1.823,1.823,0,0,0,.684,1.422,6.793,6.793,0,0,0,1.98,1.1Q71.3.108,72.612.576t2.862.972a1.511,1.511,0,0,1,.972.936,1.9,1.9,0,0,1-.036,1.4,2.413,2.413,0,0,1-.864,1.08,1.561,1.561,0,0,1-1.44.108q-1.44-.468-2.772-.936T68.6,3.1a11.241,11.241,0,0,1-2.97-1.566A2.912,2.912,0,0,1,64.674.324h-.036A3,3,0,0,1,63.666,1.6a10.79,10.79,0,0,1-2.988,1.6q-1.4.576-2.736,1.044t-2.772.936a1.561,1.561,0,0,1-1.44-.108,2.389,2.389,0,0,1-.864-1.116,2.056,2.056,0,0,1-.054-1.44,1.463,1.463,0,0,1,.99-.972q1.548-.5,2.862-.972T59.67-.576a6.793,6.793,0,0,0,1.98-1.1A1.823,1.823,0,0,0,62.334-3.1V-3.24H54.918A1.352,1.352,0,0,1,53.712-3.8a2.286,2.286,0,0,1-.378-1.314,2.35,2.35,0,0,1,.378-1.35,1.352,1.352,0,0,1,1.206-.558h19.44a1.352,1.352,0,0,1,1.206.558,2.35,2.35,0,0,1,.378,1.35A2.286,2.286,0,0,1,75.564-3.8a1.352,1.352,0,0,1-1.206.558ZM85.878-17.712a8.984,8.984,0,0,1,.792-3.852,7.777,7.777,0,0,1,2.25-2.844,10.328,10.328,0,0,1,3.564-1.764,17.1,17.1,0,0,1,4.77-.612,17.148,17.148,0,0,1,4.752.612,10.314,10.314,0,0,1,3.582,1.764,7.777,7.777,0,0,1,2.25,2.844,8.984,8.984,0,0,1,.792,3.852,8.984,8.984,0,0,1-.792,3.852,7.777,7.777,0,0,1-2.25,2.844,10.314,10.314,0,0,1-3.582,1.764,17.148,17.148,0,0,1-4.752.612,17.1,17.1,0,0,1-4.77-.612,10.328,10.328,0,0,1-3.564-1.764,7.777,7.777,0,0,1-2.25-2.844A8.984,8.984,0,0,1,85.878-17.712Zm18.144,0a5.471,5.471,0,0,0-.378-2.034,4.161,4.161,0,0,0-1.206-1.656,5.927,5.927,0,0,0-2.106-1.1,10.481,10.481,0,0,0-3.078-.4,10.481,10.481,0,0,0-3.078.4,5.927,5.927,0,0,0-2.106,1.1,4.161,4.161,0,0,0-1.206,1.656,5.471,5.471,0,0,0-.378,2.034,5.471,5.471,0,0,0,.378,2.034,4.161,4.161,0,0,0,1.206,1.656,5.927,5.927,0,0,0,2.106,1.1,10.481,10.481,0,0,0,3.078.4,10.481,10.481,0,0,0,3.078-.4,5.927,5.927,0,0,0,2.106-1.1,4.161,4.161,0,0,0,1.206-1.656A5.471,5.471,0,0,0,104.022-17.712ZM83.646.324a1.382,1.382,0,0,1-1.224-.576,2.355,2.355,0,0,1-.4-1.368,2.418,2.418,0,0,1,.4-1.4A1.382,1.382,0,0,1,83.646-3.6h27.216a1.382,1.382,0,0,1,1.224.576,2.418,2.418,0,0,1,.4,1.4,2.355,2.355,0,0,1-.4,1.368,1.382,1.382,0,0,1-1.224.576Zm37.08-24.66a1.646,1.646,0,0,1,.7-1.476,2.822,2.822,0,0,1,1.6-.468,2.822,2.822,0,0,1,1.6.468,1.646,1.646,0,0,1,.7,1.476v5.148a12.91,12.91,0,0,0,.468,3.708,8.552,8.552,0,0,0,1.62,2.952q.828,1.044,1.674,1.98t1.458,1.62a1.737,1.737,0,0,1,.486,1.512,2.161,2.161,0,0,1-.7,1.368,2.182,2.182,0,0,1-1.44.558,1.908,1.908,0,0,1-1.44-.594q-.432-.468-1.116-1.224T125.01-8.856q-.54-.648-.9-1.152t-.576-.882a4.721,4.721,0,0,1-.324-.666,2.532,2.532,0,0,1-.144-.576h-.036a5.105,5.105,0,0,1-.486,1.368,12.092,12.092,0,0,1-1.494,2.088q-.648.792-1.386,1.62T118.134-5.4a1.837,1.837,0,0,1-1.476.558,2.094,2.094,0,0,1-1.4-.594,2.449,2.449,0,0,1-.72-1.458,1.857,1.857,0,0,1,.5-1.53q.972-1.044,1.872-2.052t1.728-2.052a8.552,8.552,0,0,0,1.62-2.952,12.91,12.91,0,0,0,.468-3.708Zm18.432-2.052a1.526,1.526,0,0,1,.648-1.368,2.6,2.6,0,0,1,1.476-.432,2.6,2.6,0,0,1,1.476.432,1.526,1.526,0,0,1,.648,1.368V1.476a1.526,1.526,0,0,1-.648,1.368,2.738,2.738,0,0,1-2.952,0,1.526,1.526,0,0,1-.648-1.368Zm-6.552.36a1.526,1.526,0,0,1,.648-1.368,2.6,2.6,0,0,1,1.476-.432,2.54,2.54,0,0,1,1.44.432,1.525,1.525,0,0,1,.648,1.368V-.036a1.525,1.525,0,0,1-.648,1.368,2.54,2.54,0,0,1-1.44.432,2.6,2.6,0,0,1-1.476-.432,1.526,1.526,0,0,1-.648-1.368v-14.8h-2.664a1.382,1.382,0,0,1-1.224-.576,2.418,2.418,0,0,1-.4-1.4,2.418,2.418,0,0,1,.4-1.4,1.382,1.382,0,0,1,1.224-.576h2.664ZM151.4-18.144a8.454,8.454,0,0,1,.792-3.726,7.739,7.739,0,0,1,2.25-2.772A10.053,10.053,0,0,1,158-26.352a18.1,18.1,0,0,1,4.77-.576,18.157,18.157,0,0,1,4.752.576,10.044,10.044,0,0,1,3.582,1.71,7.739,7.739,0,0,1,2.25,2.772,8.454,8.454,0,0,1,.792,3.726,8.424,8.424,0,0,1-.792,3.744,7.784,7.784,0,0,1-2.25,2.754,10.044,10.044,0,0,1-3.582,1.71,18.157,18.157,0,0,1-4.752.576A18.1,18.1,0,0,1,158-9.936a10.053,10.053,0,0,1-3.564-1.71,7.784,7.784,0,0,1-2.25-2.754A8.424,8.424,0,0,1,151.4-18.144Zm18.144,0a4.969,4.969,0,0,0-.378-1.944,3.839,3.839,0,0,0-1.206-1.548,6.271,6.271,0,0,0-2.106-1.026,10.95,10.95,0,0,0-3.078-.378,10.95,10.95,0,0,0-3.078.378,6.271,6.271,0,0,0-2.106,1.026,3.839,3.839,0,0,0-1.206,1.548,4.969,4.969,0,0,0-.378,1.944,4.969,4.969,0,0,0,.378,1.944,3.839,3.839,0,0,0,1.206,1.548,6.271,6.271,0,0,0,2.106,1.026,10.95,10.95,0,0,0,3.078.378,10.95,10.95,0,0,0,3.078-.378,6.271,6.271,0,0,0,2.106-1.026,3.839,3.839,0,0,0,1.206-1.548A4.969,4.969,0,0,0,169.542-18.144ZM149.166.324a1.382,1.382,0,0,1-1.224-.576,2.355,2.355,0,0,1-.4-1.368,2.294,2.294,0,0,1,.4-1.332,1.382,1.382,0,0,1,1.224-.576h5.9V-6.876a1.662,1.662,0,0,1,.684-1.476,2.8,2.8,0,0,1,1.62-.468,2.8,2.8,0,0,1,1.62.468,1.662,1.662,0,0,1,.684,1.476v3.348h6.192V-6.876a1.662,1.662,0,0,1,.684-1.476,2.8,2.8,0,0,1,1.62-.468,2.8,2.8,0,0,1,1.62.468,1.662,1.662,0,0,1,.684,1.476v3.348h5.9a1.383,1.383,0,0,1,1.224.576A2.294,2.294,0,0,1,178-1.62a2.355,2.355,0,0,1-.4,1.368,1.383,1.383,0,0,1-1.224.576Zm39.708-26.46a11.639,11.639,0,0,1,3.492.486,7.8,7.8,0,0,1,2.628,1.368,5.982,5.982,0,0,1,1.656,2.106,6.261,6.261,0,0,1,.576,2.7v.4a6.587,6.587,0,0,1-.2,1.638,5.712,5.712,0,0,1-.684,1.566,10.7,10.7,0,0,1-1.332,1.692q-.846.9-2.106,2.052-.792.72-1.26,1.242a5.58,5.58,0,0,0-.72.972,2.72,2.72,0,0,0-.324.9,6.544,6.544,0,0,0-.072,1.026,1.524,1.524,0,0,1-.63,1.3,2.379,2.379,0,0,1-1.458.468,2.646,2.646,0,0,1-1.548-.45,1.61,1.61,0,0,1-.648-1.422,12.036,12.036,0,0,1,.108-1.692,5.623,5.623,0,0,1,.414-1.458,5.753,5.753,0,0,1,.9-1.4,15.958,15.958,0,0,1,1.566-1.566q1.116-.972,1.782-1.638a8.227,8.227,0,0,0,1.026-1.206,3.167,3.167,0,0,0,.468-.99,4.242,4.242,0,0,0,.108-.99v-.18a2.712,2.712,0,0,0-.216-1.08,2.514,2.514,0,0,0-.666-.9,3.272,3.272,0,0,0-1.188-.63,6.084,6.084,0,0,0-1.818-.234,6.758,6.758,0,0,0-2.52.432,10.028,10.028,0,0,0-2.052,1.116,1.738,1.738,0,0,1-1.422.342,2.069,2.069,0,0,1-1.206-.846,2.229,2.229,0,0,1-.486-1.458,1.679,1.679,0,0,1,.738-1.35,11,11,0,0,1,3.078-1.674A11.794,11.794,0,0,1,188.874-26.136Zm-.468,22.32a2.643,2.643,0,0,1,1.944.792,2.643,2.643,0,0,1,.792,1.944A2.643,2.643,0,0,1,190.35.864a2.643,2.643,0,0,1-1.944.792,2.643,2.643,0,0,1-1.944-.792,2.643,2.643,0,0,1-.792-1.944,2.643,2.643,0,0,1,.792-1.944A2.643,2.643,0,0,1,188.406-3.816Z" transform="translate(546 479)" fill="#333"/>
    <path id="패스_59" data-name="패스 59" d="M-113.52-9.968a.614.614,0,0,1-.544-.256,1.047,1.047,0,0,1-.176-.608,1.075,1.075,0,0,1,.176-.624.614.614,0,0,1,.544-.256h4.784a1.522,1.522,0,0,1,1.064.288,1.434,1.434,0,0,1,.3,1.04v1.216a4.363,4.363,0,0,1-.216,1.456,2.912,2.912,0,0,1-.84,1.168,9.341,9.341,0,0,1-1.736,1.168q-1.112.608-2.9,1.456a.78.78,0,0,1-.72,0,1.03,1.03,0,0,1-.48-.5.9.9,0,0,1-.1-.32,1.061,1.061,0,0,1,.008-.344.776.776,0,0,1,.136-.312.773.773,0,0,1,.312-.24q1.6-.736,2.5-1.224a8.823,8.823,0,0,0,1.352-.856,1.586,1.586,0,0,0,.552-.712,2.8,2.8,0,0,0,.1-.808V-9.6a.325.325,0,0,0-.368-.368Zm11.9.8a.631.631,0,0,1,.56.256,1.075,1.075,0,0,1,.176.624,1.113,1.113,0,0,1-.176.632.624.624,0,0,1-.56.264h-1.5V-4.64a.732.732,0,0,1-.312.656,1.254,1.254,0,0,1-.712.208,1.254,1.254,0,0,1-.712-.208.732.732,0,0,1-.312-.656v-7.024a.732.732,0,0,1,.312-.656,1.254,1.254,0,0,1,.712-.208,1.254,1.254,0,0,1,.712.208.732.732,0,0,1,.312.656v2.5Zm-3.552,8.08a.325.325,0,0,0-.368-.368h-6.592a.614.614,0,0,1-.544-.256,1.047,1.047,0,0,1-.176-.608,1.047,1.047,0,0,1,.176-.608.614.614,0,0,1,.544-.256h7.648a1.522,1.522,0,0,1,1.064.288,1.434,1.434,0,0,1,.3,1.04v3.5a.732.732,0,0,1-.312.656,1.254,1.254,0,0,1-.712.208,1.254,1.254,0,0,1-.712-.208.732.732,0,0,1-.312-.656Zm20.816-6.368a1.434,1.434,0,0,1-.3,1.04,1.522,1.522,0,0,1-1.064.288h-7.3a1.522,1.522,0,0,1-1.064-.288,1.434,1.434,0,0,1-.3-1.04v-3.9a.7.7,0,0,1,.312-.624,1.2,1.2,0,0,1,.68-.208,1.227,1.227,0,0,1,.7.208.7.7,0,0,1,.312.624v.88h6.016v-.88a.7.7,0,0,1,.312-.624,1.2,1.2,0,0,1,.68-.208,1.227,1.227,0,0,1,.7.208.7.7,0,0,1,.312.624Zm-2.24-.336a.212.212,0,0,0,.24-.24v-.784h-6.016v.784a.212.212,0,0,0,.24.24ZM-95.408-3.28a.614.614,0,0,1-.544-.256,1.019,1.019,0,0,1-.176-.592,1.047,1.047,0,0,1,.176-.608.614.614,0,0,1,.544-.256h12.1a.614.614,0,0,1,.544.256,1.047,1.047,0,0,1,.176.608,1.019,1.019,0,0,1-.176.592.614.614,0,0,1-.544.256h-4.816v1.728a.652.652,0,0,1-.3.6,1.354,1.354,0,0,1-.728.184,1.322,1.322,0,0,1-.712-.184.652.652,0,0,1-.3-.6V-3.28ZM-84.784.528a.614.614,0,0,1,.544.256,1.047,1.047,0,0,1,.176.608A1.047,1.047,0,0,1-84.24,2a.614.614,0,0,1-.544.256H-93.04A1.522,1.522,0,0,1-94.1,1.968a1.434,1.434,0,0,1-.3-1.04V-1.424a.732.732,0,0,1,.312-.656,1.282,1.282,0,0,1,.728-.208,1.254,1.254,0,0,1,.712.208.732.732,0,0,1,.312.656V.16a.325.325,0,0,0,.368.368Zm3.376-7.376a5.8,5.8,0,0,1,.96-3.616,3.426,3.426,0,0,1,2.88-1.232,3.426,3.426,0,0,1,2.88,1.232,5.8,5.8,0,0,1,.96,3.616,5.8,5.8,0,0,1-.96,3.616A3.426,3.426,0,0,1-77.568-2a3.426,3.426,0,0,1-2.88-1.232A5.8,5.8,0,0,1-81.408-6.848Zm5.712,0a4.994,4.994,0,0,0-.416-2.3,1.51,1.51,0,0,0-1.456-.776,1.51,1.51,0,0,0-1.456.776,4.994,4.994,0,0,0-.416,2.3,4.994,4.994,0,0,0,.416,2.3,1.51,1.51,0,0,0,1.456.776,1.51,1.51,0,0,0,1.456-.776A4.994,4.994,0,0,0-75.7-6.848ZM-70-9.616h1.36a.631.631,0,0,1,.56.256,1.075,1.075,0,0,1,.176.624,1.075,1.075,0,0,1-.176.624.631.631,0,0,1-.56.256H-70V-6h1.36a.631.631,0,0,1,.56.256,1.075,1.075,0,0,1,.176.624,1.075,1.075,0,0,1-.176.624.631.631,0,0,1-.56.256H-70V.592a.732.732,0,0,1-.312.656,1.254,1.254,0,0,1-.712.208,1.254,1.254,0,0,1-.712-.208.732.732,0,0,1-.312-.656V-11.664a.732.732,0,0,1,.312-.656,1.254,1.254,0,0,1,.712-.208,1.254,1.254,0,0,1,.712.208.732.732,0,0,1,.312.656ZM-59.408-6.64a1.434,1.434,0,0,1-.3,1.04,1.522,1.522,0,0,1-1.064.288H-64.96A1.522,1.522,0,0,1-66.024-5.6a1.434,1.434,0,0,1-.3-1.04V-11.2a.7.7,0,0,1,.312-.624,1.2,1.2,0,0,1,.68-.208,1.227,1.227,0,0,1,.7.208.7.7,0,0,1,.312.624v1.28h2.912V-11.2a.7.7,0,0,1,.312-.624,1.2,1.2,0,0,1,.68-.208,1.227,1.227,0,0,1,.7.208.7.7,0,0,1,.312.624Zm-2.368-.3a.325.325,0,0,0,.368-.368v-.976H-64.32v.976a.325.325,0,0,0,.368.368Zm3.664-2.016a.561.561,0,0,1-.52-.248,1.127,1.127,0,0,1-.152-.6,1.127,1.127,0,0,1,.152-.6.561.561,0,0,1,.52-.248h1.44v-1.008a.732.732,0,0,1,.312-.656,1.227,1.227,0,0,1,.7-.208,1.227,1.227,0,0,1,.7.208.732.732,0,0,1,.312.656v6a.732.732,0,0,1-.312.656,1.227,1.227,0,0,1-.7.208,1.227,1.227,0,0,1-.7-.208.732.732,0,0,1-.312-.656v-.752h-1.44a.561.561,0,0,1-.52-.248,1.127,1.127,0,0,1-.152-.6,1.127,1.127,0,0,1,.152-.6.561.561,0,0,1,.52-.248h1.44V-8.96Zm1.12,7.28a.311.311,0,0,0,.352-.352V-2.24a.311.311,0,0,0-.352-.352H-63.68a.564.564,0,0,1-.512-.248,1.025,1.025,0,0,1-.16-.568.986.986,0,0,1,.16-.56.571.571,0,0,1,.512-.24h7.664a1.522,1.522,0,0,1,1.064.288,1.434,1.434,0,0,1,.3,1.04v1.424a1.434,1.434,0,0,1-.3,1.04,1.522,1.522,0,0,1-1.064.288h-5.968a.311.311,0,0,0-.352.352V.432a.311.311,0,0,0,.352.352h6.976a.564.564,0,0,1,.512.248,1.025,1.025,0,0,1,.16.568.986.986,0,0,1-.16.56.571.571,0,0,1-.512.24H-62.96a1.522,1.522,0,0,1-1.064-.288,1.434,1.434,0,0,1-.3-1.04V-.352a1.434,1.434,0,0,1,.3-1.04A1.522,1.522,0,0,1-62.96-1.68Zm15.056-8.784a.614.614,0,0,1,.544.256,1.047,1.047,0,0,1,.176.608,1.047,1.047,0,0,1-.176.608.614.614,0,0,1-.544.256H-43.7V-7.9q0,.464.032.816a2.968,2.968,0,0,0,.128.648,2.66,2.66,0,0,0,.256.56,4.594,4.594,0,0,0,.416.568q.4.464.784.864t.624.624a.725.725,0,0,1,.248.632,1,1,0,0,1-.3.616.857.857,0,0,1-.6.288.892.892,0,0,1-.648-.256q-.256-.24-.512-.512l-.56-.592q-.256-.272-.408-.464a2.594,2.594,0,0,1-.24-.352,2.6,2.6,0,0,1-.136-.28,1,1,0,0,1-.064-.248h-.016a1.78,1.78,0,0,1-.224.576,5.583,5.583,0,0,1-.672.848q-.32.352-.656.7t-.672.664a.783.783,0,0,1-.648.24.92.92,0,0,1-.616-.288,1.064,1.064,0,0,1-.3-.648.764.764,0,0,1,.24-.632q.464-.448.88-.88t.816-.9a4.594,4.594,0,0,0,.416-.568,2.66,2.66,0,0,0,.256-.56,2.969,2.969,0,0,0,.128-.648q.032-.352.032-.816v-.832h-1.952a.614.614,0,0,1-.544-.256,1.047,1.047,0,0,1-.176-.608,1.047,1.047,0,0,1,.176-.608.614.614,0,0,1,.544-.256h1.952v-1.152a.716.716,0,0,1,.312-.64,1.227,1.227,0,0,1,.7-.208,1.227,1.227,0,0,1,.7.208.716.716,0,0,1,.312.64v1.152Zm3.04,2.752h1.28v-4.016a.678.678,0,0,1,.288-.608,1.155,1.155,0,0,1,.656-.192,1.155,1.155,0,0,1,.656.192.678.678,0,0,1,.288.608V.656a.678.678,0,0,1-.288.608,1.155,1.155,0,0,1-.656.192,1.155,1.155,0,0,1-.656-.192.678.678,0,0,1-.288-.608v-6.64H-38.9V-.016a.678.678,0,0,1-.288.608,1.155,1.155,0,0,1-.656.192,1.129,1.129,0,0,1-.64-.192.678.678,0,0,1-.288-.608V-11.568a.678.678,0,0,1,.288-.608,1.129,1.129,0,0,1,.64-.192,1.155,1.155,0,0,1,.656.192.678.678,0,0,1,.288.608ZM-27.12-6.624a12.412,12.412,0,0,1-2.1-.16,5.266,5.266,0,0,1-1.576-.5,2.612,2.612,0,0,1-.992-.872,2.264,2.264,0,0,1-.344-1.264,2.264,2.264,0,0,1,.344-1.264,2.612,2.612,0,0,1,.992-.872,5.266,5.266,0,0,1,1.576-.5,12.412,12.412,0,0,1,2.1-.16,12.412,12.412,0,0,1,2.1.16,5.266,5.266,0,0,1,1.576.5,2.612,2.612,0,0,1,.992.872,2.264,2.264,0,0,1,.344,1.264,2.264,2.264,0,0,1-.344,1.264,2.612,2.612,0,0,1-.992.872,5.265,5.265,0,0,1-1.576.5A12.412,12.412,0,0,1-27.12-6.624Zm0-3.968a6.155,6.155,0,0,0-2.288.3.954.954,0,0,0-.688.864.954.954,0,0,0,.688.864,6.155,6.155,0,0,0,2.288.3,6.155,6.155,0,0,0,2.288-.3.954.954,0,0,0,.688-.864.954.954,0,0,0-.688-.864A6.155,6.155,0,0,0-27.12-10.592Zm-6.064,6.88a.6.6,0,0,1-.536-.248,1.044,1.044,0,0,1-.168-.6,1.016,1.016,0,0,1,.168-.584.6.6,0,0,1,.536-.248h2.928v-2.32H-28.3v2.32h2.368v-2.32h1.952v2.32h2.928a.6.6,0,0,1,.536.248,1.016,1.016,0,0,1,.168.584,1.044,1.044,0,0,1-.168.6.6.6,0,0,1-.536.248ZM-32.16-.144a2.264,2.264,0,0,1,.344-1.264,2.6,2.6,0,0,1,1-.872,5.371,5.371,0,0,1,1.584-.5,12.521,12.521,0,0,1,2.112-.16,12.557,12.557,0,0,1,2.1.16,5.375,5.375,0,0,1,1.592.5,2.6,2.6,0,0,1,1,.872A2.264,2.264,0,0,1-22.08-.144a2.264,2.264,0,0,1-.344,1.264,2.6,2.6,0,0,1-1,.872,5.375,5.375,0,0,1-1.592.5,12.557,12.557,0,0,1-2.1.16,12.521,12.521,0,0,1-2.112-.16,5.371,5.371,0,0,1-1.584-.5,2.6,2.6,0,0,1-1-.872A2.264,2.264,0,0,1-32.16-.144Zm8.048,0q0-.56-.7-.872a6.135,6.135,0,0,0-2.312-.312,6.135,6.135,0,0,0-2.312.312q-.7.312-.7.872t.7.872a6.135,6.135,0,0,0,2.312.312A6.135,6.135,0,0,0-24.808.728Q-24.112.416-24.112-.144Zm7.072-10.032a.614.614,0,0,1-.544-.256,1.075,1.075,0,0,1-.176-.624,1.075,1.075,0,0,1,.176-.624.614.614,0,0,1,.544-.256h8.128a1.522,1.522,0,0,1,1.064.288,1.434,1.434,0,0,1,.3,1.04V-9.44a9.52,9.52,0,0,1-.064,1.128,5.449,5.449,0,0,1-.192.952.848.848,0,0,1-.488.568,1.235,1.235,0,0,1-.776.056,1.012,1.012,0,0,1-.6-.344.78.78,0,0,1-.12-.7A7.589,7.589,0,0,0-9.6-9.488v-.32a.325.325,0,0,0-.368-.368ZM-18.608-4.24a.614.614,0,0,1-.544-.256,1.047,1.047,0,0,1-.176-.608,1.019,1.019,0,0,1,.176-.592.614.614,0,0,1,.544-.256h4V-7.744a.716.716,0,0,1,.312-.64,1.254,1.254,0,0,1,.712-.208,1.254,1.254,0,0,1,.712.208.716.716,0,0,1,.312.64v1.792h6.048a.614.614,0,0,1,.544.256,1.019,1.019,0,0,1,.176.592,1.047,1.047,0,0,1-.176.608.614.614,0,0,1-.544.256ZM-17.6-.288a2.415,2.415,0,0,1,.344-1.3,2.642,2.642,0,0,1,1-.912,5.214,5.214,0,0,1,1.584-.528A11.937,11.937,0,0,1-12.56-3.2a11.972,11.972,0,0,1,2.1.168A5.217,5.217,0,0,1-8.864-2.5a2.642,2.642,0,0,1,1,.912,2.415,2.415,0,0,1,.344,1.3,2.415,2.415,0,0,1-.344,1.3,2.642,2.642,0,0,1-1,.912,5.217,5.217,0,0,1-1.592.528,11.972,11.972,0,0,1-2.1.168,11.937,11.937,0,0,1-2.112-.168,5.214,5.214,0,0,1-1.584-.528,2.642,2.642,0,0,1-1-.912A2.415,2.415,0,0,1-17.6-.288Zm8.048,0a1.053,1.053,0,0,0-.7-.952,5.613,5.613,0,0,0-2.312-.344,5.613,5.613,0,0,0-2.312.344,1.053,1.053,0,0,0-.7.952,1.053,1.053,0,0,0,.7.952,5.613,5.613,0,0,0,2.312.344A5.613,5.613,0,0,0-10.248.664,1.053,1.053,0,0,0-9.552-.288Zm7.04-9.456A.614.614,0,0,1-3.056-10a1.075,1.075,0,0,1-.176-.624,1.075,1.075,0,0,1,.176-.624.614.614,0,0,1,.544-.256H5.68a1.522,1.522,0,0,1,1.064.288,1.434,1.434,0,0,1,.3,1.04v1.44q0,1.472-.1,2.608a17.054,17.054,0,0,1-.328,2.144.79.79,0,0,1-.456.592,1.361,1.361,0,0,1-.808.08,1.151,1.151,0,0,1-.6-.32A.724.724,0,0,1,4.592-4.3a18.346,18.346,0,0,0,.3-2.1q.1-1.088.1-2.384v-.592a.325.325,0,0,0-.368-.368Zm10.56,8.16a.614.614,0,0,1,.544.256,1.047,1.047,0,0,1,.176.608,1.047,1.047,0,0,1-.176.608.614.614,0,0,1-.544.256h-12.1a.614.614,0,0,1-.544-.256A1.047,1.047,0,0,1-4.768-.72a1.047,1.047,0,0,1,.176-.608.614.614,0,0,1,.544-.256h4v-4.3a.732.732,0,0,1,.312-.656,1.254,1.254,0,0,1,.712-.208,1.254,1.254,0,0,1,.712.208A.732.732,0,0,1,2-5.888v4.3Zm4.912-4.8A1.522,1.522,0,0,1,11.9-6.672a1.434,1.434,0,0,1-.3-1.04V-8.736a1.434,1.434,0,0,1,.3-1.04,1.522,1.522,0,0,1,1.064-.288h6.32a.212.212,0,0,0,.24-.24v-.176a.212.212,0,0,0-.24-.24H12.224a.561.561,0,0,1-.5-.232.921.921,0,0,1-.16-.536.921.921,0,0,1,.16-.536.561.561,0,0,1,.5-.232h7.9a1.522,1.522,0,0,1,1.064.288,1.434,1.434,0,0,1,.3,1.04V-9.92a1.434,1.434,0,0,1-.3,1.04,1.522,1.522,0,0,1-1.064.288h-6.32a.212.212,0,0,0-.24.24v.192a.212.212,0,0,0,.24.24h7.344a.561.561,0,0,1,.5.232.921.921,0,0,1,.16.536.921.921,0,0,1-.16.536.561.561,0,0,1-.5.232ZM10.48-4.1a.6.6,0,0,1-.52-.232A.943.943,0,0,1,9.792-4.9a.943.943,0,0,1,.168-.568.6.6,0,0,1,.52-.232H22.64a.6.6,0,0,1,.52.232.943.943,0,0,1,.168.568.943.943,0,0,1-.168.568.6.6,0,0,1-.52.232Zm2.384,6.56A1.522,1.522,0,0,1,11.8,2.176a1.434,1.434,0,0,1-.3-1.04V.112a1.434,1.434,0,0,1,.3-1.04,1.522,1.522,0,0,1,1.064-.288h6.512a.212.212,0,0,0,.24-.24v-.176a.212.212,0,0,0-.24-.24H12.128a.561.561,0,0,1-.5-.232.921.921,0,0,1-.16-.536.921.921,0,0,1,.16-.536.561.561,0,0,1,.5-.232h8.1a1.522,1.522,0,0,1,1.064.288,1.434,1.434,0,0,1,.3,1.04v1.008a1.434,1.434,0,0,1-.3,1.04,1.522,1.522,0,0,1-1.064.288H13.712a.212.212,0,0,0-.24.24V.688a.212.212,0,0,0,.24.24h7.536a.561.561,0,0,1,.5.232.921.921,0,0,1,.16.536.921.921,0,0,1-.16.536.561.561,0,0,1-.5.232ZM33.056-9.28a5.051,5.051,0,0,1,2.536.536,1.719,1.719,0,0,1,.92,1.576,1.719,1.719,0,0,1-.92,1.576,5.051,5.051,0,0,1-2.536.536,5.051,5.051,0,0,1-2.536-.536,1.719,1.719,0,0,1-.92-1.576,1.719,1.719,0,0,1,.92-1.576A5.051,5.051,0,0,1,33.056-9.28Zm0,2.784q1.616,0,1.616-.672T33.056-7.84q-1.616,0-1.616.672T33.056-6.5Zm-3.7-3.3a.561.561,0,0,1-.5-.232.948.948,0,0,1-.16-.552.986.986,0,0,1,.16-.56.554.554,0,0,1,.5-.24h2.672V-12a.706.706,0,0,1,.3-.624,1.244,1.244,0,0,1,.72-.208,1.254,1.254,0,0,1,.712.208A.7.7,0,0,1,34.08-12v.624h2.512a.554.554,0,0,1,.5.24.986.986,0,0,1,.16.56.948.948,0,0,1-.16.552.561.561,0,0,1-.5.232Zm10.832,1.5h1.3a.631.631,0,0,1,.56.256,1.075,1.075,0,0,1,.176.624,1.113,1.113,0,0,1-.176.632.624.624,0,0,1-.56.264h-1.3v3.264a.722.722,0,0,1-.3.64,1.216,1.216,0,0,1-.7.208,1.216,1.216,0,0,1-.7-.208.722.722,0,0,1-.3-.64V-11.68a.722.722,0,0,1,.3-.64,1.216,1.216,0,0,1,.7-.208,1.216,1.216,0,0,1,.7.208.722.722,0,0,1,.3.64ZM36.976-2.816q-1.568.128-3.656.2t-4.328.072a.591.591,0,0,1-.52-.24A.979.979,0,0,1,28.3-3.36a.916.916,0,0,1,.168-.552.6.6,0,0,1,.52-.232h1.536q.768,0,1.536-.016V-5.776h1.984v1.568q.7-.032,1.4-.072t1.384-.1a.6.6,0,0,1,.544.176.94.94,0,0,1,.208.528.953.953,0,0,1-.112.576A.587.587,0,0,1,36.976-2.816ZM38.192.176a.325.325,0,0,0-.368-.368H30.8a.571.571,0,0,1-.512-.24.986.986,0,0,1-.16-.56,1.025,1.025,0,0,1,.16-.568.564.564,0,0,1,.512-.248h8.032A1.522,1.522,0,0,1,39.9-1.52a1.434,1.434,0,0,1,.3,1.04V1.7a.716.716,0,0,1-.312.64,1.227,1.227,0,0,1-.7.208,1.2,1.2,0,0,1-.68-.208.716.716,0,0,1-.312-.64ZM43.392-8a4.681,4.681,0,0,1,.24-1.52,3.242,3.242,0,0,1,.72-1.208,3.344,3.344,0,0,1,1.2-.792,4.505,4.505,0,0,1,1.68-.288,4.505,4.505,0,0,1,1.68.288,3.344,3.344,0,0,1,1.2.792,3.242,3.242,0,0,1,.72,1.208A4.681,4.681,0,0,1,51.072-8a4.681,4.681,0,0,1-.24,1.52,3.242,3.242,0,0,1-.72,1.208,3.344,3.344,0,0,1-1.2.792,4.505,4.505,0,0,1-1.68.288,4.505,4.505,0,0,1-1.68-.288,3.344,3.344,0,0,1-1.2-.792,3.242,3.242,0,0,1-.72-1.208A4.681,4.681,0,0,1,43.392-8ZM49.12-8a3.11,3.11,0,0,0-.1-.816,1.8,1.8,0,0,0-.328-.664,1.6,1.6,0,0,0-.584-.448,2.051,2.051,0,0,0-.872-.168,2.051,2.051,0,0,0-.872.168,1.6,1.6,0,0,0-.584.448,1.8,1.8,0,0,0-.328.664,3.11,3.11,0,0,0-.1.816,3.11,3.11,0,0,0,.1.816,1.8,1.8,0,0,0,.328.664,1.6,1.6,0,0,0,.584.448,2.051,2.051,0,0,0,.872.168,2.051,2.051,0,0,0,.872-.168,1.6,1.6,0,0,0,.584-.448,1.8,1.8,0,0,0,.328-.664A3.11,3.11,0,0,0,49.12-8Zm6.048,5.52a.732.732,0,0,1-.312.656,1.254,1.254,0,0,1-.712.208,1.254,1.254,0,0,1-.712-.208.732.732,0,0,1-.312-.656v-9.184a.732.732,0,0,1,.312-.656,1.254,1.254,0,0,1,.712-.208,1.254,1.254,0,0,1,.712.208.732.732,0,0,1,.312.656ZM46.9,2.192A1.522,1.522,0,0,1,45.832,1.9a1.434,1.434,0,0,1-.3-1.04V-2.16a.732.732,0,0,1,.312-.656,1.282,1.282,0,0,1,.728-.208,1.254,1.254,0,0,1,.712.208.732.732,0,0,1,.312.656V.08a.325.325,0,0,0,.368.368H54.8A.614.614,0,0,1,55.344.7a1.075,1.075,0,0,1,.176.624,1.047,1.047,0,0,1-.176.608.614.614,0,0,1-.544.256ZM61.152-8.032a2.99,2.99,0,0,1,2.3.864,3.215,3.215,0,0,1,.808,2.288,3.215,3.215,0,0,1-.808,2.288,2.99,2.99,0,0,1-2.3.864,2.99,2.99,0,0,1-2.3-.864,3.215,3.215,0,0,1-.808-2.288,3.215,3.215,0,0,1,.808-2.288A2.99,2.99,0,0,1,61.152-8.032ZM60.144-10.48v-1.1a.716.716,0,0,1,.312-.64,1.227,1.227,0,0,1,.7-.208,1.227,1.227,0,0,1,.7.208.716.716,0,0,1,.312.64v1.1h1.888a.614.614,0,0,1,.544.256,1.019,1.019,0,0,1,.176.592,1.047,1.047,0,0,1-.176.608.614.614,0,0,1-.544.256H58.016a.614.614,0,0,1-.544-.256,1.047,1.047,0,0,1-.176-.608,1.019,1.019,0,0,1,.176-.592.614.614,0,0,1,.544-.256Zm1.008,7.12a1.316,1.316,0,0,0,.984-.384,1.561,1.561,0,0,0,.376-1.136,1.561,1.561,0,0,0-.376-1.136,1.316,1.316,0,0,0-.984-.384,1.316,1.316,0,0,0-.984.384,1.561,1.561,0,0,0-.376,1.136,1.561,1.561,0,0,0,.376,1.136A1.316,1.316,0,0,0,61.152-3.36ZM67.04-7.552h1.28v-4.176a.678.678,0,0,1,.288-.608,1.129,1.129,0,0,1,.64-.192,1.155,1.155,0,0,1,.656.192.678.678,0,0,1,.288.608V.656a.678.678,0,0,1-.288.608,1.155,1.155,0,0,1-.656.192,1.129,1.129,0,0,1-.64-.192A.678.678,0,0,1,68.32.656v-6.48H67.04V0a.662.662,0,0,1-.288.592,1.129,1.129,0,0,1-.64.192,1.129,1.129,0,0,1-.64-.192A.662.662,0,0,1,65.184,0V-11.584a.662.662,0,0,1,.288-.592,1.129,1.129,0,0,1,.64-.192,1.129,1.129,0,0,1,.64.192.662.662,0,0,1,.288.592Zm8.08,3.424a1.522,1.522,0,0,1-1.064-.288,1.434,1.434,0,0,1-.3-1.04v-5.536a.73.73,0,0,1,.32-.648,1.232,1.232,0,0,1,.7-.216,1.232,1.232,0,0,1,.7.216.73.73,0,0,1,.32.648V-9.44h5.984v-1.552a.73.73,0,0,1,.32-.648,1.232,1.232,0,0,1,.7-.216,1.232,1.232,0,0,1,.7.216.73.73,0,0,1,.32.648v5.536a1.434,1.434,0,0,1-.3,1.04,1.522,1.522,0,0,1-1.064.288Zm6.3-1.712a.325.325,0,0,0,.368-.368v-1.52H75.808v1.52a.325.325,0,0,0,.368.368ZM72.752.144a.614.614,0,0,1-.544-.256,1.047,1.047,0,0,1-.176-.608,1.047,1.047,0,0,1,.176-.608.614.614,0,0,1,.544-.256h5.024V-5.1h2.048v3.52h5.024a.614.614,0,0,1,.544.256,1.047,1.047,0,0,1,.176.608,1.047,1.047,0,0,1-.176.608.614.614,0,0,1-.544.256Zm16.48-10.96a.732.732,0,0,1,.312-.656,1.254,1.254,0,0,1,.712-.208,1.254,1.254,0,0,1,.712.208.732.732,0,0,1,.312.656v2.288a5.738,5.738,0,0,0,.208,1.648,3.8,3.8,0,0,0,.72,1.312q.368.464.744.88t.648.72a.772.772,0,0,1,.216.672.961.961,0,0,1-.312.608.97.97,0,0,1-.64.248.848.848,0,0,1-.64-.264q-.192-.208-.5-.544t-.592-.688q-.24-.288-.4-.512T90.48-4.84a2.1,2.1,0,0,1-.144-.3,1.125,1.125,0,0,1-.064-.256h-.016a2.269,2.269,0,0,1-.216.608,5.374,5.374,0,0,1-.664.928q-.288.352-.616.72t-.68.736a.817.817,0,0,1-.656.248.931.931,0,0,1-.624-.264,1.089,1.089,0,0,1-.32-.648.825.825,0,0,1,.224-.68q.432-.464.832-.912t.768-.912a3.8,3.8,0,0,0,.72-1.312,5.738,5.738,0,0,0,.208-1.648Zm8.192-.912a.678.678,0,0,1,.288-.608,1.155,1.155,0,0,1,.656-.192,1.155,1.155,0,0,1,.656.192.678.678,0,0,1,.288.608V.656a.678.678,0,0,1-.288.608,1.217,1.217,0,0,1-1.312,0,.678.678,0,0,1-.288-.608Zm-2.912.16a.678.678,0,0,1,.288-.608,1.155,1.155,0,0,1,.656-.192,1.129,1.129,0,0,1,.64.192.678.678,0,0,1,.288.608V-.016A.678.678,0,0,1,96.1.592a1.129,1.129,0,0,1-.64.192A1.155,1.155,0,0,1,94.8.592a.678.678,0,0,1-.288-.608V-6.592H93.328a.614.614,0,0,1-.544-.256,1.075,1.075,0,0,1-.176-.624,1.075,1.075,0,0,1,.176-.624.614.614,0,0,1,.544-.256h1.184Zm8.352,3.5a3.757,3.757,0,0,1,.352-1.656,3.44,3.44,0,0,1,1-1.232,4.468,4.468,0,0,1,1.584-.76,8.047,8.047,0,0,1,2.12-.256,8.07,8.07,0,0,1,2.112.256,4.464,4.464,0,0,1,1.592.76,3.44,3.44,0,0,1,1,1.232,3.757,3.757,0,0,1,.352,1.656,3.744,3.744,0,0,1-.352,1.664,3.46,3.46,0,0,1-1,1.224,4.464,4.464,0,0,1-1.592.76,8.07,8.07,0,0,1-2.112.256,8.046,8.046,0,0,1-2.12-.256,4.468,4.468,0,0,1-1.584-.76,3.46,3.46,0,0,1-1-1.224A3.744,3.744,0,0,1,102.864-8.064Zm8.064,0a2.208,2.208,0,0,0-.168-.864,1.706,1.706,0,0,0-.536-.688,2.787,2.787,0,0,0-.936-.456,4.867,4.867,0,0,0-1.368-.168,4.867,4.867,0,0,0-1.368.168,2.787,2.787,0,0,0-.936.456,1.706,1.706,0,0,0-.536.688,2.208,2.208,0,0,0-.168.864,2.208,2.208,0,0,0,.168.864,1.706,1.706,0,0,0,.536.688,2.787,2.787,0,0,0,.936.456,4.867,4.867,0,0,0,1.368.168,4.867,4.867,0,0,0,1.368-.168,2.787,2.787,0,0,0,.936-.456,1.706,1.706,0,0,0,.536-.688A2.208,2.208,0,0,0,110.928-8.064ZM101.872.144a.614.614,0,0,1-.544-.256,1.047,1.047,0,0,1-.176-.608,1.019,1.019,0,0,1,.176-.592.614.614,0,0,1,.544-.256H104.5V-3.056a.739.739,0,0,1,.3-.656,1.244,1.244,0,0,1,.72-.208,1.244,1.244,0,0,1,.72.208.739.739,0,0,1,.3.656v1.488H109.3V-3.056a.739.739,0,0,1,.3-.656,1.244,1.244,0,0,1,.72-.208,1.244,1.244,0,0,1,.72.208.739.739,0,0,1,.3.656v1.488h2.624a.614.614,0,0,1,.544.256,1.019,1.019,0,0,1,.176.592,1.047,1.047,0,0,1-.176.608.614.614,0,0,1-.544.256Z" transform="translate(630 512)" fill="#707070"/>
  </g>
</svg>
