<svg xmlns="http://www.w3.org/2000/svg" xmlns:xlink="http://www.w3.org/1999/xlink" width="115" height="116" viewBox="0 0 115 116">
  <defs>
    <filter id="bg-icon" x="9" y="0" width="98" height="98" filterUnits="userSpaceOnUse">
      <feOffset dy="3" input="SourceAlpha"/>
      <feGaussianBlur stdDeviation="3" result="blur"/>
      <feFlood flood-opacity="0.161"/>
      <feComposite operator="in" in2="blur"/>
      <feComposite in="SourceGraphic"/>
    </filter>
  </defs>
  <g id="ic_communicator" transform="translate(-561 -269)">
    <rect id="bg-layout" width="115" height="110" transform="translate(561 275)" fill="none"/>
    <g id="아이콘" transform="translate(-42 22)">
      <g transform="matrix(1, 0, 0, 1, 603, 247)" filter="url(#bg-icon)">
        <rect id="bg-icon-2" data-name="bg-icon" width="80" height="80" rx="20" transform="translate(18 6)" fill="#2bd6be"/>
      </g>
      <g id="noun_Seo_expert_728392" data-name="noun_Seo expert_728392" transform="translate(628.9 260.654)">
        <path id="패스_41" data-name="패스 41" d="M30.159,179.919h0a18.033,18.033,0,0,0-3.968-1.782,17.761,17.761,0,0,0,4.122-10.608,9.729,9.729,0,1,0-19.458,0,17.766,17.766,0,0,0,4.17,10.6A18.416,18.416,0,0,0,2.1,195.766v3.873H39.08v-3.9A18.431,18.431,0,0,0,30.159,179.919Zm-11.3.927a5.627,5.627,0,0,0,1.711.3,6.585,6.585,0,0,0,3.968-1.461,16.553,16.553,0,0,1,3.718,1.414l-7.686,11.891L12.9,181.1a16.18,16.18,0,0,1,3.742-1.414A7.411,7.411,0,0,0,18.862,180.846Zm1.722-21.109a7.792,7.792,0,0,1,7.781,7.781A15.719,15.719,0,0,1,23.9,177.662l-.249.214c-2.079,1.758-4.075,1.758-6.153,0l-.249-.214a15.755,15.755,0,0,1-4.455-10.145A7.8,7.8,0,0,1,20.584,159.736ZM37.132,197.69H4.036v-1.948a16.458,16.458,0,0,1,7.187-13.649l9.361,14.469,9.361-14.469a16.474,16.474,0,0,1,7.187,13.649Z" transform="translate(0 -137.292)" fill="#fff"/>
        <rect id="사각형_18" data-name="사각형 18" width="5.845" height="1.948" transform="translate(27.391 57.476)" fill="#fff"/>
        <path id="패스_42" data-name="패스 42" d="M232.522,2C222.864,2,215,8.118,215,15.625c0,4.585,2.9,8.791,7.781,11.321v6.6l4.847-4.847a21.845,21.845,0,0,0,4.894.546c9.658,0,17.522-6.118,17.522-13.625S242.18,2,232.522,2Zm0,25.3a19.86,19.86,0,0,1-4.954-.618l-.535-.131-2.293,2.293V25.735l-.558-.261c-4.526-2.174-7.234-5.845-7.234-9.848,0-6.439,6.985-11.677,15.574-11.677S248.1,9.187,248.1,15.625,241.111,27.3,232.522,27.3Z" transform="translate(-187.609)" fill="#fff"/>
        <path id="패스_43" data-name="패스 43" d="M295.964,39.636,293.778,32.9l-2.186,6.736H284.5l5.738,4.17-2.186,6.736,5.738-4.17,5.738,4.17-2.186-6.736,5.738-4.17Zm-.166,5.809-2.031-1.473-2.031,1.473.772-2.388-2.019-1.473h2.506l.772-2.388.772,2.388h2.507l-2.031,1.473Z" transform="translate(-248.853 -27.229)" fill="#fff"/>
      </g>
    </g>
    <path id="패스_63" data-name="패스 63" d="M-46.557-11.106A3.455,3.455,0,0,0-46.3-9.693,3.184,3.184,0,0,0-45.459-8.6q.594.5,1.1.9t.918.7a.815.815,0,0,1,.387.657,1.16,1.16,0,0,1-.243.729,1.184,1.184,0,0,1-.594.432.852.852,0,0,1-.81-.144q-.324-.234-.8-.6t-1-.819a7.479,7.479,0,0,1-.873-.81,1.475,1.475,0,0,1-.315-.558h-.018a1.633,1.633,0,0,1-.342.639,6.788,6.788,0,0,1-.9.855q-1.044.882-2.07,1.62a.828.828,0,0,1-.8.144,1.184,1.184,0,0,1-.6-.432,1.278,1.278,0,0,1-.243-.738.859.859,0,0,1,.4-.72q.594-.432,1.134-.855t1.134-.927a3.184,3.184,0,0,0,.837-1.089,3.455,3.455,0,0,0,.261-1.413v-1.512a.842.842,0,0,1,.351-.756,1.442,1.442,0,0,1,.819-.234,1.442,1.442,0,0,1,.819.234.842.842,0,0,1,.351.756Zm8.6.882a.71.71,0,0,1,.63.288,1.209,1.209,0,0,1,.2.7,1.252,1.252,0,0,1-.2.711.7.7,0,0,1-.63.3h-1.692v3.078A.823.823,0,0,1-40-4.41a1.411,1.411,0,0,1-.8.234,1.411,1.411,0,0,1-.8-.234.823.823,0,0,1-.351-.738v-7.974a.823.823,0,0,1,.351-.738,1.411,1.411,0,0,1,.8-.234,1.411,1.411,0,0,1,.8.234.823.823,0,0,1,.351.738v2.9ZM-50.211-.576A2.877,2.877,0,0,1-48.8-3.2a7.4,7.4,0,0,1,3.9-.873A7.4,7.4,0,0,1-41-3.2,2.877,2.877,0,0,1-39.591-.576,2.872,2.872,0,0,1-41,2.052a7.46,7.46,0,0,1-3.9.864,7.46,7.46,0,0,1-3.9-.864A2.872,2.872,0,0,1-50.211-.576Zm8.334,0a1.384,1.384,0,0,0-.693-1.2A4.4,4.4,0,0,0-44.9-2.232a7.181,7.181,0,0,0-1.4.117,2.978,2.978,0,0,0-.936.333,1.36,1.36,0,0,0-.522.522,1.439,1.439,0,0,0-.162.684,1.439,1.439,0,0,0,.162.684,1.36,1.36,0,0,0,.522.522A2.978,2.978,0,0,0-46.3.963a7.181,7.181,0,0,0,1.4.117A4.4,4.4,0,0,0-42.57.621,1.384,1.384,0,0,0-41.877-.576Zm8.892-10.692a.366.366,0,0,0-.414.414v2.916a.366.366,0,0,0,.414.414q1.53,0,2.925-.081t2.709-.261a.742.742,0,0,1,.657.189,1,1,0,0,1,.279.639,1.431,1.431,0,0,1-.108.729.642.642,0,0,1-.54.369q-.558.072-1.233.135t-1.539.117q-.864.054-1.935.081t-2.4.027a1.712,1.712,0,0,1-1.2-.324,1.613,1.613,0,0,1-.333-1.17v-4.644a1.613,1.613,0,0,1,.333-1.17,1.712,1.712,0,0,1,1.2-.324h5.616a.691.691,0,0,1,.612.288,1.177,1.177,0,0,1,.2.684,1.177,1.177,0,0,1-.2.684.691.691,0,0,1-.612.288Zm11.412.864a.71.71,0,0,1,.63.288,1.209,1.209,0,0,1,.2.7,1.252,1.252,0,0,1-.2.711.7.7,0,0,1-.63.3h-1.692V-5.58a.823.823,0,0,1-.351.738,1.411,1.411,0,0,1-.8.234,1.411,1.411,0,0,1-.8-.234.823.823,0,0,1-.351-.738v-7.542a.823.823,0,0,1,.351-.738,1.411,1.411,0,0,1,.8-.234,1.411,1.411,0,0,1,.8.234.823.823,0,0,1,.351.738V-10.4Zm-10.818,13a1.712,1.712,0,0,1-1.2-.324,1.613,1.613,0,0,1-.333-1.17V-2.448a1.613,1.613,0,0,1,.333-1.17,1.712,1.712,0,0,1,1.2-.324h7.6a1.712,1.712,0,0,1,1.2.324,1.613,1.613,0,0,1,.333,1.17V1.1a1.613,1.613,0,0,1-.333,1.17,1.712,1.712,0,0,1-1.2.324ZM-25.965.684A.366.366,0,0,0-25.551.27V-1.62a.366.366,0,0,0-.414-.414h-5.256a.366.366,0,0,0-.414.414V.27a.366.366,0,0,0,.414.414Zm10.206-13.41a.842.842,0,0,1,.351-.756,1.442,1.442,0,0,1,.819-.234,1.442,1.442,0,0,1,.819.234.842.842,0,0,1,.351.756v1.242a2.742,2.742,0,0,0,1.152,2.34q.576.414,1.071.756t.891.594a.807.807,0,0,1,.4.657,1.125,1.125,0,0,1-.216.729,1.1,1.1,0,0,1-.594.441.843.843,0,0,1-.774-.117q-.342-.216-.8-.531t-1.017-.711a6.15,6.15,0,0,1-.9-.774,1.521,1.521,0,0,1-.342-.558h-.018a1.655,1.655,0,0,1-.351.648,4.866,4.866,0,0,1-.945.81q-.558.4-1.053.738t-1.071.7a.771.771,0,0,1-.765.09,1.313,1.313,0,0,1-.6-.486,1.078,1.078,0,0,1-.153-.351,1.348,1.348,0,0,1-.036-.378.851.851,0,0,1,.1-.36.8.8,0,0,1,.288-.3q.612-.4,1.143-.756t1.107-.774a2.742,2.742,0,0,0,1.152-2.34ZM-6.111-6.48a.823.823,0,0,1-.351.738,1.411,1.411,0,0,1-.8.234,1.411,1.411,0,0,1-.8-.234.823.823,0,0,1-.351-.738v-6.642a.823.823,0,0,1,.351-.738,1.411,1.411,0,0,1,.8-.234,1.411,1.411,0,0,1,.8.234.823.823,0,0,1,.351.738ZM-8.775-1.944a.366.366,0,0,0,.414-.414V-2.61a.366.366,0,0,0-.414-.414h-7.416a.635.635,0,0,1-.576-.279,1.153,1.153,0,0,1-.18-.639,1.109,1.109,0,0,1,.18-.63.642.642,0,0,1,.576-.27h8.55a1.712,1.712,0,0,1,1.2.324,1.613,1.613,0,0,1,.333,1.17v1.656a1.613,1.613,0,0,1-.333,1.17,1.712,1.712,0,0,1-1.2.324h-6.606a.366.366,0,0,0-.414.414V.468a.366.366,0,0,0,.414.414h7.74a.635.635,0,0,1,.576.279,1.153,1.153,0,0,1,.18.639,1.109,1.109,0,0,1-.18.63.642.642,0,0,1-.576.27h-8.874a1.712,1.712,0,0,1-1.2-.324,1.613,1.613,0,0,1-.333-1.17V-.45a1.613,1.613,0,0,1,.333-1.17,1.712,1.712,0,0,1,1.2-.324ZM2.6-11.232v.45A3.367,3.367,0,0,0,2.853-9.4a3,3,0,0,0,.828,1.044q.594.486,1.107.873T5.7-6.8a.842.842,0,0,1,.4.657,1.115,1.115,0,0,1-.234.729,1.479,1.479,0,0,1-.252.261.924.924,0,0,1-.333.171.97.97,0,0,1-.4.027,1,1,0,0,1-.423-.171Q4.149-5.346,3.69-5.7t-1-.783A7.052,7.052,0,0,1,1.8-7.29a1.511,1.511,0,0,1-.315-.54H1.467a1.565,1.565,0,0,1-.342.63,6.87,6.87,0,0,1-.918.846q-1.044.828-2.088,1.566a.8.8,0,0,1-.792.135,1.234,1.234,0,0,1-.594-.441A1.229,1.229,0,0,1-3.5-5.832a.839.839,0,0,1,.414-.7q.612-.432,1.161-.846t1.143-.9A3,3,0,0,0,.045-9.324,3.367,3.367,0,0,0,.3-10.71v-.522H-2.385A.691.691,0,0,1-3-11.52a1.177,1.177,0,0,1-.2-.684,1.177,1.177,0,0,1,.2-.684.691.691,0,0,1,.612-.288H5.1a.691.691,0,0,1,.612.288,1.178,1.178,0,0,1,.2.684,1.177,1.177,0,0,1-.2.684.691.691,0,0,1-.612.288Zm8.586,1.008a.71.71,0,0,1,.63.288,1.209,1.209,0,0,1,.2.7,1.252,1.252,0,0,1-.2.711.7.7,0,0,1-.63.3H9.5v3.078a.823.823,0,0,1-.351.738,1.411,1.411,0,0,1-.8.234,1.411,1.411,0,0,1-.8-.234.823.823,0,0,1-.351-.738v-7.974a.823.823,0,0,1,.351-.738,1.411,1.411,0,0,1,.8-.234,1.411,1.411,0,0,1,.8.234.823.823,0,0,1,.351.738v2.9ZM-1.071-.576A2.877,2.877,0,0,1,.342-3.2a7.4,7.4,0,0,1,3.9-.873,7.4,7.4,0,0,1,3.9.873A2.877,2.877,0,0,1,9.549-.576,2.872,2.872,0,0,1,8.136,2.052a7.46,7.46,0,0,1-3.9.864,7.46,7.46,0,0,1-3.9-.864A2.872,2.872,0,0,1-1.071-.576Zm8.334,0a1.384,1.384,0,0,0-.693-1.2,4.4,4.4,0,0,0-2.331-.459,7.181,7.181,0,0,0-1.4.117,2.978,2.978,0,0,0-.936.333,1.36,1.36,0,0,0-.522.522,1.439,1.439,0,0,0-.162.684,1.439,1.439,0,0,0,.162.684A1.36,1.36,0,0,0,1.9.63a2.978,2.978,0,0,0,.936.333,7.181,7.181,0,0,0,1.4.117A4.4,4.4,0,0,0,6.57.621,1.384,1.384,0,0,0,7.263-.576Zm9.126-7.272a1.379,1.379,0,0,1,1.017.405,1.379,1.379,0,0,1,.405,1.017,1.379,1.379,0,0,1-.405,1.017,1.379,1.379,0,0,1-1.017.4,1.379,1.379,0,0,1-1.017-.4,1.379,1.379,0,0,1-.4-1.017,1.379,1.379,0,0,1,.4-1.017A1.379,1.379,0,0,1,16.389-7.848Zm7.38-3.168a.691.691,0,0,1-.612-.288,1.177,1.177,0,0,1-.2-.684,1.209,1.209,0,0,1,.2-.7.691.691,0,0,1,.612-.288h9.036a1.712,1.712,0,0,1,1.2.324,1.613,1.613,0,0,1,.333,1.17v1.656a29.732,29.732,0,0,1-.144,3.159,21.827,21.827,0,0,1-.4,2.439.889.889,0,0,1-.513.666,1.482,1.482,0,0,1-.891.09,1.218,1.218,0,0,1-.666-.369.824.824,0,0,1-.162-.747q.144-.63.234-1.206t.144-1.188l-8.478.18a.7.7,0,0,1-.648-.261,1.266,1.266,0,0,1-.216-.693,1.2,1.2,0,0,1,.18-.72.678.678,0,0,1,.612-.306l8.658-.09q.018-.234.018-.486V-10.6a.366.366,0,0,0-.414-.414Zm11.7,9.234a.691.691,0,0,1,.612.288,1.178,1.178,0,0,1,.2.684,1.178,1.178,0,0,1-.2.684.691.691,0,0,1-.612.288H21.861a.691.691,0,0,1-.612-.288,1.177,1.177,0,0,1-.2-.684,1.177,1.177,0,0,1,.2-.684.691.691,0,0,1,.612-.288h4.5V-4.5a.823.823,0,0,1,.351-.738,1.411,1.411,0,0,1,.8-.234,1.411,1.411,0,0,1,.8.234.823.823,0,0,1,.351.738v2.718Zm5.616-9.162a.366.366,0,0,0-.414.414v5.688a.366.366,0,0,0,.414.414q1.674,0,3.087-.081T46.9-4.77a.729.729,0,0,1,.657.2,1.037,1.037,0,0,1,.279.648,1.431,1.431,0,0,1-.108.729.642.642,0,0,1-.54.369q-.558.072-1.242.135t-1.557.117q-.873.054-1.98.081T39.9-2.466a1.712,1.712,0,0,1-1.2-.324,1.613,1.613,0,0,1-.333-1.17v-7.452a1.613,1.613,0,0,1,.333-1.17,1.712,1.712,0,0,1,1.2-.324h5.724a.691.691,0,0,1,.612.288,1.209,1.209,0,0,1,.2.7,1.177,1.177,0,0,1-.2.684.691.691,0,0,1-.612.288ZM51.219.666a.823.823,0,0,1-.351.738,1.442,1.442,0,0,1-.819.234,1.411,1.411,0,0,1-.8-.234A.823.823,0,0,1,48.9.666V-13.122a.823.823,0,0,1,.351-.738,1.411,1.411,0,0,1,.8-.234,1.442,1.442,0,0,1,.819.234.823.823,0,0,1,.351.738Z" transform="translate(619 380)" fill="#2bd6be"/>
  </g>
</svg>
