<svg xmlns="http://www.w3.org/2000/svg" xmlns:xlink="http://www.w3.org/1999/xlink" width="115" height="116" viewBox="0 0 115 116">
  <defs>
    <filter id="사각형_15" x="9" y="0" width="98" height="98" filterUnits="userSpaceOnUse">
      <feOffset dy="3" input="SourceAlpha"/>
      <feGaussianBlur stdDeviation="3" result="blur"/>
      <feFlood flood-opacity="0.161"/>
      <feComposite operator="in" in2="blur"/>
      <feComposite in="SourceGraphic"/>
    </filter>
  </defs>
  <g id="ic_etc" transform="translate(-563 -269)">
    <rect id="bg-layout" width="115" height="110" transform="translate(563 275)" fill="none"/>
    <g id="아이콘" transform="translate(-40 22)">
      <g transform="matrix(1, 0, 0, 1, 603, 247)" filter="url(#사각형_15)">
        <rect id="사각형_15-2" data-name="사각형 15" width="80" height="80" rx="20" transform="translate(18 6)" fill="#707070"/>
      </g>
      <g id="noun_apply_2714905" transform="translate(630.5 260)">
        <g id="그룹_11" data-name="그룹 11" transform="translate(2.5 7)">
          <g id="그룹_10" data-name="그룹 10">
            <path id="패스_24" data-name="패스 24" d="M45.226,53.3v1.969h-28.9V31.4a12.058,12.058,0,0,0,6.463-2.864H39.3a1.582,1.582,0,0,0,1.556-1.551A1.543,1.543,0,0,0,39.3,25.438H25.419a12.61,12.61,0,0,0,1.616-4.714H45.226V37.67l3.052-3.4V20.127a2.4,2.4,0,0,0-2.394-2.387H26.975A12.282,12.282,0,1,0,13.271,31.4V55.929a2.4,2.4,0,0,0,2.394,2.387h30.16a2.4,2.4,0,0,0,2.394-2.387V50.32l-1.975,2.148A1.992,1.992,0,0,1,45.226,53.3ZM5.552,19.292a9.275,9.275,0,1,1,9.275,9.249A9.27,9.27,0,0,1,5.552,19.292Z" transform="translate(-2.5 -7)" fill="#fff"/>
            <path id="패스_25" data-name="패스 25" d="M34.433,53.266h16.8a1.522,1.522,0,0,0,1.533-1.533A1.487,1.487,0,0,0,51.237,50.2h-16.8a1.533,1.533,0,1,0,0,3.066Z" transform="translate(-14.642 -24.403)" fill="#fff"/>
            <path id="패스_26" data-name="패스 26" d="M52.77,64.133A1.522,1.522,0,0,0,51.237,62.6h-16.8a1.533,1.533,0,1,0,0,3.066h16.8A1.6,1.6,0,0,0,52.77,64.133Z" transform="translate(-14.642 -29.398)" fill="#fff"/>
            <path id="패스_27" data-name="패스 27" d="M32.9,76.471A1.522,1.522,0,0,0,34.433,78h14.5L49.468,75H34.433A1.438,1.438,0,0,0,32.9,76.471Z" transform="translate(-14.67 -34.295)" fill="#fff"/>
            <rect id="사각형_16" data-name="사각형 16" width="13.443" height="5.719" transform="matrix(0.667, -0.745, 0.745, 0.667, 40.148, 37.347)" fill="#fff"/>
            <path id="패스_28" data-name="패스 28" d="M65.117,78.35l3.6-1a.95.95,0,0,0,.413-.236l1.061-1.179L65.943,72.1l-1.061,1.179a1.478,1.478,0,0,0-.236.413L64,77.406A.881.881,0,0,0,65.117,78.35Z" transform="translate(-27.246 -33.107)" fill="#fff"/>
            <path id="패스_29" data-name="패스 29" d="M92.855,49.2l-2.948-2.653a.912.912,0,0,0-1.238.059l-1.769,2,4.245,3.832,1.769-2A.855.855,0,0,0,92.855,49.2Z" transform="translate(-36.464 -22.826)" fill="#fff"/>
            <path id="패스_30" data-name="패스 30" d="M24.08,23.269a1.5,1.5,0,1,0-2.24-2l-3.656,4.186-1.769-1.769A1.5,1.5,0,0,0,14.292,25.8l2.889,2.889a1.421,1.421,0,0,0,1.061.413H18.3a1.261,1.261,0,0,0,1.061-.531Z" transform="translate(-7.158 -12.54)" fill="#fff"/>
          </g>
        </g>
      </g>
    </g>
    <path id="패스_65" data-name="패스 65" d="M-51.39-10.908A.691.691,0,0,1-52-11.2a1.177,1.177,0,0,1-.2-.684,1.209,1.209,0,0,1,.2-.7.691.691,0,0,1,.612-.288h5.418a1.712,1.712,0,0,1,1.2.324,1.613,1.613,0,0,1,.333,1.17v2a9.456,9.456,0,0,1-.09,1.368,4.456,4.456,0,0,1-.333,1.161,4.615,4.615,0,0,1-.675,1.071,8.334,8.334,0,0,1-1.134,1.1q-.7.576-1.7,1.242t-2.367,1.494a.847.847,0,0,1-.783.081,1.253,1.253,0,0,1-.621-.477,1.331,1.331,0,0,1-.216-.756.775.775,0,0,1,.4-.684q1.224-.738,2.1-1.3T-48.411-6.1a6.581,6.581,0,0,0,.918-.828,3,3,0,0,0,.5-.765,2.69,2.69,0,0,0,.216-.8,8.932,8.932,0,0,0,.045-.954v-1.044a.366.366,0,0,0-.414-.414ZM-39.276.666a.823.823,0,0,1-.351.738,1.442,1.442,0,0,1-.819.234,1.411,1.411,0,0,1-.8-.234A.823.823,0,0,1-41.6.666V-13.122a.823.823,0,0,1,.351-.738,1.411,1.411,0,0,1,.8-.234,1.442,1.442,0,0,1,.819.234.823.823,0,0,1,.351.738Zm10.368-13.644a.71.71,0,0,1,.63.288,1.177,1.177,0,0,1,.2.684,1.177,1.177,0,0,1-.2.684.71.71,0,0,1-.63.288h-4.5a.366.366,0,0,0-.414.414v1.962h4.77a.676.676,0,0,1,.6.279,1.175,1.175,0,0,1,.189.675,1.175,1.175,0,0,1-.189.675.676.676,0,0,1-.6.279h-4.77v2.016a.366.366,0,0,0,.414.414q1.548,0,2.943-.081t2.709-.261a.742.742,0,0,1,.657.189,1.019,1.019,0,0,1,.279.657,1.382,1.382,0,0,1-.108.711.642.642,0,0,1-.54.369q-.558.072-1.233.135t-1.539.117q-.864.054-1.935.081t-2.4.027a1.712,1.712,0,0,1-1.2-.324,1.613,1.613,0,0,1-.333-1.17v-7.614a1.613,1.613,0,0,1,.333-1.17,1.712,1.712,0,0,1,1.2-.324Zm6.93,4.194a.71.71,0,0,1,.63.288,1.209,1.209,0,0,1,.2.7,1.252,1.252,0,0,1-.2.711.7.7,0,0,1-.63.3H-23.67V.666a.823.823,0,0,1-.351.738,1.411,1.411,0,0,1-.8.234,1.411,1.411,0,0,1-.8-.234.823.823,0,0,1-.351-.738V-13.122a.823.823,0,0,1,.351-.738,1.411,1.411,0,0,1,.8-.234,1.411,1.411,0,0,1,.8.234.823.823,0,0,1,.351.738v4.338ZM-12.33-4.86a1.712,1.712,0,0,1-1.2-.324,1.613,1.613,0,0,1-.333-1.17v-5.238a1.613,1.613,0,0,1,.333-1.17,1.712,1.712,0,0,1,1.2-.324h8.28a1.712,1.712,0,0,1,1.2.324,1.613,1.613,0,0,1,.333,1.17v5.238a1.613,1.613,0,0,1-.333,1.17,1.712,1.712,0,0,1-1.2.324ZM-5.256-6.8a.366.366,0,0,0,.414-.414v-3.51a.366.366,0,0,0-.414-.414h-5.868a.366.366,0,0,0-.414.414v3.51a.366.366,0,0,0,.414.414ZM-14.994.162a.691.691,0,0,1-.612-.288,1.177,1.177,0,0,1-.2-.684,1.177,1.177,0,0,1,.2-.684.691.691,0,0,1,.612-.288h5.652v-3.96h2.3v3.96h5.652a.691.691,0,0,1,.612.288,1.178,1.178,0,0,1,.2.684,1.178,1.178,0,0,1-.2.684.691.691,0,0,1-.612.288ZM7.074-11.268v.4a3.006,3.006,0,0,0,.252,1.323,3.025,3.025,0,0,0,.864,1q.612.486,1.116.855t.882.639a.843.843,0,0,1,.387.657,1.085,1.085,0,0,1-.207.729,1.2,1.2,0,0,1-.6.441.858.858,0,0,1-.8-.153L8.2-5.94q-.495-.36-1-.738a6.405,6.405,0,0,1-.927-.81,1.511,1.511,0,0,1-.315-.54H5.94a1.661,1.661,0,0,1-.342.621,5.9,5.9,0,0,1-.954.855q-.5.378-1.044.774T2.574-5.04a.818.818,0,0,1-.8.135,1.236,1.236,0,0,1-.585-.441,1.229,1.229,0,0,1-.234-.738.839.839,0,0,1,.414-.7Q1.962-7.2,2.5-7.6t1.152-.882a3.025,3.025,0,0,0,.864-1A3.006,3.006,0,0,0,4.77-10.8v-.468H2.07a.691.691,0,0,1-.612-.288,1.177,1.177,0,0,1-.2-.684,1.177,1.177,0,0,1,.2-.684.691.691,0,0,1,.612-.288H9.594a.691.691,0,0,1,.612.288,1.178,1.178,0,0,1,.2.684,1.177,1.177,0,0,1-.2.684.691.691,0,0,1-.612.288Zm7.29,5.22a.823.823,0,0,1-.351.738,1.411,1.411,0,0,1-.8.234,1.411,1.411,0,0,1-.8-.234.823.823,0,0,1-.351-.738v-7.074a.823.823,0,0,1,.351-.738,1.411,1.411,0,0,1,.8-.234,1.411,1.411,0,0,1,.8.234.823.823,0,0,1,.351.738Zm0,7.146a1.613,1.613,0,0,1-.333,1.17,1.712,1.712,0,0,1-1.2.324H5.058a1.712,1.712,0,0,1-1.2-.324A1.613,1.613,0,0,1,3.528,1.1V-3.474a.787.787,0,0,1,.351-.7,1.351,1.351,0,0,1,.765-.234,1.381,1.381,0,0,1,.783.234.787.787,0,0,1,.351.7v1.188h6.336V-3.474a.787.787,0,0,1,.351-.7,1.351,1.351,0,0,1,.765-.234,1.381,1.381,0,0,1,.783.234.787.787,0,0,1,.351.7ZM11.7.738a.366.366,0,0,0,.414-.414V-.468H5.778V.324a.366.366,0,0,0,.414.414ZM24.03-11.448a.691.691,0,0,1-.612-.288,1.209,1.209,0,0,1-.2-.7,1.209,1.209,0,0,1,.2-.7.691.691,0,0,1,.612-.288h9.144a1.712,1.712,0,0,1,1.2.324,1.613,1.613,0,0,1,.333,1.17v1.314a10.709,10.709,0,0,1-.072,1.269,6.13,6.13,0,0,1-.216,1.071.954.954,0,0,1-.549.639,1.389,1.389,0,0,1-.873.063,1.139,1.139,0,0,1-.675-.387.878.878,0,0,1-.135-.783,8.538,8.538,0,0,0,.216-1.926v-.36a.366.366,0,0,0-.414-.414ZM22.266-4.77a.691.691,0,0,1-.612-.288,1.177,1.177,0,0,1-.2-.684,1.147,1.147,0,0,1,.2-.666.691.691,0,0,1,.612-.288h4.5V-8.712a.805.805,0,0,1,.351-.72,1.411,1.411,0,0,1,.8-.234,1.411,1.411,0,0,1,.8.234.805.805,0,0,1,.351.72V-6.7h6.8a.691.691,0,0,1,.612.288,1.147,1.147,0,0,1,.2.666,1.178,1.178,0,0,1-.2.684.691.691,0,0,1-.612.288ZM23.4-.324a2.717,2.717,0,0,1,.387-1.467,2.972,2.972,0,0,1,1.125-1.026,5.865,5.865,0,0,1,1.782-.594,14.973,14.973,0,0,1,4.743,0,5.869,5.869,0,0,1,1.791.594,2.972,2.972,0,0,1,1.125,1.026A2.717,2.717,0,0,1,34.74-.324a2.717,2.717,0,0,1-.387,1.467,2.972,2.972,0,0,1-1.125,1.026,5.869,5.869,0,0,1-1.791.594,13.468,13.468,0,0,1-2.367.189,13.43,13.43,0,0,1-2.376-.189,5.865,5.865,0,0,1-1.782-.594,2.972,2.972,0,0,1-1.125-1.026A2.717,2.717,0,0,1,23.4-.324Zm9.054,0a1.185,1.185,0,0,0-.783-1.071,6.314,6.314,0,0,0-2.6-.387,6.314,6.314,0,0,0-2.6.387,1.185,1.185,0,0,0-.783,1.071A1.185,1.185,0,0,0,26.469.747a6.314,6.314,0,0,0,2.6.387,6.314,6.314,0,0,0,2.6-.387A1.185,1.185,0,0,0,32.454-.324Zm7.92-10.638a.691.691,0,0,1-.612-.288,1.209,1.209,0,0,1-.2-.7,1.209,1.209,0,0,1,.2-.7.691.691,0,0,1,.612-.288H49.59a1.712,1.712,0,0,1,1.2.324,1.613,1.613,0,0,1,.333,1.17v1.62q0,1.656-.117,2.934a19.186,19.186,0,0,1-.369,2.412.889.889,0,0,1-.513.666,1.531,1.531,0,0,1-.909.09,1.3,1.3,0,0,1-.675-.36.814.814,0,0,1-.171-.756A20.64,20.64,0,0,0,48.708-7.2q.108-1.224.108-2.682v-.666a.366.366,0,0,0-.414-.414Zm11.88,9.18a.691.691,0,0,1,.612.288,1.178,1.178,0,0,1,.2.684,1.178,1.178,0,0,1-.2.684.691.691,0,0,1-.612.288H38.646a.691.691,0,0,1-.612-.288,1.177,1.177,0,0,1-.2-.684,1.177,1.177,0,0,1,.2-.684.691.691,0,0,1,.612-.288h4.5V-6.624a.823.823,0,0,1,.351-.738,1.411,1.411,0,0,1,.8-.234,1.411,1.411,0,0,1,.8.234.823.823,0,0,1,.351.738v4.842Z" transform="translate(621 380)" fill="#707070"/>
  </g>
</svg>
