<svg xmlns="http://www.w3.org/2000/svg" xmlns:xlink="http://www.w3.org/1999/xlink" width="120.312" height="116" viewBox="0 0 120.312 116">
  <defs>
    <filter id="bg-icon" x="11.849" y="0" width="98" height="98" filterUnits="userSpaceOnUse">
      <feOffset dy="3" input="SourceAlpha"/>
      <feGaussianBlur stdDeviation="3" result="blur"/>
      <feFlood flood-opacity="0.161"/>
      <feComposite operator="in" in2="blur"/>
      <feComposite in="SourceGraphic"/>
    </filter>
  </defs>
  <g id="ic_maketer" transform="translate(-561.151 -269)">
    <rect id="bg-layout" width="115" height="110" transform="translate(564 275)" fill="none"/>
    <g id="아이콘" transform="translate(-39 22)">
      <g transform="matrix(1, 0, 0, 1, 600.15, 247)" filter="url(#bg-icon)">
        <rect id="bg-icon-2" data-name="bg-icon" width="80" height="80" rx="20" transform="translate(20.85 6)" fill="#19c1ff"/>
      </g>
      <g id="noun_marketing_3049484" transform="translate(630 262)">
        <path id="패스_13" data-name="패스 13" d="M61,15.516a6.779,6.779,0,0,0-5.806-6.7V4.871a3.869,3.869,0,0,0-7.666-.742L28.922,9.71H26.161a5.809,5.809,0,0,0-5.689,6.97,22.247,22.247,0,1,0,20.155,8.155l6.9,2.07a3.87,3.87,0,0,0,7.667-.743V22.213A6.779,6.779,0,0,0,61,15.516ZM43.555,37.774H33.873c-.032-1.57-.127-3.124-.309-4.632l1.359-4.078h6.2A20.325,20.325,0,0,1,43.555,37.774Zm-20.3,21.29c-2.887,0-5.494-3.489-7.089-8.71H30.346C28.752,55.576,26.145,59.065,23.258,59.065ZM15.639,48.419a41.7,41.7,0,0,1-1.069-8.71H31.945a41.7,41.7,0,0,1-1.069,8.71ZM2.985,39.71h9.64a43.737,43.737,0,0,0,1.011,8.71H5.392A20.184,20.184,0,0,1,2.985,39.71ZM21.448,18.9a5.8,5.8,0,0,0,4.713,2.427H28.1v1.533a4.865,4.865,0,0,1-.511,2.163l-1.055,2.111H16.173C17.419,23.053,19.285,20.018,21.448,18.9Zm4.115,10.169-.987,1.974a3.316,3.316,0,0,0,2.966,4.8h2.732a3.3,3.3,0,0,0,1.563-.4c.056.77.084,1.547.1,2.331H14.569a41.593,41.593,0,0,1,1.081-8.71Zm-12.93,8.71H2.983a20.2,20.2,0,0,1,2.42-8.71h8.235A43.906,43.906,0,0,0,12.633,37.774ZM33.892,39.71h9.64a20.184,20.184,0,0,1-2.407,8.71H32.88A43.666,43.666,0,0,0,33.892,39.71Zm-2.307-6.751a1.379,1.379,0,0,1-1.31.945H27.542a1.381,1.381,0,0,1-1.235-2l3.01-6.02a6.793,6.793,0,0,0,.715-3.028v-1.2l4.837,1.451ZM30.032,19.635V11.357L47.452,6.169V24.861Zm-3.871-7.99H28.1v7.767l-1.935-.025a3.871,3.871,0,0,1,0-7.742Zm-7.95,7.406a20.439,20.439,0,0,0-4.086,8.078H6.607A20.308,20.308,0,0,1,18.211,19.051ZM6.6,50.355h7.525A20.588,20.588,0,0,0,18.188,58.4,20.366,20.366,0,0,1,6.6,50.355ZM28.328,58.4a20.581,20.581,0,0,0,4.059-8.044h7.525A20.366,20.366,0,0,1,28.328,58.4Zm11.6-31.27H35.569l1.155-3.465.223.067A20.352,20.352,0,0,1,39.925,27.129Zm13.333-.968a1.935,1.935,0,1,1-3.871,0V4.871a1.935,1.935,0,0,1,3.871,0Zm1.935-5.9V10.775a4.839,4.839,0,0,1,0,9.482Z" fill="#fff"/>
        <path id="패스_14" data-name="패스 14" d="M7.932,34.433a17.233,17.233,0,0,1,.717-1.747l-1.806-.859a19.145,19.145,0,0,0-.8,1.952Z" transform="translate(0 -1.038)" fill="#fff"/>
        <path id="패스_15" data-name="패스 15" d="M5.116,37.891,7.1,38.11a16.7,16.7,0,0,1,.311-1.86l-1.951-.44A18.624,18.624,0,0,0,5.116,37.891Z" transform="translate(0 -1.166)" fill="#fff"/>
        <path id="패스_16" data-name="패스 16" d="M40.068,45.567a17.233,17.233,0,0,1-.717,1.747l1.806.859a19.145,19.145,0,0,0,.8-1.952Z" transform="translate(-1.291 -1.501)" fill="#fff"/>
        <path id="패스_17" data-name="패스 17" d="M42.884,42.109,40.9,41.89a16.7,16.7,0,0,1-.311,1.86l1.951.44A18.624,18.624,0,0,0,42.884,42.109Z" transform="translate(-1.326 -1.37)" fill="#fff"/>
      </g>
    </g>
    <path id="패스_66" data-name="패스 66" d="M-58.239-11.448a.691.691,0,0,1-.612-.288,1.209,1.209,0,0,1-.2-.7,1.209,1.209,0,0,1,.2-.7.691.691,0,0,1,.612-.288h8.964a1.712,1.712,0,0,1,1.2.324,1.613,1.613,0,0,1,.333,1.17v1.224a11.17,11.17,0,0,1-.072,1.251q-.072.639-.18,1.224a11.072,11.072,0,0,1-.252,1.08q-.144.5-.27.819l-2.034-.432a14.475,14.475,0,0,0,.522-3.8v-.468a.366.366,0,0,0-.414-.414Zm3.87,9.306V-5.6h-5.67a.691.691,0,0,1-.612-.288,1.147,1.147,0,0,1-.2-.666,1.177,1.177,0,0,1,.2-.684.691.691,0,0,1,.612-.288h13.608a.691.691,0,0,1,.612.288,1.178,1.178,0,0,1,.2.684,1.147,1.147,0,0,1-.2.666.691.691,0,0,1-.612.288H-52.1v3.456Zm-3.942.882a.691.691,0,0,1-.612-.288,1.177,1.177,0,0,1-.2-.684,1.147,1.147,0,0,1,.2-.666.691.691,0,0,1,.612-.288h9.216a1.712,1.712,0,0,1,1.2.324,1.613,1.613,0,0,1,.333,1.17V1.89a.823.823,0,0,1-.351.738,1.411,1.411,0,0,1-.8.234,1.411,1.411,0,0,1-.8-.234.823.823,0,0,1-.351-.738V-.846a.366.366,0,0,0-.414-.414Zm15.8-1.4a1.712,1.712,0,0,1-1.2-.324,1.613,1.613,0,0,1-.333-1.17v-7.794a.823.823,0,0,1,.351-.738,1.411,1.411,0,0,1,.8-.234,1.442,1.442,0,0,1,.819.234.823.823,0,0,1,.351.738V-5.04a.366.366,0,0,0,.414.414q.378,0,.846-.018t.954-.045q.486-.027.972-.072t.918-.1a.718.718,0,0,1,.648.189,1.044,1.044,0,0,1,.27.657,1.386,1.386,0,0,1-.108.72.686.686,0,0,1-.54.378q-.576.09-1.872.171T-42.507-2.664Zm8.676-6.012h1.548v-4.518a.763.763,0,0,1,.324-.684,1.3,1.3,0,0,1,.738-.216,1.3,1.3,0,0,1,.738.216.763.763,0,0,1,.324.684V.738a.763.763,0,0,1-.324.684,1.3,1.3,0,0,1-.738.216,1.3,1.3,0,0,1-.738-.216.763.763,0,0,1-.324-.684v-7.47h-1.548V-.018a.763.763,0,0,1-.324.684,1.3,1.3,0,0,1-.738.216,1.27,1.27,0,0,1-.72-.216.763.763,0,0,1-.324-.684v-13a.763.763,0,0,1,.324-.684,1.27,1.27,0,0,1,.72-.216,1.3,1.3,0,0,1,.738.216.763.763,0,0,1,.324.684Zm9.27.828a1.379,1.379,0,0,1,1.017.405,1.379,1.379,0,0,1,.405,1.017,1.379,1.379,0,0,1-.405,1.017,1.379,1.379,0,0,1-1.017.4,1.379,1.379,0,0,1-1.017-.4,1.379,1.379,0,0,1-.405-1.017,1.379,1.379,0,0,1,.405-1.017A1.379,1.379,0,0,1-24.561-7.848Zm8.8-1.188a3.364,3.364,0,0,1,2.583.972,3.616,3.616,0,0,1,.909,2.574,3.616,3.616,0,0,1-.909,2.574,3.364,3.364,0,0,1-2.583.972,3.364,3.364,0,0,1-2.583-.972,3.616,3.616,0,0,1-.909-2.574,3.616,3.616,0,0,1,.909-2.574A3.364,3.364,0,0,1-15.759-9.036Zm-1.134-2.754v-1.242a.805.805,0,0,1,.351-.72,1.381,1.381,0,0,1,.783-.234,1.381,1.381,0,0,1,.783.234.805.805,0,0,1,.351.72v1.242H-12.5a.691.691,0,0,1,.612.288,1.147,1.147,0,0,1,.2.666,1.178,1.178,0,0,1-.2.684.691.691,0,0,1-.612.288h-6.786a.691.691,0,0,1-.612-.288,1.177,1.177,0,0,1-.2-.684,1.147,1.147,0,0,1,.2-.666.691.691,0,0,1,.612-.288Zm1.134,8.01a1.48,1.48,0,0,0,1.107-.432,1.756,1.756,0,0,0,.423-1.278,1.756,1.756,0,0,0-.423-1.278A1.48,1.48,0,0,0-15.759-7.2a1.48,1.48,0,0,0-1.107.432,1.756,1.756,0,0,0-.423,1.278,1.756,1.756,0,0,0,.423,1.278A1.48,1.48,0,0,0-15.759-3.78ZM-9.135-8.5h1.44v-4.7a.763.763,0,0,1,.324-.684,1.27,1.27,0,0,1,.72-.216,1.3,1.3,0,0,1,.738.216.763.763,0,0,1,.324.684V.738a.763.763,0,0,1-.324.684,1.3,1.3,0,0,1-.738.216,1.27,1.27,0,0,1-.72-.216A.763.763,0,0,1-7.695.738v-7.29h-1.44V0a.745.745,0,0,1-.324.666,1.27,1.27,0,0,1-.72.216A1.27,1.27,0,0,1-10.9.666.745.745,0,0,1-11.223,0V-13.032A.745.745,0,0,1-10.9-13.7a1.27,1.27,0,0,1,.72-.216,1.27,1.27,0,0,1,.72.216.745.745,0,0,1,.324.666ZM2.061-5.31a5.837,5.837,0,0,1-1.953-.3,3.938,3.938,0,0,1-1.395-.819,3.4,3.4,0,0,1-.846-1.251A4.3,4.3,0,0,1-2.421-9.27a4.3,4.3,0,0,1,.288-1.593,3.4,3.4,0,0,1,.846-1.251,3.938,3.938,0,0,1,1.395-.819,5.837,5.837,0,0,1,1.953-.3,5.856,5.856,0,0,1,1.944.3,3.927,3.927,0,0,1,1.4.819,3.4,3.4,0,0,1,.846,1.251A4.3,4.3,0,0,1,6.543-9.27a4.3,4.3,0,0,1-.288,1.593,3.4,3.4,0,0,1-.846,1.251,3.927,3.927,0,0,1-1.4.819A5.856,5.856,0,0,1,2.061-5.31Zm0-6.012a2.36,2.36,0,0,0-1.746.567A2.026,2.026,0,0,0-.243-9.27,2.026,2.026,0,0,0,.315-7.785a2.36,2.36,0,0,0,1.746.567,2.36,2.36,0,0,0,1.746-.567A2.026,2.026,0,0,0,4.365-9.27a2.026,2.026,0,0,0-.558-1.485A2.36,2.36,0,0,0,2.061-11.322Zm6.246-1.8a.823.823,0,0,1,.351-.738,1.411,1.411,0,0,1,.8-.234,1.381,1.381,0,0,1,.783.234.823.823,0,0,1,.351.738V.666a.823.823,0,0,1-.351.738,1.381,1.381,0,0,1-.783.234,1.411,1.411,0,0,1-.8-.234A.823.823,0,0,1,8.307.666ZM6.9-1.4q-.9.09-2,.153t-2.313.1q-1.215.036-2.511.063t-2.592.027a.691.691,0,0,1-.612-.288,1.177,1.177,0,0,1-.2-.684,1.177,1.177,0,0,1,.2-.684.691.691,0,0,1,.612-.288H-.792q.855,0,1.737-.018V-6.66H3.213V-3.1q1.764-.054,3.528-.216a.675.675,0,0,1,.621.216,1.16,1.16,0,0,1,.243.648,1.229,1.229,0,0,1-.126.693A.661.661,0,0,1,6.9-1.4ZM19.845-12.888a1.712,1.712,0,0,1,1.2.324,1.613,1.613,0,0,1,.333,1.17v7.38a1.613,1.613,0,0,1-.333,1.17,1.712,1.712,0,0,1-1.2.324H14.9a1.712,1.712,0,0,1-1.2-.324,1.613,1.613,0,0,1-.333-1.17v-7.38a1.613,1.613,0,0,1,.333-1.17,1.712,1.712,0,0,1,1.2-.324Zm-.756,2.358a.366.366,0,0,0-.414-.414h-2.61a.366.366,0,0,0-.414.414v5.652a.366.366,0,0,0,.414.414h2.61a.366.366,0,0,0,.414-.414Zm8.478,1.746a.71.71,0,0,1,.63.288,1.209,1.209,0,0,1,.2.7,1.252,1.252,0,0,1-.2.711.7.7,0,0,1-.63.3H25.875V.666a.823.823,0,0,1-.351.738,1.488,1.488,0,0,1-1.6,0,.823.823,0,0,1-.351-.738V-13.122a.823.823,0,0,1,.351-.738,1.411,1.411,0,0,1,.8-.234,1.411,1.411,0,0,1,.8.234.823.823,0,0,1,.351.738v4.338Zm7.218-4a1.712,1.712,0,0,1,1.2.324,1.613,1.613,0,0,1,.333,1.17v2.16q0,.846-.045,1.476a4.634,4.634,0,0,1-.225,1.161,4.171,4.171,0,0,1-.5,1.008,5.99,5.99,0,0,1-.9,1.008,17.385,17.385,0,0,1-1.413,1.152Q32.391-2.7,31.2-1.89a.859.859,0,0,1-.765.135A1.16,1.16,0,0,1,29.8-2.2a1.357,1.357,0,0,1-.252-.756.775.775,0,0,1,.378-.7q1.044-.72,1.773-1.233t1.2-.909a5.053,5.053,0,0,0,.72-.72,2.488,2.488,0,0,0,.378-.666l-3.816.27a.647.647,0,0,1-.621-.243,1.332,1.332,0,0,1-.243-.693,1.107,1.107,0,0,1,.144-.675.666.666,0,0,1,.594-.333L34.155-9v-1.422a.366.366,0,0,0-.414-.414H30.555a.691.691,0,0,1-.612-.288,1.177,1.177,0,0,1-.2-.684,1.177,1.177,0,0,1,.2-.684.691.691,0,0,1,.612-.288Zm.4,4.1h2.862v-4.338a.763.763,0,0,1,.324-.684,1.3,1.3,0,0,1,.738-.216,1.27,1.27,0,0,1,.72.216.763.763,0,0,1,.324.684v13a.763.763,0,0,1-.324.684,1.27,1.27,0,0,1-.72.216,1.3,1.3,0,0,1-.738-.216.763.763,0,0,1-.324-.684V-6.732H35.181Zm6.246-4.518a.763.763,0,0,1,.324-.684,1.3,1.3,0,0,1,.738-.216,1.3,1.3,0,0,1,.738.216.763.763,0,0,1,.324.684V.738a.763.763,0,0,1-.324.684,1.369,1.369,0,0,1-1.476,0,.763.763,0,0,1-.324-.684Zm7.812,1.818a.366.366,0,0,0-.414.414v1.044h4.752a.676.676,0,0,1,.6.279,1.143,1.143,0,0,1,.189.657,1.143,1.143,0,0,1-.189.657.676.676,0,0,1-.6.279H48.825v1.062a.366.366,0,0,0,.414.414q1.692,0,3.114-.081t2.736-.261a.742.742,0,0,1,.657.189.979.979,0,0,1,.279.621,1.382,1.382,0,0,1-.108.711.642.642,0,0,1-.54.369q-.558.072-1.242.135t-1.557.117q-.873.054-1.98.081t-2.511.027a1.712,1.712,0,0,1-1.2-.324,1.613,1.613,0,0,1-.333-1.17V-11.79a1.613,1.613,0,0,1,.333-1.17,1.712,1.712,0,0,1,1.2-.324h5.652a.691.691,0,0,1,.612.288,1.147,1.147,0,0,1,.2.666,1.147,1.147,0,0,1-.2.666.691.691,0,0,1-.612.288Zm10.17,6.588a.823.823,0,0,1-.351.738,1.411,1.411,0,0,1-.8.234,1.411,1.411,0,0,1-.8-.234.823.823,0,0,1-.351-.738v-8.334a.823.823,0,0,1,.351-.738,1.411,1.411,0,0,1,.8-.234,1.411,1.411,0,0,1,.8.234.823.823,0,0,1,.351.738ZM48.663-.4A2.684,2.684,0,0,1,50.1-2.889a8.043,8.043,0,0,1,3.96-.819,7.97,7.97,0,0,1,3.96.828A2.689,2.689,0,0,1,59.463-.4,2.684,2.684,0,0,1,58.023,2.1a8.043,8.043,0,0,1-3.96.819A8.043,8.043,0,0,1,50.1,2.1,2.684,2.684,0,0,1,48.663-.4Zm8.514,0a1.2,1.2,0,0,0-.711-1.08,5.278,5.278,0,0,0-2.4-.4,5.278,5.278,0,0,0-2.4.4A1.2,1.2,0,0,0,50.949-.4,1.2,1.2,0,0,0,51.66.684a5.278,5.278,0,0,0,2.4.4,5.278,5.278,0,0,0,2.4-.4A1.2,1.2,0,0,0,57.177-.4Z" transform="translate(622 380)" fill="#19c1ff"/>
  </g>
</svg>
