<svg xmlns="http://www.w3.org/2000/svg" xmlns:xlink="http://www.w3.org/1999/xlink" width="115" height="116" viewBox="0 0 115 116">
  <defs>
    <filter id="bg-icon" x="9" y="0" width="98" height="98" filterUnits="userSpaceOnUse">
      <feOffset dy="3" input="SourceAlpha"/>
      <feGaussianBlur stdDeviation="3" result="blur"/>
      <feFlood flood-opacity="0.161"/>
      <feComposite operator="in" in2="blur"/>
      <feComposite in="SourceGraphic"/>
    </filter>
  </defs>
  <g id="ic_nurse" transform="translate(-380 -269)">
    <rect id="bg-layout" width="115" height="110" transform="translate(380 275)" fill="none"/>
    <g id="아이콘" transform="translate(-223 22)">
      <g transform="matrix(1, 0, 0, 1, 603, 247)" filter="url(#bg-icon)">
        <rect id="bg-icon-2" data-name="bg-icon" width="80" height="80" rx="20" transform="translate(18 6)" fill="#fe6b6b"/>
      </g>
      <g id="Outline_ComPath" data-name="Outline ComPath" transform="translate(626 259.222)">
        <path id="패스_11" data-name="패스 11" d="M59.424,32.793a54.069,54.069,0,0,0-7.382-3.462v-6.65A5.688,5.688,0,0,0,46.36,17H23.635a5.688,5.688,0,0,0-5.681,5.681v6.651a54.057,54.057,0,0,0-7.378,3.461,1.136,1.136,0,0,0-.509,1.374l5.821,16.167a1.141,1.141,0,0,0,1.355.715,71.856,71.856,0,0,1,35.514,0,1.154,1.154,0,0,0,.286.037,1.136,1.136,0,0,0,1.069-.751l5.821-16.167A1.136,1.136,0,0,0,59.424,32.793Zm-39.2-10.112a3.413,3.413,0,0,1,3.409-3.409H46.36a3.413,3.413,0,0,1,3.409,3.409v5.834a46.686,46.686,0,0,0-29.543,0ZM52.322,48.6a74.269,74.269,0,0,0-34.645,0l-5.145-14.29a45.573,45.573,0,0,1,44.934,0ZM35,32.908a1.136,1.136,0,0,1,1.136,1.136v2.273h2.273a1.136,1.136,0,1,1,0,2.273H36.134v2.273a1.136,1.136,0,0,1-2.273,0V38.589H31.589a1.136,1.136,0,0,1,0-2.273h2.273V34.044A1.136,1.136,0,0,1,35,32.908ZM45.471,22.654A48.179,48.179,0,0,1,35,23.813a48.18,48.18,0,0,1-10.473-1.159,1.136,1.136,0,1,1,.493-2.218,45.681,45.681,0,0,0,19.96,0,1.136,1.136,0,1,1,.493,2.218Z" transform="translate(0)" fill="#fff"/>
      </g>
    </g>
    <path id="패스_61" data-name="패스 61" d="M-40.428-9.63q.846.45,1.629.828t1.521.72a.7.7,0,0,1,.423.594,1.383,1.383,0,0,1-.117.756,1.083,1.083,0,0,1-.549.522.86.86,0,0,1-.747-.018q-.9-.414-1.692-.8t-1.548-.8a5.33,5.33,0,0,1-1.233-.846,1.571,1.571,0,0,1-.441-.684H-43.2a1.675,1.675,0,0,1-.459.738,5.33,5.33,0,0,1-1.233.846q-.756.414-1.548.8t-1.692.8a.82.82,0,0,1-.738.009,1.224,1.224,0,0,1-.558-.531,1.335,1.335,0,0,1-.126-.783.73.73,0,0,1,.432-.6q.738-.342,1.521-.72t1.629-.828a2.632,2.632,0,0,0,1.6-2.376v-.684a.842.842,0,0,1,.351-.756,1.442,1.442,0,0,1,.819-.234,1.442,1.442,0,0,1,.819.234.842.842,0,0,1,.351.756v.684A2.632,2.632,0,0,0-40.428-9.63ZM-50-2.772a.691.691,0,0,1-.612-.288,1.177,1.177,0,0,1-.2-.684,1.177,1.177,0,0,1,.2-.684A.691.691,0,0,1-50-4.716H-36.4a.691.691,0,0,1,.612.288,1.178,1.178,0,0,1,.2.684,1.178,1.178,0,0,1-.2.684.691.691,0,0,1-.612.288h-5.652v4.7a.823.823,0,0,1-.351.738,1.411,1.411,0,0,1-.8.234,1.411,1.411,0,0,1-.8-.234.823.823,0,0,1-.351-.738v-4.7Zm24.354-9.864a1.416,1.416,0,0,0,.36.99,3.77,3.77,0,0,0,1.332.792q.828.342,1.521.6t1.431.513a.756.756,0,0,1,.486.513,1.088,1.088,0,0,1-.036.729.97.97,0,0,1-.495.567,1.041,1.041,0,0,1-.819.009q-.54-.2-1.188-.432t-1.368-.522q-.648-.252-1.089-.468a5.426,5.426,0,0,1-.711-.4,1.915,1.915,0,0,1-.4-.36.841.841,0,0,1-.171-.333h-.018a1.119,1.119,0,0,1-.189.378,1.775,1.775,0,0,1-.4.369,5.426,5.426,0,0,1-.711.4q-.441.216-1.089.468-.72.288-1.368.522t-1.188.432a.991.991,0,0,1-.81-.018,1.089,1.089,0,0,1-.5-.576,1.137,1.137,0,0,1-.036-.747.759.759,0,0,1,.486-.531q.738-.252,1.431-.513t1.521-.6a3.77,3.77,0,0,0,1.332-.792,1.416,1.416,0,0,0,.36-.99v-.414a.842.842,0,0,1,.351-.756,1.442,1.442,0,0,1,.819-.234,1.442,1.442,0,0,1,.819.234.842.842,0,0,1,.351.756Zm-.036,7.326v2.124h-2.268V-5.31H-33.66a.665.665,0,0,1-.585-.27,1.133,1.133,0,0,1-.189-.666,1.1,1.1,0,0,1,.189-.648.665.665,0,0,1,.585-.27h13.68a.665.665,0,0,1,.585.27,1.1,1.1,0,0,1,.189.648,1.133,1.133,0,0,1-.189.666.665.665,0,0,1-.585.27ZM-22.7-4.158a1.712,1.712,0,0,1,1.2.324,1.613,1.613,0,0,1,.333,1.17V-1.35A1.613,1.613,0,0,1-21.5-.18a1.712,1.712,0,0,1-1.2.324h-7.308a.239.239,0,0,0-.27.27V.738a.239.239,0,0,0,.27.27h8.46a.623.623,0,0,1,.558.27,1.078,1.078,0,0,1,.18.612,1.067,1.067,0,0,1-.18.621.631.631,0,0,1-.558.261h-9.432a1.712,1.712,0,0,1-1.2-.324,1.613,1.613,0,0,1-.333-1.17V-.054a1.613,1.613,0,0,1,.333-1.17,1.712,1.712,0,0,1,1.2-.324h7.308a.239.239,0,0,0,.27-.27v-.306a.239.239,0,0,0-.27-.27h-8.136a.631.631,0,0,1-.558-.261,1.067,1.067,0,0,1-.18-.621,1.078,1.078,0,0,1,.18-.612.623.623,0,0,1,.558-.27Zm8.784-8.568a.842.842,0,0,1,.351-.756,1.442,1.442,0,0,1,.819-.234,1.442,1.442,0,0,1,.819.234.842.842,0,0,1,.351.756v1.242a2.742,2.742,0,0,0,1.152,2.34q.576.414,1.071.756t.891.594a.807.807,0,0,1,.4.657,1.125,1.125,0,0,1-.216.729,1.1,1.1,0,0,1-.594.441.843.843,0,0,1-.774-.117q-.342-.216-.8-.531t-1.017-.711a6.15,6.15,0,0,1-.9-.774,1.521,1.521,0,0,1-.342-.558h-.018a1.655,1.655,0,0,1-.351.648,4.866,4.866,0,0,1-.945.81q-.558.4-1.053.738t-1.071.7a.771.771,0,0,1-.765.09,1.313,1.313,0,0,1-.6-.486,1.078,1.078,0,0,1-.153-.351,1.348,1.348,0,0,1-.036-.378.851.851,0,0,1,.1-.36.8.8,0,0,1,.288-.3q.612-.4,1.143-.756t1.107-.774a2.742,2.742,0,0,0,1.152-2.34ZM-4.266-6.48a.823.823,0,0,1-.351.738,1.411,1.411,0,0,1-.8.234,1.411,1.411,0,0,1-.8-.234A.823.823,0,0,1-6.57-6.48v-6.642a.823.823,0,0,1,.351-.738,1.411,1.411,0,0,1,.8-.234,1.411,1.411,0,0,1,.8.234.823.823,0,0,1,.351.738ZM-6.93-1.944a.366.366,0,0,0,.414-.414V-2.61a.366.366,0,0,0-.414-.414h-7.416a.635.635,0,0,1-.576-.279,1.153,1.153,0,0,1-.18-.639,1.109,1.109,0,0,1,.18-.63.642.642,0,0,1,.576-.27H-5.8a1.712,1.712,0,0,1,1.2.324,1.613,1.613,0,0,1,.333,1.17v1.656A1.613,1.613,0,0,1-4.6-.522,1.712,1.712,0,0,1-5.8-.2H-12.4a.366.366,0,0,0-.414.414V.468A.366.366,0,0,0-12.4.882h7.74a.635.635,0,0,1,.576.279,1.153,1.153,0,0,1,.18.639,1.109,1.109,0,0,1-.18.63.642.642,0,0,1-.576.27h-8.874a1.712,1.712,0,0,1-1.2-.324,1.613,1.613,0,0,1-.333-1.17V-.45a1.613,1.613,0,0,1,.333-1.17,1.712,1.712,0,0,1,1.2-.324ZM4.14-11.07a.691.691,0,0,1-.612-.288,1.177,1.177,0,0,1-.2-.684,1.209,1.209,0,0,1,.2-.7.691.691,0,0,1,.612-.288H9.522a1.712,1.712,0,0,1,1.2.324,1.613,1.613,0,0,1,.333,1.17v1.494A5.357,5.357,0,0,1,10.827-8.4a3.275,3.275,0,0,1-.909,1.341A10.644,10.644,0,0,1,7.983-5.679q-1.251.729-3.3,1.755a.856.856,0,0,1-.423.1,1.121,1.121,0,0,1-.4-.09,1.166,1.166,0,0,1-.342-.225.9.9,0,0,1-.225-.324,1.443,1.443,0,0,1-.126-.756.759.759,0,0,1,.486-.63q1.8-.882,2.826-1.458A9.4,9.4,0,0,0,8.01-8.325a1.982,1.982,0,0,0,.63-.846,3.19,3.19,0,0,0,.126-.945v-.54a.366.366,0,0,0-.414-.414ZM17.532-9.594a.71.71,0,0,1,.63.288,1.209,1.209,0,0,1,.2.7,1.252,1.252,0,0,1-.2.711.7.7,0,0,1-.63.3H15.84V-2.79a.823.823,0,0,1-.351.738,1.411,1.411,0,0,1-.8.234,1.411,1.411,0,0,1-.8-.234.823.823,0,0,1-.351-.738V-13.122a.823.823,0,0,1,.351-.738,1.411,1.411,0,0,1,.8-.234,1.411,1.411,0,0,1,.8.234.823.823,0,0,1,.351.738v3.528ZM6.714,2.466a1.712,1.712,0,0,1-1.2-.324A1.613,1.613,0,0,1,5.184.972v-3.4a.823.823,0,0,1,.351-.738A1.442,1.442,0,0,1,6.354-3.4a1.411,1.411,0,0,1,.8.234.823.823,0,0,1,.351.738V.09A.366.366,0,0,0,7.92.5h7.506a.691.691,0,0,1,.612.288,1.209,1.209,0,0,1,.2.7,1.177,1.177,0,0,1-.2.684.691.691,0,0,1-.612.288Zm15.048-8.91a2.532,2.532,0,0,1,1.35-2.331,7.408,7.408,0,0,1,3.708-.783,10.215,10.215,0,0,1,2.106.2,5.28,5.28,0,0,1,1.593.585,2.8,2.8,0,0,1,1.008.972,2.59,2.59,0,0,1,.351,1.359,2.59,2.59,0,0,1-.351,1.359,2.8,2.8,0,0,1-1.008.972,5.28,5.28,0,0,1-1.593.585,10.215,10.215,0,0,1-2.106.2,7.408,7.408,0,0,1-3.708-.783A2.532,2.532,0,0,1,21.762-6.444Zm7.9,0a1.087,1.087,0,0,0-.639-.972,4.831,4.831,0,0,0-2.2-.36,4.831,4.831,0,0,0-2.2.36,1.087,1.087,0,0,0-.639.972,1.087,1.087,0,0,0,.639.972,4.831,4.831,0,0,0,2.2.36,4.831,4.831,0,0,0,2.2-.36A1.087,1.087,0,0,0,29.664-6.444Zm-8.442-3.942a.691.691,0,0,1-.612-.288,1.177,1.177,0,0,1-.2-.684,1.177,1.177,0,0,1,.2-.684.691.691,0,0,1,.612-.288H25.65v-1.026A.846.846,0,0,1,26-14.1a1.4,1.4,0,0,1,.819-.243,1.4,1.4,0,0,1,.819.243.846.846,0,0,1,.351.747v1.026h4.428a.691.691,0,0,1,.612.288,1.177,1.177,0,0,1,.2.684,1.177,1.177,0,0,1-.2.684.691.691,0,0,1-.612.288Zm6.75,5.958v2.646h5.652a.691.691,0,0,1,.612.288,1.178,1.178,0,0,1,.2.684,1.178,1.178,0,0,1-.2.684.691.691,0,0,1-.612.288H20.016A.691.691,0,0,1,19.4-.126a1.177,1.177,0,0,1-.2-.684,1.177,1.177,0,0,1,.2-.684.691.691,0,0,1,.612-.288h5.652V-4.428ZM41.688-9.774a6.287,6.287,0,0,0,.072.99,4.173,4.173,0,0,0,.234.864,4.108,4.108,0,0,0,.423.8,7.029,7.029,0,0,0,.639.8q.486.522.981,1.026t.909.864a.758.758,0,0,1,.27.729,1.343,1.343,0,0,1-.342.711,1.165,1.165,0,0,1-.306.216,1.2,1.2,0,0,1-.369.117.9.9,0,0,1-.378-.027.9.9,0,0,1-.351-.2q-.36-.324-.783-.747t-.855-.891a10.844,10.844,0,0,1-.981-1.134,1.854,1.854,0,0,1-.315-.648h-.018a1.711,1.711,0,0,1-.108.324,2.287,2.287,0,0,1-.225.378q-.153.216-.387.486t-.594.648q-.432.468-.891.918t-1,.954a.776.776,0,0,1-.765.189,1.414,1.414,0,0,1-.675-.387,1.131,1.131,0,0,1-.288-.72.9.9,0,0,1,.306-.72q1.116-1.026,2.088-2.088a7.029,7.029,0,0,0,.639-.8,4.108,4.108,0,0,0,.423-.8,4.173,4.173,0,0,0,.234-.864,6.287,6.287,0,0,0,.072-.99v-2.484a.842.842,0,0,1,.351-.756,1.442,1.442,0,0,1,.819-.234,1.442,1.442,0,0,1,.819.234.842.842,0,0,1,.351.756Zm8.6.99a.71.71,0,0,1,.63.288,1.209,1.209,0,0,1,.2.7,1.252,1.252,0,0,1-.2.711.7.7,0,0,1-.63.3H48.6V.666a.823.823,0,0,1-.351.738,1.488,1.488,0,0,1-1.6,0A.823.823,0,0,1,46.3.666V-13.122a.823.823,0,0,1,.351-.738,1.411,1.411,0,0,1,.8-.234,1.411,1.411,0,0,1,.8.234.823.823,0,0,1,.351.738v4.338Z" transform="translate(438 380)" fill="#fe6b6b"/>
  </g>
</svg>
