<svg xmlns="http://www.w3.org/2000/svg" xmlns:xlink="http://www.w3.org/1999/xlink" width="115" height="116" viewBox="0 0 115 116">
  <defs>
    <filter id="bg-icon" x="9" y="0" width="98" height="98" filterUnits="userSpaceOnUse">
      <feOffset dy="3" input="SourceAlpha"/>
      <feGaussianBlur stdDeviation="3" result="blur"/>
      <feFlood flood-opacity="0.161"/>
      <feComposite operator="in" in2="blur"/>
      <feComposite in="SourceGraphic"/>
    </filter>
  </defs>
  <g id="ic_skinmanger" transform="translate(-561 -269)">
    <rect id="bg-layout" width="115" height="110" transform="translate(561 275)" fill="none"/>
    <g id="아이콘" transform="translate(-42 22)">
      <g transform="matrix(1, 0, 0, 1, 603, 247)" filter="url(#bg-icon)">
        <path id="bg-icon-2" data-name="bg-icon" d="M20,0H60A20,20,0,0,1,80,20V60A20,20,0,0,1,60,80H20A20,20,0,0,1,0,60V20A20,20,0,0,1,20,0Z" transform="translate(18 6)" fill="#f19c70"/>
      </g>
      <g id="noun_beauty_2116196" transform="translate(636 268)">
        <path id="패스_12" data-name="패스 12" d="M19.509.675A37.2,37.2,0,0,0,17.22,7.547c-.851-.174-1.177-.455-2.175-2.376a4.835,4.835,0,0,0,1.9,3.3C14,18.01,6.749,12.836,12.737,18.172c-.122,3.026-2.849,3.83.033,4.669-3.745,1.944-.3,2.494-.343,3.476-.046,1.149-1.75,1.872-1.668,4.389S20.4,33.054,23.61,34.2c6.587,2.343,8.187,8.574,6.879,14.854A24.779,24.779,0,0,1,4.153,38.793C-5.632,24.144,2.835,4.619,19.509.675ZM25.038,0a24.639,24.639,0,0,1,18.8,40.986C53.076,26.93,27.846,18.945,25.038,0Zm-4.243.4a25.09,25.09,0,0,1,3.937-.4c.166,4.516,1.744,13.758,10.712,23.42,8.408,9.059,8.713,21.531-3.409,25.211,9.716-13.78,5.045-19.538-5-29.98C22.4,15.078,19.4,6.256,20.795.406Z" transform="translate(0 0)" fill="#fff" fill-rule="evenodd"/>
      </g>
    </g>
    <path id="패스_62" data-name="패스 62" d="M-39.186-2.394a.691.691,0,0,1-.612-.288,1.147,1.147,0,0,1-.2-.666,1.147,1.147,0,0,1,.2-.666.691.691,0,0,1,.612-.288h.954v-6.624h-.846a.691.691,0,0,1-.612-.288,1.147,1.147,0,0,1-.2-.666,1.147,1.147,0,0,1,.2-.666.691.691,0,0,1,.612-.288h7.884a.691.691,0,0,1,.612.288,1.147,1.147,0,0,1,.2.666,1.147,1.147,0,0,1-.2.666.691.691,0,0,1-.612.288h-.72v6.408q.252-.036.5-.063t.5-.063a.742.742,0,0,1,.657.189.979.979,0,0,1,.279.621,1.382,1.382,0,0,1-.108.711.642.642,0,0,1-.54.369q-.81.108-1.683.18t-1.9.108q-1.026.036-2.25.054T-39.186-2.394Zm3.15-1.926q.972,0,1.926-.054v-6.552h-1.926Zm9.45,4.986a.823.823,0,0,1-.351.738,1.442,1.442,0,0,1-.819.234,1.411,1.411,0,0,1-.8-.234.823.823,0,0,1-.351-.738V-13.122a.823.823,0,0,1,.351-.738,1.411,1.411,0,0,1,.8-.234,1.442,1.442,0,0,1,.819.234.823.823,0,0,1,.351.738Zm15.858-8.3a1.613,1.613,0,0,1-.333,1.17,1.712,1.712,0,0,1-1.2.324H-20.5a1.712,1.712,0,0,1-1.2-.324,1.613,1.613,0,0,1-.333-1.17v-5.04a.787.787,0,0,1,.351-.7,1.351,1.351,0,0,1,.765-.234,1.381,1.381,0,0,1,.783.234.787.787,0,0,1,.351.7v1.206h6.8v-1.206a.787.787,0,0,1,.351-.7,1.351,1.351,0,0,1,.765-.234,1.381,1.381,0,0,1,.783.234.787.787,0,0,1,.351.7Zm-2.52-.432a.239.239,0,0,0,.27-.27V-9.54h-6.8v1.206a.239.239,0,0,0,.27.27Zm-9.936,5.436a.691.691,0,0,1-.612-.288,1.177,1.177,0,0,1-.2-.684,1.177,1.177,0,0,1,.2-.684.691.691,0,0,1,.612-.288H-9.576a.691.691,0,0,1,.612.288,1.178,1.178,0,0,1,.2.684,1.178,1.178,0,0,1-.2.684.691.691,0,0,1-.612.288h-5.652V1.926a.823.823,0,0,1-.351.738,1.411,1.411,0,0,1-.8.234,1.411,1.411,0,0,1-.8-.234.823.823,0,0,1-.351-.738V-2.628Zm17.3-8.6A.691.691,0,0,1-6.5-11.52a1.209,1.209,0,0,1-.2-.7,1.209,1.209,0,0,1,.2-.7.691.691,0,0,1,.612-.288H.252a1.712,1.712,0,0,1,1.2.324,1.613,1.613,0,0,1,.333,1.17v1.44A11.173,11.173,0,0,1,1.71-8.991a7.592,7.592,0,0,1-.216,1.143.958.958,0,0,1-.54.639,1.358,1.358,0,0,1-.864.063,1.139,1.139,0,0,1-.675-.387A.878.878,0,0,1-.72-8.316,9.769,9.769,0,0,0-.5-10.332v-.486a.366.366,0,0,0-.414-.414ZM5.706-9.216H7.164a.71.71,0,0,1,.63.288,1.209,1.209,0,0,1,.2.7,1.252,1.252,0,0,1-.2.711.7.7,0,0,1-.63.3H5.706v4.806a.812.812,0,0,1-.342.72,1.368,1.368,0,0,1-.792.234,1.368,1.368,0,0,1-.792-.234.812.812,0,0,1-.342-.72V-13.14a.812.812,0,0,1,.342-.72,1.368,1.368,0,0,1,.792-.234,1.368,1.368,0,0,1,.792.234.812.812,0,0,1,.342.72ZM2.034-4.194q-.864.072-1.908.126t-2.187.1q-1.143.045-2.358.063t-2.439.018a.691.691,0,0,1-.612-.288,1.177,1.177,0,0,1-.2-.684,1.177,1.177,0,0,1,.2-.684.691.691,0,0,1,.612-.288q.522,0,1.062.009t1.08-.009V-8.37a.823.823,0,0,1,.351-.738,1.381,1.381,0,0,1,.783-.234,1.381,1.381,0,0,1,.783.234.823.823,0,0,1,.351.738v2.5q1.1-.036,2.169-.09T1.872-6.1a.675.675,0,0,1,.621.216,1.185,1.185,0,0,1,.243.666,1.187,1.187,0,0,1-.126.675A.661.661,0,0,1,2.034-4.194ZM5.292.558A.691.691,0,0,1,5.9.846a1.178,1.178,0,0,1,.2.684,1.178,1.178,0,0,1-.2.684.691.691,0,0,1-.612.288H-3.8a1.712,1.712,0,0,1-1.2-.324,1.613,1.613,0,0,1-.333-1.17V-1.746a.823.823,0,0,1,.351-.738,1.442,1.442,0,0,1,.819-.234,1.411,1.411,0,0,1,.8.234.823.823,0,0,1,.351.738V.144a.366.366,0,0,0,.414.414Zm5.2-11.61a.691.691,0,0,1-.612-.288,1.177,1.177,0,0,1-.2-.684,1.177,1.177,0,0,1,.2-.684A.691.691,0,0,1,10.494-13h5.364a1.712,1.712,0,0,1,1.2.324,1.613,1.613,0,0,1,.333,1.17v3.348a1.613,1.613,0,0,1-.333,1.17,1.712,1.712,0,0,1-1.2.324H12.384a.366.366,0,0,0-.414.414v1.782a.366.366,0,0,0,.414.414q1.692,0,3.114-.081t2.736-.261a.729.729,0,0,1,.657.2,1.017,1.017,0,0,1,.279.63,1.431,1.431,0,0,1-.108.729.642.642,0,0,1-.54.369q-.558.072-1.242.135t-1.557.117q-.873.054-1.98.081t-2.511.027a1.712,1.712,0,0,1-1.2-.324A1.613,1.613,0,0,1,9.7-3.6V-7.038a1.613,1.613,0,0,1,.333-1.17,1.712,1.712,0,0,1,1.2-.324h3.474a.366.366,0,0,0,.414-.414v-1.692a.366.366,0,0,0-.414-.414ZM22.554.666A.823.823,0,0,1,22.2,1.4a1.442,1.442,0,0,1-.819.234,1.411,1.411,0,0,1-.8-.234.823.823,0,0,1-.351-.738V-13.122a.823.823,0,0,1,.351-.738,1.411,1.411,0,0,1,.8-.234,1.442,1.442,0,0,1,.819.234.823.823,0,0,1,.351.738Zm8.694-10.44a6.287,6.287,0,0,0,.072.99,4.173,4.173,0,0,0,.234.864,4.108,4.108,0,0,0,.423.8,7.029,7.029,0,0,0,.639.8q.486.522.981,1.026t.909.864a.758.758,0,0,1,.27.729,1.343,1.343,0,0,1-.342.711,1.165,1.165,0,0,1-.306.216,1.2,1.2,0,0,1-.369.117.9.9,0,0,1-.378-.027.9.9,0,0,1-.351-.2q-.36-.324-.783-.747t-.855-.891a10.844,10.844,0,0,1-.981-1.134A1.854,1.854,0,0,1,30.1-6.3h-.018a1.711,1.711,0,0,1-.108.324,2.287,2.287,0,0,1-.225.378q-.153.216-.387.486t-.594.648q-.432.468-.891.918t-1,.954a.776.776,0,0,1-.765.189,1.414,1.414,0,0,1-.675-.387,1.131,1.131,0,0,1-.288-.72.9.9,0,0,1,.306-.72q1.116-1.026,2.088-2.088a7.029,7.029,0,0,0,.639-.8,4.108,4.108,0,0,0,.423-.8,4.173,4.173,0,0,0,.234-.864,6.287,6.287,0,0,0,.072-.99v-2.484a.842.842,0,0,1,.351-.756,1.442,1.442,0,0,1,.819-.234,1.442,1.442,0,0,1,.819.234.842.842,0,0,1,.351.756Zm8.6.99a.71.71,0,0,1,.63.288,1.209,1.209,0,0,1,.2.7,1.252,1.252,0,0,1-.2.711.7.7,0,0,1-.63.3H38.16V.666a.823.823,0,0,1-.351.738,1.488,1.488,0,0,1-1.6,0,.823.823,0,0,1-.351-.738V-13.122a.823.823,0,0,1,.351-.738,1.411,1.411,0,0,1,.8-.234,1.411,1.411,0,0,1,.8.234.823.823,0,0,1,.351.738v4.338Z" transform="translate(619 380)" fill="#f19c70"/>
  </g>
</svg>
