<svg xmlns="http://www.w3.org/2000/svg" width="150" height="150" viewBox="0 0 150 150">
  <g id="main_login_company" transform="translate(0 0.061)">
    <path id="bg-realtime-hire-info" d="M0,0H150V150H0Z" transform="translate(0 -0.061)" fill="#fff"/>
    <path id="패스_89" data-name="패스 89" d="M14.616,2.592H12.33v-16.74h2.286ZM1.26-2.646q1.35-.81,2.3-1.44A18.308,18.308,0,0,0,5.157-5.247,6.629,6.629,0,0,0,6.165-6.255a3.88,3.88,0,0,0,.558-.963,3.883,3.883,0,0,0,.243-1.026q.054-.54.054-1.206v-1.242H1.566v-1.962h7.74v3.312A13.607,13.607,0,0,1,9.216-7.7a5.332,5.332,0,0,1-.351,1.377,4.976,4.976,0,0,1-.738,1.233A9.169,9.169,0,0,1,6.894-3.861,20.841,20.841,0,0,1,5.049-2.493Q3.96-1.764,2.466-.846ZM21.528-5.76a5.2,5.2,0,0,1-1.863-.306,3.982,3.982,0,0,1-1.341-.819,3.369,3.369,0,0,1-.81-1.17,3.588,3.588,0,0,1-.27-1.377v-.5a3.588,3.588,0,0,1,.27-1.377,3.369,3.369,0,0,1,.81-1.17,3.982,3.982,0,0,1,1.341-.819,5.2,5.2,0,0,1,1.863-.306,5.379,5.379,0,0,1,1.647.234,4.148,4.148,0,0,1,1.26.639,3.357,3.357,0,0,1,.855.945,3.674,3.674,0,0,1,.45,1.134h2.79v-3.492H30.8v8.622H28.53v-3.24H25.758a3.447,3.447,0,0,1-.432,1.161,3.31,3.31,0,0,1-.855.954A4.281,4.281,0,0,1,23.2-6,5.342,5.342,0,0,1,21.528-5.76Zm9.27.99V2.61H20.142V-4.77h2.25v1.89h6.156V-4.77Zm-9.27-6.912a2.668,2.668,0,0,0-.945.153,1.851,1.851,0,0,0-.666.414,1.687,1.687,0,0,0-.387.585,1.777,1.777,0,0,0-.126.648v.4a1.777,1.777,0,0,0,.126.648,1.687,1.687,0,0,0,.387.585,1.851,1.851,0,0,0,.666.414,2.668,2.668,0,0,0,.945.153,2.668,2.668,0,0,0,.945-.153,1.851,1.851,0,0,0,.666-.414,1.688,1.688,0,0,0,.387-.585,1.777,1.777,0,0,0,.126-.648v-.4a1.777,1.777,0,0,0-.126-.648,1.688,1.688,0,0,0-.387-.585,1.851,1.851,0,0,0-.666-.414A2.668,2.668,0,0,0,21.528-11.682ZM28.548.738V-1.008H22.392V.738ZM33.624-2.25h2.223q1.035,0,1.953-.018V-3.51a4.577,4.577,0,0,1-1.341-.414,3.679,3.679,0,0,1-.945-.666,2.462,2.462,0,0,1-.558-.828,2.452,2.452,0,0,1-.18-.918v-.648a2.419,2.419,0,0,1,.252-1.062,2.733,2.733,0,0,1,.765-.936,4,4,0,0,1,1.287-.666A5.955,5.955,0,0,1,38.916-9.9a5.975,5.975,0,0,1,1.827.252,3.989,3.989,0,0,1,1.3.666,2.733,2.733,0,0,1,.765.936,2.419,2.419,0,0,1,.252,1.062v.648a2.452,2.452,0,0,1-.18.918,2.462,2.462,0,0,1-.558.828,3.679,3.679,0,0,1-.945.666,4.569,4.569,0,0,1-1.323.414V-2.3q1.35-.036,2.385-.1t1.881-.153l.162,1.908q-.774.09-1.791.153t-2.34.1q-1.323.036-2.988.054t-3.735.018ZM47.43,2.592H45.18v-16.74h2.25ZM37.8-12.348v-1.836h2.25v1.836h3.618v1.908h-9.7v-1.908Zm1.116,4.23A3.155,3.155,0,0,0,38.007-8a1.822,1.822,0,0,0-.63.315,1.3,1.3,0,0,0-.36.441,1.094,1.094,0,0,0-.117.477v.216a1.074,1.074,0,0,0,.117.486,1.331,1.331,0,0,0,.36.432,1.822,1.822,0,0,0,.63.315,3.155,3.155,0,0,0,.909.117,2.262,2.262,0,0,0,1.53-.432,1.235,1.235,0,0,0,.486-.918v-.216a1.235,1.235,0,0,0-.486-.918A2.262,2.262,0,0,0,38.916-8.118Zm16.272.666a6.109,6.109,0,0,1-1.665-.216,4.525,4.525,0,0,1-1.332-.6,2.937,2.937,0,0,1-.891-.936,2.313,2.313,0,0,1-.324-1.2v-.5a2.313,2.313,0,0,1,.324-1.2,2.937,2.937,0,0,1,.891-.936,4.525,4.525,0,0,1,1.332-.6,6.109,6.109,0,0,1,1.665-.216,6.137,6.137,0,0,1,1.656.216,4.511,4.511,0,0,1,1.341.6,2.937,2.937,0,0,1,.891.936,2.313,2.313,0,0,1,.324,1.2v.5a2.313,2.313,0,0,1-.324,1.2,2.937,2.937,0,0,1-.891.936,4.511,4.511,0,0,1-1.341.6A6.137,6.137,0,0,1,55.188-7.452ZM58.176-4.3h3.312v-9.846h2.268V-1.224H61.488V-2.466H58.176ZM54.9.522h9.126V2.466H52.614V-2.052H54.9Zm-5-7.272q2.07,0,3.645-.018t2.826-.054q1.251-.036,2.241-.09t1.872-.144l.162,1.89q-.864.108-1.971.171t-2.6.1v2.2H53.82V-4.86q-.882.018-1.854.018H49.9Zm5.292-5.256a2.839,2.839,0,0,0-1.494.351,1.017,1.017,0,0,0-.576.873v.252a1.017,1.017,0,0,0,.576.873,2.839,2.839,0,0,0,1.494.351,2.839,2.839,0,0,0,1.494-.351,1.017,1.017,0,0,0,.576-.873v-.252a1.017,1.017,0,0,0-.576-.873A2.839,2.839,0,0,0,55.188-12.006Z" transform="translate(42 97.329)" fill="#3c3c3c"/>
    <path id="Icon_awesome-building" data-name="Icon awesome-building" d="M30.656,33.75H29.25V1.688A1.687,1.687,0,0,0,27.563,0H3.938A1.687,1.687,0,0,0,2.25,1.688V33.75H.844A.844.844,0,0,0,0,34.594V36H31.5V34.594A.844.844,0,0,0,30.656,33.75ZM9,5.344A.844.844,0,0,1,9.844,4.5h2.813a.844.844,0,0,1,.844.844V8.156A.844.844,0,0,1,12.656,9H9.844A.844.844,0,0,1,9,8.156Zm0,6.75a.844.844,0,0,1,.844-.844h2.813a.844.844,0,0,1,.844.844v2.813a.844.844,0,0,1-.844.844H9.844A.844.844,0,0,1,9,14.906ZM12.656,22.5H9.844A.844.844,0,0,1,9,21.656V18.844A.844.844,0,0,1,9.844,18h2.813a.844.844,0,0,1,.844.844v2.813A.844.844,0,0,1,12.656,22.5ZM18,33.75H13.5V27.844A.844.844,0,0,1,14.344,27h2.813a.844.844,0,0,1,.844.844Zm4.5-12.094a.844.844,0,0,1-.844.844H18.844A.844.844,0,0,1,18,21.656V18.844A.844.844,0,0,1,18.844,18h2.813a.844.844,0,0,1,.844.844Zm0-6.75a.844.844,0,0,1-.844.844H18.844A.844.844,0,0,1,18,14.906V12.094a.844.844,0,0,1,.844-.844h2.813a.844.844,0,0,1,.844.844Zm0-6.75A.844.844,0,0,1,21.656,9H18.844A.844.844,0,0,1,18,8.156V5.344a.844.844,0,0,1,.844-.844h2.813a.844.844,0,0,1,.844.844Z" transform="translate(59 29.201)" fill="#3c3c3c"/>
    <path id="패스_88" data-name="패스 88" d="M6.216-2.46V-.948h4.356V.324H.348V-.948H4.7V-2.46H1.716V-6.18H7.632V-7.368H1.68V-8.64H9.144v3.72H3.228v1.188H9.4V-2.46ZM21.492-.96V.324H11.268V-.96ZM18.108-1.968q.108-.576.186-1.11t.12-1.038q.042-.5.06-1t.018-1.014V-7.1h-6V-8.436H20v1.908q0,.852-.024,1.494t-.072,1.182q-.048.54-.126,1.032t-.174,1.032ZM25.884.312h5.76v1.3H24.36V-2.136h1.524Zm5.58-1.8H29.952V-9.432h1.512Zm-6.048-1.7A3.273,3.273,0,0,1,24.21-3.4a2.711,2.711,0,0,1-.906-.57,2.5,2.5,0,0,1-.57-.828,2.47,2.47,0,0,1-.2-.972v-.672a2.47,2.47,0,0,1,.2-.972,2.5,2.5,0,0,1,.57-.828,2.711,2.711,0,0,1,.906-.57,3.273,3.273,0,0,1,1.206-.21,3.273,3.273,0,0,1,1.206.21,2.711,2.711,0,0,1,.906.57,2.5,2.5,0,0,1,.57.828,2.47,2.47,0,0,1,.2.972v.672a2.47,2.47,0,0,1-.2.972,2.5,2.5,0,0,1-.57.828,2.711,2.711,0,0,1-.906.57A3.273,3.273,0,0,1,25.416-3.192Zm0-4.524a1.544,1.544,0,0,0-.606.114,1.365,1.365,0,0,0-.456.306,1.371,1.371,0,0,0-.288.444,1.364,1.364,0,0,0-.1.516v.456a1.349,1.349,0,0,0,.1.522,1.388,1.388,0,0,0,.288.438,1.365,1.365,0,0,0,.456.306,1.544,1.544,0,0,0,.606.114,1.544,1.544,0,0,0,.606-.114,1.365,1.365,0,0,0,.456-.306,1.388,1.388,0,0,0,.288-.438,1.349,1.349,0,0,0,.1-.522v-.456a1.364,1.364,0,0,0-.1-.516,1.371,1.371,0,0,0-.288-.444,1.365,1.365,0,0,0-.456-.306A1.544,1.544,0,0,0,25.416-7.716Z" transform="translate(59 119.329)" fill="#707070"/>
  </g>
</svg>
