<svg id="main_login_personal" xmlns="http://www.w3.org/2000/svg" width="150" height="150" viewBox="0 0 150 150">
  <path id="bg-realtime-hire-info" d="M0,0H150V150H0Z" fill="#fff"/>
  <path id="패스_87" data-name="패스 87" d="M11.322-8.442h1.6v-5.706h2.16V2.592h-2.16V-6.48h-1.6V1.782H9.162V-13.806h2.16ZM7.416-8.658a9.477,9.477,0,0,1-.207,2.106A4.893,4.893,0,0,1,6.4-4.806a9.448,9.448,0,0,1-1.71,1.755Q3.582-2.142,1.782-.9L.486-2.628q1.566-1.044,2.5-1.791A7.381,7.381,0,0,0,4.41-5.85a3.767,3.767,0,0,0,.639-1.422A8.7,8.7,0,0,0,5.2-9.018v-1.548H.936v-1.962h6.48ZM22.446.468h8.64V2.412H20.16V-3.2h2.286Zm8.37-2.7H28.548V-14.148h2.268ZM21.744-4.788A4.91,4.91,0,0,1,19.935-5.1a4.067,4.067,0,0,1-1.359-.855A3.743,3.743,0,0,1,17.721-7.2a3.706,3.706,0,0,1-.3-1.458V-9.666a3.706,3.706,0,0,1,.3-1.458,3.743,3.743,0,0,1,.855-1.242,4.067,4.067,0,0,1,1.359-.855,4.91,4.91,0,0,1,1.809-.315,4.91,4.91,0,0,1,1.809.315,4.067,4.067,0,0,1,1.359.855,3.743,3.743,0,0,1,.855,1.242,3.706,3.706,0,0,1,.3,1.458v1.008a3.706,3.706,0,0,1-.3,1.458,3.743,3.743,0,0,1-.855,1.242,4.067,4.067,0,0,1-1.359.855A4.91,4.91,0,0,1,21.744-4.788Zm0-6.786a2.316,2.316,0,0,0-.909.171,2.047,2.047,0,0,0-.684.459,2.056,2.056,0,0,0-.432.666,2.046,2.046,0,0,0-.153.774v.684a2.024,2.024,0,0,0,.153.783,2.083,2.083,0,0,0,.432.657,2.047,2.047,0,0,0,.684.459,2.316,2.316,0,0,0,.909.171,2.316,2.316,0,0,0,.909-.171,2.047,2.047,0,0,0,.684-.459,2.083,2.083,0,0,0,.432-.657,2.024,2.024,0,0,0,.153-.783V-9.5a2.046,2.046,0,0,0-.153-.774,2.056,2.056,0,0,0-.432-.666,2.047,2.047,0,0,0-.684-.459A2.316,2.316,0,0,0,21.744-11.574ZM33.624-2.25h2.223q1.035,0,1.953-.018V-3.51a4.577,4.577,0,0,1-1.341-.414,3.679,3.679,0,0,1-.945-.666,2.462,2.462,0,0,1-.558-.828,2.452,2.452,0,0,1-.18-.918v-.648a2.419,2.419,0,0,1,.252-1.062,2.733,2.733,0,0,1,.765-.936,4,4,0,0,1,1.287-.666A5.955,5.955,0,0,1,38.916-9.9a5.975,5.975,0,0,1,1.827.252,3.989,3.989,0,0,1,1.3.666,2.733,2.733,0,0,1,.765.936,2.419,2.419,0,0,1,.252,1.062v.648a2.452,2.452,0,0,1-.18.918,2.462,2.462,0,0,1-.558.828,3.679,3.679,0,0,1-.945.666,4.569,4.569,0,0,1-1.323.414V-2.3q1.35-.036,2.385-.1t1.881-.153l.162,1.908q-.774.09-1.791.153t-2.34.1q-1.323.036-2.988.054t-3.735.018ZM47.43,2.592H45.18v-16.74h2.25ZM37.8-12.348v-1.836h2.25v1.836h3.618v1.908h-9.7v-1.908Zm1.116,4.23A3.155,3.155,0,0,0,38.007-8a1.822,1.822,0,0,0-.63.315,1.3,1.3,0,0,0-.36.441,1.094,1.094,0,0,0-.117.477v.216a1.074,1.074,0,0,0,.117.486,1.331,1.331,0,0,0,.36.432,1.822,1.822,0,0,0,.63.315,3.155,3.155,0,0,0,.909.117,2.262,2.262,0,0,0,1.53-.432,1.235,1.235,0,0,0,.486-.918v-.216a1.235,1.235,0,0,0-.486-.918A2.262,2.262,0,0,0,38.916-8.118Zm16.272.666a6.109,6.109,0,0,1-1.665-.216,4.525,4.525,0,0,1-1.332-.6,2.937,2.937,0,0,1-.891-.936,2.313,2.313,0,0,1-.324-1.2v-.5a2.313,2.313,0,0,1,.324-1.2,2.937,2.937,0,0,1,.891-.936,4.525,4.525,0,0,1,1.332-.6,6.109,6.109,0,0,1,1.665-.216,6.137,6.137,0,0,1,1.656.216,4.511,4.511,0,0,1,1.341.6,2.937,2.937,0,0,1,.891.936,2.313,2.313,0,0,1,.324,1.2v.5a2.313,2.313,0,0,1-.324,1.2,2.937,2.937,0,0,1-.891.936,4.511,4.511,0,0,1-1.341.6A6.137,6.137,0,0,1,55.188-7.452ZM58.176-4.3h3.312v-9.846h2.268V-1.224H61.488V-2.466H58.176ZM54.9.522h9.126V2.466H52.614V-2.052H54.9Zm-5-7.272q2.07,0,3.645-.018t2.826-.054q1.251-.036,2.241-.09t1.872-.144l.162,1.89q-.864.108-1.971.171t-2.6.1v2.2H53.82V-4.86q-.882.018-1.854.018H49.9Zm5.292-5.256a2.839,2.839,0,0,0-1.494.351,1.017,1.017,0,0,0-.576.873v.252a1.017,1.017,0,0,0,.576.873,2.839,2.839,0,0,0,1.494.351,2.839,2.839,0,0,0,1.494-.351,1.017,1.017,0,0,0,.576-.873v-.252a1.017,1.017,0,0,0-.576-.873A2.839,2.839,0,0,0,55.188-12.006Z" transform="translate(42 97.393)" fill="#3c3c3c"/>
  <path id="Icon_material-person" data-name="Icon material-person" d="M18,18a6,6,0,1,0-6-6A6,6,0,0,0,18,18Zm0,3c-4.005,0-12,2.01-12,6v3H30V27C30,23.01,22.005,21,18,21Z" transform="translate(57 30.141)" fill="#3c3c3c"/>
  <path id="패스_86" data-name="패스 86" d="M6.216-2.46V-.948h4.356V.324H.348V-.948H4.7V-2.46H1.716V-6.18H7.632V-7.368H1.68V-8.64H9.144v3.72H3.228v1.188H9.4V-2.46ZM21.492-.96V.324H11.268V-.96ZM18.108-1.968q.108-.576.186-1.11t.12-1.038q.042-.5.06-1t.018-1.014V-7.1h-6V-8.436H20v1.908q0,.852-.024,1.494t-.072,1.182q-.048.54-.126,1.032t-.174,1.032ZM25.884.312h5.76v1.3H24.36V-2.136h1.524Zm5.58-1.8H29.952V-9.432h1.512Zm-6.048-1.7A3.273,3.273,0,0,1,24.21-3.4a2.711,2.711,0,0,1-.906-.57,2.5,2.5,0,0,1-.57-.828,2.47,2.47,0,0,1-.2-.972v-.672a2.47,2.47,0,0,1,.2-.972,2.5,2.5,0,0,1,.57-.828,2.711,2.711,0,0,1,.906-.57,3.273,3.273,0,0,1,1.206-.21,3.273,3.273,0,0,1,1.206.21,2.711,2.711,0,0,1,.906.57,2.5,2.5,0,0,1,.57.828,2.47,2.47,0,0,1,.2.972v.672a2.47,2.47,0,0,1-.2.972,2.5,2.5,0,0,1-.57.828,2.711,2.711,0,0,1-.906.57A3.273,3.273,0,0,1,25.416-3.192Zm0-4.524a1.544,1.544,0,0,0-.606.114,1.365,1.365,0,0,0-.456.306,1.371,1.371,0,0,0-.288.444,1.364,1.364,0,0,0-.1.516v.456a1.349,1.349,0,0,0,.1.522,1.388,1.388,0,0,0,.288.438,1.365,1.365,0,0,0,.456.306,1.544,1.544,0,0,0,.606.114,1.544,1.544,0,0,0,.606-.114,1.365,1.365,0,0,0,.456-.306,1.388,1.388,0,0,0,.288-.438,1.349,1.349,0,0,0,.1-.522v-.456a1.364,1.364,0,0,0-.1-.516,1.371,1.371,0,0,0-.288-.444,1.365,1.365,0,0,0-.456-.306A1.544,1.544,0,0,0,25.416-7.716Z" transform="translate(59 119.393)" fill="#707070"/>
</svg>
