<svg xmlns="http://www.w3.org/2000/svg" xmlns:xlink="http://www.w3.org/1999/xlink" width="330" height="150" viewBox="0 0 330 150">
  <defs>
    <linearGradient id="linear-gradient" x1="0.304" y1="0.39" x2="0.989" y2="0.96" gradientUnits="objectBoundingBox">
      <stop offset="0" stop-color="#dd718c"/>
      <stop offset="0.576" stop-color="#dd7171"/>
      <stop offset="1" stop-color="#de9c9c"/>
    </linearGradient>
  </defs>
  <g id="PremiumService-obj" transform="translate(-12 12)">
    <rect id="bg" width="330" height="150" transform="translate(12 -12)" fill="url(#linear-gradient)"/>
    <path id="Icon_awesome-medal" data-name="Icon awesome-medal" d="M31.1,18.173,21.491,2.16A4.447,4.447,0,0,0,17.677,0H2.228A2.224,2.224,0,0,0,.406,3.5L15.872,25.594A28.766,28.766,0,0,1,31.1,18.173ZM68.936,0H53.487a4.447,4.447,0,0,0-3.814,2.16L40.065,18.173a28.774,28.774,0,0,1,15.228,7.419L70.758,3.5A2.224,2.224,0,0,0,68.936,0ZM35.582,22.239A24.463,24.463,0,1,0,60.045,46.7,24.463,24.463,0,0,0,35.582,22.239ZM48.442,44.1,43.17,49.234l1.247,7.258a1.6,1.6,0,0,1-2.314,1.68l-6.52-3.426-6.519,3.426a1.6,1.6,0,0,1-2.314-1.68L28,49.234,22.724,44.1a1.6,1.6,0,0,1,.883-2.723l7.287-1.062,3.257-6.6a1.6,1.6,0,0,1,2.865,0l3.257,6.6,7.287,1.062A1.6,1.6,0,0,1,48.442,44.1Z" transform="translate(49.21 20)" fill="#fff"/>
    <path id="Path_92" data-name="Path 92" d="M-58.476-11.256h2.136v-7.608h2.88V3.456h-2.88V-8.64h-2.136V2.376h-2.88V-18.408h2.88Zm-5.208-.288a12.636,12.636,0,0,1-.276,2.808,6.524,6.524,0,0,1-1.08,2.328,12.6,12.6,0,0,1-2.28,2.34Q-68.8-2.856-71.2-1.2l-1.728-2.3q2.088-1.392,3.336-2.388a9.841,9.841,0,0,0,1.9-1.908,5.023,5.023,0,0,0,.852-1.9,11.605,11.605,0,0,0,.2-2.328v-2.064h-5.688V-16.7h8.64ZM-43.644.624h11.52V3.216H-46.692V-4.272h3.048Zm11.16-3.6h-3.024V-18.864h3.024Zm-12.1-3.408a6.547,6.547,0,0,1-2.412-.42A5.423,5.423,0,0,1-48.8-7.944,4.991,4.991,0,0,1-49.944-9.6a4.941,4.941,0,0,1-.4-1.944v-1.344a4.941,4.941,0,0,1,.4-1.944,4.991,4.991,0,0,1,1.14-1.656,5.423,5.423,0,0,1,1.812-1.14,6.547,6.547,0,0,1,2.412-.42,6.547,6.547,0,0,1,2.412.42,5.423,5.423,0,0,1,1.812,1.14,4.991,4.991,0,0,1,1.14,1.656,4.941,4.941,0,0,1,.4,1.944v1.344a4.941,4.941,0,0,1-.4,1.944,4.991,4.991,0,0,1-1.14,1.656A5.423,5.423,0,0,1-42.168-6.8,6.547,6.547,0,0,1-44.58-6.384Zm0-9.048a3.088,3.088,0,0,0-1.212.228,2.729,2.729,0,0,0-.912.612,2.742,2.742,0,0,0-.576.888,2.727,2.727,0,0,0-.2,1.032v.912a2.7,2.7,0,0,0,.2,1.044,2.777,2.777,0,0,0,.576.876,2.729,2.729,0,0,0,.912.612A3.088,3.088,0,0,0-44.58-9a3.088,3.088,0,0,0,1.212-.228,2.729,2.729,0,0,0,.912-.612,2.777,2.777,0,0,0,.576-.876,2.7,2.7,0,0,0,.2-1.044v-.912a2.727,2.727,0,0,0-.2-1.032,2.742,2.742,0,0,0-.576-.888,2.729,2.729,0,0,0-.912-.612A3.088,3.088,0,0,0-44.58-15.432Zm18.192,6.648h3.1v3.072h-3.1ZM-.3,3.456H-3.348v-22.32H-.3ZM-18.108-3.528q1.8-1.08,3.072-1.92A24.411,24.411,0,0,0-12.912-7,8.838,8.838,0,0,0-11.568-8.34a5.173,5.173,0,0,0,.744-1.284,5.177,5.177,0,0,0,.324-1.368q.072-.72.072-1.608v-1.656H-17.7v-2.616H-7.38v4.416a18.143,18.143,0,0,1-.12,2.184,7.109,7.109,0,0,1-.468,1.836,6.635,6.635,0,0,1-.984,1.644A12.226,12.226,0,0,1-10.6-5.148a27.788,27.788,0,0,1-2.46,1.824q-1.452.972-3.444,2.2ZM8.916-7.68a6.939,6.939,0,0,1-2.484-.408A5.309,5.309,0,0,1,4.644-9.18a4.491,4.491,0,0,1-1.08-1.56,4.784,4.784,0,0,1-.36-1.836v-.672a4.784,4.784,0,0,1,.36-1.836,4.491,4.491,0,0,1,1.08-1.56,5.309,5.309,0,0,1,1.788-1.092,6.939,6.939,0,0,1,2.484-.408,7.172,7.172,0,0,1,2.2.312,5.531,5.531,0,0,1,1.68.852,4.476,4.476,0,0,1,1.14,1.26,4.9,4.9,0,0,1,.6,1.512h3.72v-4.656h3.024v11.5H18.252v-4.32h-3.7a4.6,4.6,0,0,1-.576,1.548,4.413,4.413,0,0,1-1.14,1.272A5.708,5.708,0,0,1,11.148-8,7.122,7.122,0,0,1,8.916-7.68Zm12.36,1.32V3.48H7.068V-6.36h3v2.52h8.208V-6.36ZM8.916-15.576a3.557,3.557,0,0,0-1.26.2,2.468,2.468,0,0,0-.888.552,2.25,2.25,0,0,0-.516.78,2.369,2.369,0,0,0-.168.864v.528a2.369,2.369,0,0,0,.168.864,2.25,2.25,0,0,0,.516.78,2.468,2.468,0,0,0,.888.552,3.557,3.557,0,0,0,1.26.2,3.557,3.557,0,0,0,1.26-.2A2.468,2.468,0,0,0,11.064-11a2.25,2.25,0,0,0,.516-.78,2.369,2.369,0,0,0,.168-.864v-.528a2.369,2.369,0,0,0-.168-.864,2.25,2.25,0,0,0-.516-.78,2.468,2.468,0,0,0-.888-.552A3.557,3.557,0,0,0,8.916-15.576ZM18.276.984V-1.344H10.068V.984ZM25.044-3h2.964q1.38,0,2.6-.024V-4.68a6.1,6.1,0,0,1-1.788-.552,4.9,4.9,0,0,1-1.26-.888,3.283,3.283,0,0,1-.744-1.1,3.269,3.269,0,0,1-.24-1.224v-.864a3.226,3.226,0,0,1,.336-1.416,3.643,3.643,0,0,1,1.02-1.248,5.335,5.335,0,0,1,1.716-.888A7.94,7.94,0,0,1,32.1-13.2a7.967,7.967,0,0,1,2.436.336,5.319,5.319,0,0,1,1.728.888,3.643,3.643,0,0,1,1.02,1.248,3.226,3.226,0,0,1,.336,1.416v.864a3.269,3.269,0,0,1-.24,1.224,3.283,3.283,0,0,1-.744,1.1,4.9,4.9,0,0,1-1.26.888,6.092,6.092,0,0,1-1.764.552v1.608q1.8-.048,3.18-.132t2.508-.2l.216,2.544q-1.032.12-2.388.2t-3.12.132q-1.764.048-3.984.072t-4.98.024ZM43.452,3.456h-3v-22.32h3Zm-12.84-19.92v-2.448h3v2.448h4.824v2.544H25.5v-2.544Zm1.488,5.64a4.206,4.206,0,0,0-1.212.156,2.429,2.429,0,0,0-.84.42,1.732,1.732,0,0,0-.48.588,1.459,1.459,0,0,0-.156.636v.288a1.432,1.432,0,0,0,.156.648,1.775,1.775,0,0,0,.48.576,2.429,2.429,0,0,0,.84.42,4.206,4.206,0,0,0,1.212.156,3.016,3.016,0,0,0,2.04-.576,1.647,1.647,0,0,0,.648-1.224v-.288a1.647,1.647,0,0,0-.648-1.224A3.016,3.016,0,0,0,32.1-10.824Zm21.7.888a8.146,8.146,0,0,1-2.22-.288,6.034,6.034,0,0,1-1.776-.8,3.916,3.916,0,0,1-1.188-1.248,3.084,3.084,0,0,1-.432-1.6v-.672a3.084,3.084,0,0,1,.432-1.6A3.916,3.916,0,0,1,49.8-17.388a6.034,6.034,0,0,1,1.776-.8,8.146,8.146,0,0,1,2.22-.288A8.183,8.183,0,0,1,56-18.192a6.015,6.015,0,0,1,1.788.8A3.916,3.916,0,0,1,58.98-16.14a3.084,3.084,0,0,1,.432,1.6v.672a3.084,3.084,0,0,1-.432,1.6,3.916,3.916,0,0,1-1.188,1.248,6.015,6.015,0,0,1-1.788.8A8.183,8.183,0,0,1,53.8-9.936Zm3.984,4.2H62.2V-18.864H65.22V-1.632H62.2V-3.288H57.78ZM53.412.7H65.58V3.288H50.364V-2.736h3.048ZM46.74-9q2.76,0,4.86-.024T55.368-9.1q1.668-.048,2.988-.12t2.5-.192l.216,2.52q-1.152.144-2.628.228t-3.468.132V-3.6h-3V-6.48q-1.176.024-2.472.024H46.74ZM53.8-16.008a3.785,3.785,0,0,0-1.992.468,1.357,1.357,0,0,0-.768,1.164v.336a1.357,1.357,0,0,0,.768,1.164,3.785,3.785,0,0,0,1.992.468,3.785,3.785,0,0,0,1.992-.468,1.357,1.357,0,0,0,.768-1.164v-.336a1.357,1.357,0,0,0-.768-1.164A3.785,3.785,0,0,0,53.8-16.008ZM-76.656,24.552V22.008H-73.8v-6.48h-2.712V12.984h15.936v2.544h-2.616v6.48h2.808v2.544Zm5.88-2.544h4.56v-6.48h-4.56ZM-58.3,28.08v2.568H-78.744V28.08Zm20.184,5.376H-41.16V11.136h3.048Zm-14.232-7.872h2.328q1.656,0,3.432-.108t3.456-.324l.336,2.544a35.373,35.373,0,0,1-3.72.36q-2.016.1-4.224.1h-4.608V19.08h7.2V15.432h-7.2V12.864h10.2v8.688h-7.2Zm36.072,7.872H-19.32V11.136h3.048Zm-6.48-20.376V27.648H-33.576V13.08Zm-3.024,2.568h-4.776V25.08h4.776ZM2.28,18.528h-3.7a4.562,4.562,0,0,1-.6,1.62A5.018,5.018,0,0,1-3.192,21.48a5.621,5.621,0,0,1-1.692.912,6.618,6.618,0,0,1-2.172.336,6.452,6.452,0,0,1-2.4-.42,5.787,5.787,0,0,1-1.8-1.1,4.569,4.569,0,0,1-1.128-1.584,4.752,4.752,0,0,1-.384-1.884v-.864A4.781,4.781,0,0,1-12.384,15a4.541,4.541,0,0,1,1.128-1.6,5.787,5.787,0,0,1,1.8-1.1,6.452,6.452,0,0,1,2.4-.42,6.761,6.761,0,0,1,2.148.324,5.575,5.575,0,0,1,1.692.888A4.744,4.744,0,0,1-2.052,14.4a4.973,4.973,0,0,1,.612,1.584H2.28V11.136H5.3v12.48H2.28Zm-11.16,6.1H5.3v8.832H-8.88Zm3,6.312H2.3V27.144H-5.88ZM-7.056,14.448a3.146,3.146,0,0,0-1.2.216,2.664,2.664,0,0,0-.888.576,2.579,2.579,0,0,0-.552.8,2.249,2.249,0,0,0-.192.9v.72a2.249,2.249,0,0,0,.192.9,2.579,2.579,0,0,0,.552.8,2.664,2.664,0,0,0,.888.576,3.146,3.146,0,0,0,1.2.216,3.146,3.146,0,0,0,1.2-.216,2.664,2.664,0,0,0,.888-.576,2.579,2.579,0,0,0,.552-.8,2.249,2.249,0,0,0,.192-.9v-.72a2.249,2.249,0,0,0-.192-.9,2.579,2.579,0,0,0-.552-.8,2.664,2.664,0,0,0-.888-.576A3.146,3.146,0,0,0-7.056,14.448Zm33.072,3.408h4.392v-6.72h3.048v22.32H30.408V20.5H26.016Zm-1.392,4.512q.768.84,1.68,1.74t1.848,1.74l-1.944,2.04q-.816-.768-1.584-1.524t-1.44-1.452q-.7-.7-1.176-1.26a3.53,3.53,0,0,1-.6-.876H21.36a3.718,3.718,0,0,1-.66.972q-.54.636-1.14,1.26-.672.7-1.416,1.428t-1.776,1.692l-1.992-2.064q2.04-1.824,3.6-3.528a8.922,8.922,0,0,0,.876-1.1,5.808,5.808,0,0,0,.564-1.08,5.564,5.564,0,0,0,.312-1.152,8.554,8.554,0,0,0,.1-1.344V12.72h3.1v5.136a12.609,12.609,0,0,0,.06,1.3,4.436,4.436,0,0,0,.252,1.092,5.649,5.649,0,0,0,.516,1.032A6.97,6.97,0,0,0,24.624,22.368ZM55.248,33.456H52.2V11.136h3.048ZM48.72,27.7H37.944V12.912h3v5.016H45.72V12.912h3Zm-7.776-2.544H45.72V20.52H40.944Zm37.8,2.928v2.568H58.3V28.08ZM68.592,19.992a2.614,2.614,0,0,1-.8.876q-.612.468-1.524,1.092-.984.648-2.28,1.428T60.96,25.152l-1.488-2.4q1.32-.744,2.664-1.548t2.4-1.524a7.354,7.354,0,0,0,1.188-.96,4.205,4.205,0,0,0,.744-1.02,4.347,4.347,0,0,0,.4-1.164,7.542,7.542,0,0,0,.12-1.416V12.648h3.072V15.12a7.543,7.543,0,0,0,.12,1.416,4.347,4.347,0,0,0,.4,1.164,4.205,4.205,0,0,0,.744,1.02,7.354,7.354,0,0,0,1.188.96q1.056.72,2.4,1.524t2.664,1.548L76.1,25.1q-1.728-.984-3.024-1.764T70.8,21.912q-.912-.624-1.452-1.068a2.62,2.62,0,0,1-.732-.852Z" transform="translate(218 48)" fill="#fff"/>
    <g id="Group_5" data-name="Group 5" transform="translate(-1222 -1141)">
      <path id="Icon_awesome-arrow-alt-circle-right" data-name="Icon awesome-arrow-alt-circle-right" d="M11.062.562a10.5,10.5,0,1,1-10.5,10.5A10.5,10.5,0,0,1,11.062.562ZM6.151,12.925h4.911v3a.508.508,0,0,0,.868.36l4.839-4.865a.5.5,0,0,0,0-.716L11.93,5.838a.508.508,0,0,0-.868.36v3H6.151a.51.51,0,0,0-.508.508v2.71A.51.51,0,0,0,6.151,12.925Z" transform="translate(1532.417 1243.438)" fill="#fff"/>
      <path id="Path_93" data-name="Path 93" d="M3.668-7.028a2.616,2.616,0,0,1,2.009.756,2.813,2.813,0,0,1,.707,2,2.813,2.813,0,0,1-.707,2,2.616,2.616,0,0,1-2.009.756,2.616,2.616,0,0,1-2.009-.756,2.813,2.813,0,0,1-.707-2,2.813,2.813,0,0,1,.707-2A2.616,2.616,0,0,1,3.668-7.028ZM2.786-9.17v-.966a.626.626,0,0,1,.273-.56,1.074,1.074,0,0,1,.609-.182,1.074,1.074,0,0,1,.609.182.626.626,0,0,1,.273.56v.966H6.2a.538.538,0,0,1,.476.224.892.892,0,0,1,.154.518.916.916,0,0,1-.154.532.538.538,0,0,1-.476.224H.924A.538.538,0,0,1,.448-7.9a.916.916,0,0,1-.154-.532.892.892,0,0,1,.154-.518A.538.538,0,0,1,.924-9.17Zm.882,6.23a1.151,1.151,0,0,0,.861-.336,1.366,1.366,0,0,0,.329-.994,1.366,1.366,0,0,0-.329-.994A1.151,1.151,0,0,0,3.668-5.6a1.151,1.151,0,0,0-.861.336,1.366,1.366,0,0,0-.329.994,1.366,1.366,0,0,0,.329.994A1.151,1.151,0,0,0,3.668-2.94ZM8.82-6.608H9.94v-3.654a.593.593,0,0,1,.252-.532.988.988,0,0,1,.56-.168,1.011,1.011,0,0,1,.574.168.593.593,0,0,1,.252.532V.574a.593.593,0,0,1-.252.532,1.011,1.011,0,0,1-.574.168.988.988,0,0,1-.56-.168A.593.593,0,0,1,9.94.574V-5.1H8.82V0a.579.579,0,0,1-.252.518.988.988,0,0,1-.56.168.988.988,0,0,1-.56-.168A.579.579,0,0,1,7.2,0V-10.136a.579.579,0,0,1,.252-.518.988.988,0,0,1,.56-.168.988.988,0,0,1,.56.168.579.579,0,0,1,.252.518Zm9.212-1.05a.52.52,0,0,1,.469.224.9.9,0,0,1,.147.5.865.865,0,0,1-.147.5.526.526,0,0,1-.469.217h-2.8v.84a.285.285,0,0,0,.322.322q.742,0,1.561-.042t1.491-.14a.549.549,0,0,1,.5.154.811.811,0,0,1,.21.49,1.01,1.01,0,0,1-.084.546.542.542,0,0,1-.42.28q-.448.07-1.47.133t-2.66.063a1.332,1.332,0,0,1-.931-.252,1.255,1.255,0,0,1-.259-.91V-9.086a1.255,1.255,0,0,1,.259-.91,1.332,1.332,0,0,1,.931-.252h3.542a.538.538,0,0,1,.476.224.892.892,0,0,1,.154.518.892.892,0,0,1-.154.518.538.538,0,0,1-.476.224H15.554a.285.285,0,0,0-.322.322v.784Zm3.514-.126h1.12v-2.478a.593.593,0,0,1,.252-.532,1.011,1.011,0,0,1,.574-.168,1.011,1.011,0,0,1,.574.168.593.593,0,0,1,.252.532v6.538a.593.593,0,0,1-.252.532,1.011,1.011,0,0,1-.574.168,1.011,1.011,0,0,1-.574-.168.593.593,0,0,1-.252-.532V-6.286h-1.12v2.492a.593.593,0,0,1-.252.532,1.011,1.011,0,0,1-.574.168.988.988,0,0,1-.56-.168.593.593,0,0,1-.252-.532v-6.4a.593.593,0,0,1,.252-.532.988.988,0,0,1,.56-.168,1.011,1.011,0,0,1,.574.168.593.593,0,0,1,.252.532Zm.98,7.112A.285.285,0,0,0,22.2-.994H15.946a.538.538,0,0,1-.476-.224.916.916,0,0,1-.154-.532.916.916,0,0,1,.154-.532.538.538,0,0,1,.476-.224h7.182a1.332,1.332,0,0,1,.931.252,1.255,1.255,0,0,1,.259.91V1.442a.64.64,0,0,1-.273.574,1.157,1.157,0,0,1-1.246,0,.64.64,0,0,1-.273-.574ZM31.6-7.224h2.688v-2.17a.626.626,0,0,1,.273-.56,1.074,1.074,0,0,1,.609-.182,1.074,1.074,0,0,1,.609.182.626.626,0,0,1,.273.56v6.3a1.255,1.255,0,0,1-.259.91,1.332,1.332,0,0,1-.931.252H31.024a1.332,1.332,0,0,1-.931-.252,1.255,1.255,0,0,1-.259-.91v-6.3a.626.626,0,0,1,.273-.56,1.074,1.074,0,0,1,.609-.182,1.074,1.074,0,0,1,.609.182.626.626,0,0,1,.273.56ZM33.964-3.43a.285.285,0,0,0,.322-.322V-5.726H31.6v1.974a.285.285,0,0,0,.322.322Zm6.9-3.4a.552.552,0,0,1,.49.224.94.94,0,0,1,.154.546.974.974,0,0,1-.154.553.546.546,0,0,1-.49.231H39.55v5.8a.64.64,0,0,1-.273.574,1.157,1.157,0,0,1-1.246,0,.64.64,0,0,1-.273-.574V-10.206a.64.64,0,0,1,.273-.574,1.1,1.1,0,0,1,.623-.182,1.1,1.1,0,0,1,.623.182.64.64,0,0,1,.273.574v3.374Zm10.374-3.4a1.332,1.332,0,0,1,.931.252,1.255,1.255,0,0,1,.259.91V-7.2a1.255,1.255,0,0,1-.259.91,1.332,1.332,0,0,1-.931.252H45.808a.285.285,0,0,0-.322.322v.6a.285.285,0,0,0,.322.322H52.08a.538.538,0,0,1,.476.224.916.916,0,0,1,.154.532.916.916,0,0,1-.154.532.538.538,0,0,1-.476.224H44.912a1.332,1.332,0,0,1-.931-.252,1.255,1.255,0,0,1-.259-.91v-1.89a1.255,1.255,0,0,1,.259-.91,1.332,1.332,0,0,1,.931-.252h5.432a.285.285,0,0,0,.322-.322V-8.4a.285.285,0,0,0-.322-.322h-6.02a.538.538,0,0,1-.476-.224.916.916,0,0,1-.154-.532.916.916,0,0,1,.154-.532.538.538,0,0,1,.476-.224ZM42.8.126A.538.538,0,0,1,42.322-.1a.916.916,0,0,1-.154-.532.916.916,0,0,1,.154-.532.538.538,0,0,1,.476-.224h4.4V-4.032h1.792v2.646h4.4a.538.538,0,0,1,.476.224.916.916,0,0,1,.154.532.916.916,0,0,1-.154.532.538.538,0,0,1-.476.224ZM55.93-8.47a.538.538,0,0,1-.476-.224.916.916,0,0,1-.154-.532.94.94,0,0,1,.154-.546A.538.538,0,0,1,55.93-10h4.186a1.332,1.332,0,0,1,.931.252,1.255,1.255,0,0,1,.259.91v1.526a6.183,6.183,0,0,1-.168,1.533,3.233,3.233,0,0,1-.686,1.267A8.244,8.244,0,0,1,58.975-3.2q-.959.693-2.541,1.673a.659.659,0,0,1-.609.063.975.975,0,0,1-.483-.371,1.035,1.035,0,0,1-.168-.588.6.6,0,0,1,.308-.532q.952-.574,1.624-1.015t1.12-.791a5.29,5.29,0,0,0,.707-.644A2.336,2.336,0,0,0,59.325-6a2.092,2.092,0,0,0,.168-.623,6.946,6.946,0,0,0,.035-.742v-.784a.285.285,0,0,0-.322-.322ZM66.346-6.832a.552.552,0,0,1,.49.224.94.94,0,0,1,.154.546.974.974,0,0,1-.154.553.546.546,0,0,1-.49.231H65.03v5.8a.64.64,0,0,1-.273.574,1.157,1.157,0,0,1-1.246,0,.64.64,0,0,1-.273-.574V-10.206a.64.64,0,0,1,.273-.574,1.1,1.1,0,0,1,.623-.182,1.1,1.1,0,0,1,.623.182.64.64,0,0,1,.273.574v3.374Zm2.6-1.652a.538.538,0,0,1-.476-.224.916.916,0,0,1-.154-.532.94.94,0,0,1,.154-.546.538.538,0,0,1,.476-.224h4.214a1.332,1.332,0,0,1,.931.252,1.255,1.255,0,0,1,.259.91v1.554a7.355,7.355,0,0,1-.07,1.064,3.466,3.466,0,0,1-.259.9,3.59,3.59,0,0,1-.525.833,6.482,6.482,0,0,1-.882.854q-.546.448-1.323.966T69.454-1.512a.659.659,0,0,1-.609.063.975.975,0,0,1-.483-.371,1.035,1.035,0,0,1-.168-.588A.6.6,0,0,1,68.5-2.94q.952-.574,1.631-1.015t1.134-.791a5.118,5.118,0,0,0,.714-.644,2.336,2.336,0,0,0,.392-.6,2.093,2.093,0,0,0,.168-.623,6.947,6.947,0,0,0,.035-.742v-.812a.285.285,0,0,0-.322-.322Zm9.422,9a.64.64,0,0,1-.273.574,1.121,1.121,0,0,1-.637.182,1.1,1.1,0,0,1-.623-.182.64.64,0,0,1-.273-.574V-10.206a.64.64,0,0,1,.273-.574,1.1,1.1,0,0,1,.623-.182,1.121,1.121,0,0,1,.637.182.64.64,0,0,1,.273.574Z" transform="translate(1449 1256)" fill="#fff"/>
      <line id="Line_1" data-name="Line 1" x2="82" transform="translate(1447.5 1263)" fill="none" stroke="#fff" stroke-width="3"/>
    </g>
  </g>
</svg>
