<svg xmlns="http://www.w3.org/2000/svg" xmlns:xlink="http://www.w3.org/1999/xlink" width="300" height="103.037" viewBox="0 0 300 103.037">
  <defs>
    <filter id="Path_90" x="15.78" y="41.463" width="269.08" height="43.96" filterUnits="userSpaceOnUse">
      <feOffset dy="1" input="SourceAlpha"/>
      <feGaussianBlur stdDeviation="1" result="blur"/>
      <feFlood flood-opacity="0.161"/>
      <feComposite operator="in" in2="blur"/>
      <feComposite in="SourceGraphic"/>
    </filter>
    <filter id="noun_premium_2005312" x="129.5" y="0" width="42" height="35.694" filterUnits="userSpaceOnUse">
      <feOffset dy="1" input="SourceAlpha"/>
      <feGaussianBlur stdDeviation="1" result="blur-2"/>
      <feFlood flood-opacity="0.161"/>
      <feComposite operator="in" in2="blur-2"/>
      <feComposite in="SourceGraphic"/>
    </filter>
  </defs>
  <g id="PremiumHireTItle-obj" transform="translate(-810.5 -706.963)">
    <path id="Path_91" data-name="Path 91" d="M0,0H300" transform="translate(810.5 807.5)" fill="none" stroke="#fbb95b" stroke-width="5"/>
    <g transform="matrix(1, 0, 0, 1, 810.5, 706.96)" filter="url(#Path_90)">
      <path id="Path_90-2" data-name="Path 90" d="M29.84-28.76a1.5,1.5,0,0,1,1.34.62,2.611,2.611,0,0,1,.42,1.5,2.611,2.611,0,0,1-.42,1.5,1.5,1.5,0,0,1-1.34.62H26.6v10.2H30a1.5,1.5,0,0,1,1.34.62,2.611,2.611,0,0,1,.42,1.5,2.611,2.611,0,0,1-.42,1.5,1.5,1.5,0,0,1-1.34.62H6.4a1.5,1.5,0,0,1-1.34-.62,2.611,2.611,0,0,1-.42-1.5,2.611,2.611,0,0,1,.42-1.5,1.5,1.5,0,0,1,1.34-.62H9.8v-10.2H6.56a1.5,1.5,0,0,1-1.34-.62,2.611,2.611,0,0,1-.42-1.5,2.611,2.611,0,0,1,.42-1.5,1.5,1.5,0,0,1,1.34-.62ZM14.76-14.32h6.88v-10.2H14.76ZM3.08.36A1.536,1.536,0,0,1,1.72-.28,2.617,2.617,0,0,1,1.28-1.8a2.687,2.687,0,0,1,.44-1.56A1.536,1.536,0,0,1,3.08-4H33.32a1.536,1.536,0,0,1,1.36.64,2.687,2.687,0,0,1,.44,1.56,2.617,2.617,0,0,1-.44,1.52,1.536,1.536,0,0,1-1.36.64ZM41.52-24.56a1.536,1.536,0,0,1-1.36-.64,2.617,2.617,0,0,1-.44-1.52,2.617,2.617,0,0,1,.44-1.52,1.536,1.536,0,0,1,1.36-.64H53.44a3.8,3.8,0,0,1,2.66.72,3.585,3.585,0,0,1,.74,2.6v7.44a3.585,3.585,0,0,1-.74,2.6,3.8,3.8,0,0,1-2.66.72H45.72a.813.813,0,0,0-.92.92v3.96a.813.813,0,0,0,.92.92q3.76,0,6.92-.18t6.08-.58a1.619,1.619,0,0,1,1.46.44,2.261,2.261,0,0,1,.62,1.4,3.18,3.18,0,0,1-.24,1.62,1.426,1.426,0,0,1-1.2.82q-1.24.16-2.76.3t-3.46.26q-1.94.12-4.4.18t-5.58.06A3.8,3.8,0,0,1,40.5-5.4,3.585,3.585,0,0,1,39.76-8v-7.64a3.585,3.585,0,0,1,.74-2.6,3.8,3.8,0,0,1,2.66-.72h7.72a.813.813,0,0,0,.92-.92v-3.76a.813.813,0,0,0-.92-.92ZM68.32,1.48a1.829,1.829,0,0,1-.78,1.64,3.2,3.2,0,0,1-1.82.52,3.135,3.135,0,0,1-1.78-.52,1.829,1.829,0,0,1-.78-1.64V-29.16a1.829,1.829,0,0,1,.78-1.64,3.135,3.135,0,0,1,1.78-.52,3.2,3.2,0,0,1,1.82.52,1.829,1.829,0,0,1,.78,1.64ZM93.88-8.88a3.585,3.585,0,0,1-.74,2.6,3.8,3.8,0,0,1-2.66.72H79.4a3.8,3.8,0,0,1-2.66-.72A3.585,3.585,0,0,1,76-8.88V-25.36a3.585,3.585,0,0,1,.74-2.6,3.8,3.8,0,0,1,2.66-.72H90.48a3.8,3.8,0,0,1,2.66.72,3.585,3.585,0,0,1,.74,2.6ZM88.8-23.44a.813.813,0,0,0-.92-.92H82a.813.813,0,0,0-.92.92V-10.8a.813.813,0,0,0,.92.92h5.88a.813.813,0,0,0,.92-.92ZM104.72,1.48a1.829,1.829,0,0,1-.78,1.64,3.2,3.2,0,0,1-1.82.52,3.135,3.135,0,0,1-1.78-.52,1.829,1.829,0,0,1-.78-1.64V-29.16a1.829,1.829,0,0,1,.78-1.64,3.135,3.135,0,0,1,1.78-.52,3.2,3.2,0,0,1,1.82.52,1.829,1.829,0,0,1,.78,1.64Zm6.72-22.4a10.406,10.406,0,0,1,.6-3.6,7.646,7.646,0,0,1,1.78-2.82,8.094,8.094,0,0,1,2.96-1.84,11.882,11.882,0,0,1,4.14-.66,11.882,11.882,0,0,1,4.14.66,8.094,8.094,0,0,1,2.96,1.84,7.646,7.646,0,0,1,1.78,2.82,10.406,10.406,0,0,1,.6,3.6,10.406,10.406,0,0,1-.6,3.6,7.646,7.646,0,0,1-1.78,2.82,8.094,8.094,0,0,1-2.96,1.84,11.882,11.882,0,0,1-4.14.66,11.882,11.882,0,0,1-4.14-.66,8.094,8.094,0,0,1-2.96-1.84,7.646,7.646,0,0,1-1.78-2.82A10.406,10.406,0,0,1,111.44-20.92Zm14.08,0a6.742,6.742,0,0,0-.24-1.82,3.792,3.792,0,0,0-.8-1.5,3.966,3.966,0,0,0-1.44-1.02,5.332,5.332,0,0,0-2.12-.38,5.3,5.3,0,0,0-2.14.38,4,4,0,0,0-1.42,1.02,3.792,3.792,0,0,0-.8,1.5,6.742,6.742,0,0,0-.24,1.82,6.742,6.742,0,0,0,.24,1.82,3.792,3.792,0,0,0,.8,1.5,4,4,0,0,0,1.42,1.02,5.3,5.3,0,0,0,2.14.38,5.332,5.332,0,0,0,2.12-.38,3.966,3.966,0,0,0,1.44-1.02,3.792,3.792,0,0,0,.8-1.5A6.742,6.742,0,0,0,125.52-20.92Zm15.84,8.52a1.829,1.829,0,0,1-.78,1.64,3.068,3.068,0,0,1-1.74.52,3.135,3.135,0,0,1-1.78-.52,1.829,1.829,0,0,1-.78-1.64v-6.36h-8.84v-4.32h8.84v-6.08a1.829,1.829,0,0,1,.78-1.64,3.135,3.135,0,0,1,1.78-.52,3.068,3.068,0,0,1,1.74.52,1.829,1.829,0,0,1,.78,1.64ZM120.52,5.76a3.8,3.8,0,0,1-2.66-.72,3.585,3.585,0,0,1-.74-2.6V-5.44a3.585,3.585,0,0,1,.74-2.6,3.8,3.8,0,0,1,2.66-.72h17.44a3.8,3.8,0,0,1,2.66.72,3.585,3.585,0,0,1,.74,2.6V2.44a3.585,3.585,0,0,1-.74,2.6,3.8,3.8,0,0,1-2.66.72Zm14.84-4.24a.813.813,0,0,0,.92-.92V-3.6a.813.813,0,0,0-.92-.92H123.12a.813.813,0,0,0-.92.92V.6a.813.813,0,0,0,.92.92Zm37.8-27.68a1.536,1.536,0,0,1,1.36.64,2.617,2.617,0,0,1,.44,1.52,2.617,2.617,0,0,1-.44,1.52,1.536,1.536,0,0,1-1.36.64h-4.4v2.08q0,1.16.08,2.04a7.422,7.422,0,0,0,.32,1.62,6.65,6.65,0,0,0,.64,1.4,11.486,11.486,0,0,0,1.04,1.42q1,1.16,1.96,2.16t1.56,1.56a1.812,1.812,0,0,1,.62,1.58,2.51,2.51,0,0,1-.74,1.54,2.142,2.142,0,0,1-1.5.72,2.231,2.231,0,0,1-1.62-.64q-.64-.6-1.28-1.28t-1.4-1.48q-.64-.68-1.02-1.16a6.485,6.485,0,0,1-.6-.88,6.5,6.5,0,0,1-.34-.7,2.5,2.5,0,0,1-.16-.62h-.04a4.45,4.45,0,0,1-.56,1.44,13.958,13.958,0,0,1-1.68,2.12q-.8.88-1.64,1.74t-1.68,1.66a1.959,1.959,0,0,1-1.62.6,2.3,2.3,0,0,1-1.54-.72,2.66,2.66,0,0,1-.76-1.62,1.909,1.909,0,0,1,.6-1.58q1.16-1.12,2.2-2.2t2.04-2.24a11.486,11.486,0,0,0,1.04-1.42,6.65,6.65,0,0,0,.64-1.4,7.421,7.421,0,0,0,.32-1.62q.08-.88.08-2.04v-2.08h-4.88a1.536,1.536,0,0,1-1.36-.64,2.617,2.617,0,0,1-.44-1.52,2.617,2.617,0,0,1,.44-1.52,1.536,1.536,0,0,1,1.36-.64h4.88v-2.88a1.789,1.789,0,0,1,.78-1.6,3.068,3.068,0,0,1,1.74-.52,3.068,3.068,0,0,1,1.74.52,1.789,1.789,0,0,1,.78,1.6v2.88Zm7.6,6.88h3.2V-29.32a1.7,1.7,0,0,1,.72-1.52,2.889,2.889,0,0,1,1.64-.48,2.889,2.889,0,0,1,1.64.48,1.7,1.7,0,0,1,.72,1.52V1.64a1.7,1.7,0,0,1-.72,1.52,3.042,3.042,0,0,1-3.28,0,1.7,1.7,0,0,1-.72-1.52v-16.6h-3.2V-.04a1.7,1.7,0,0,1-.72,1.52,2.889,2.889,0,0,1-1.64.48,2.822,2.822,0,0,1-1.6-.48,1.7,1.7,0,0,1-.72-1.52V-28.92a1.7,1.7,0,0,1,.72-1.52,2.822,2.822,0,0,1,1.6-.48,2.889,2.889,0,0,1,1.64.48,1.7,1.7,0,0,1,.72,1.52Zm29.44,2.72a31.03,31.03,0,0,1-5.24-.4,13.164,13.164,0,0,1-3.94-1.26,6.53,6.53,0,0,1-2.48-2.18,5.661,5.661,0,0,1-.86-3.16,5.661,5.661,0,0,1,.86-3.16,6.53,6.53,0,0,1,2.48-2.18,13.164,13.164,0,0,1,3.94-1.26,34.522,34.522,0,0,1,10.48,0,13.164,13.164,0,0,1,3.94,1.26,6.53,6.53,0,0,1,2.48,2.18,5.661,5.661,0,0,1,.86,3.16,5.661,5.661,0,0,1-.86,3.16,6.53,6.53,0,0,1-2.48,2.18,13.164,13.164,0,0,1-3.94,1.26A31.031,31.031,0,0,1,210.2-16.56Zm0-9.92a15.388,15.388,0,0,0-5.72.76,2.384,2.384,0,0,0-1.72,2.16,2.384,2.384,0,0,0,1.72,2.16,15.388,15.388,0,0,0,5.72.76,15.388,15.388,0,0,0,5.72-.76,2.384,2.384,0,0,0,1.72-2.16,2.384,2.384,0,0,0-1.72-2.16A15.388,15.388,0,0,0,210.2-26.48ZM195.04-9.28a1.5,1.5,0,0,1-1.34-.62,2.611,2.611,0,0,1-.42-1.5,2.54,2.54,0,0,1,.42-1.46,1.5,1.5,0,0,1,1.34-.62h7.32v-5.8h4.88v5.8h5.92v-5.8h4.88v5.8h7.32a1.5,1.5,0,0,1,1.34.62,2.54,2.54,0,0,1,.42,1.46,2.611,2.611,0,0,1-.42,1.5,1.5,1.5,0,0,1-1.34.62ZM197.6-.36a5.661,5.661,0,0,1,.86-3.16,6.5,6.5,0,0,1,2.5-2.18,13.428,13.428,0,0,1,3.96-1.26,34.916,34.916,0,0,1,10.54,0,13.438,13.438,0,0,1,3.98,1.26,6.5,6.5,0,0,1,2.5,2.18,5.661,5.661,0,0,1,.86,3.16,5.661,5.661,0,0,1-.86,3.16,6.5,6.5,0,0,1-2.5,2.18,13.438,13.438,0,0,1-3.98,1.26,31.391,31.391,0,0,1-5.26.4,31.3,31.3,0,0,1-5.28-.4,13.428,13.428,0,0,1-3.96-1.26,6.5,6.5,0,0,1-2.5-2.18A5.661,5.661,0,0,1,197.6-.36Zm20.12,0q0-1.4-1.74-2.18a21.806,21.806,0,0,0-11.56,0q-1.74.78-1.74,2.18t1.74,2.18a15.337,15.337,0,0,0,5.78.78,15.337,15.337,0,0,0,5.78-.78Q217.72,1.04,217.72-.36Zm15.8-24.6a1.536,1.536,0,0,1-1.36-.64,2.687,2.687,0,0,1-.44-1.56,2.687,2.687,0,0,1,.44-1.56,1.536,1.536,0,0,1,1.36-.64h13.64a3.8,3.8,0,0,1,2.66.72,3.585,3.585,0,0,1,.74,2.6v3.2a24.826,24.826,0,0,1-.16,2.86,16.872,16.872,0,0,1-.48,2.54,2.128,2.128,0,0,1-1.2,1.42,3.018,3.018,0,0,1-1.92.14,2.531,2.531,0,0,1-1.5-.86,1.95,1.95,0,0,1-.3-1.74,21.709,21.709,0,0,0,.48-4.48v-1.08a.813.813,0,0,0-.92-.92Zm25.76,4.48h3.24a1.578,1.578,0,0,1,1.4.64,2.687,2.687,0,0,1,.44,1.56,2.782,2.782,0,0,1-.44,1.58,1.561,1.561,0,0,1-1.4.66h-3.24V-5.36a1.8,1.8,0,0,1-.76,1.6,3.041,3.041,0,0,1-1.76.52A3.041,3.041,0,0,1,255-3.76a1.8,1.8,0,0,1-.76-1.6V-29.2a1.8,1.8,0,0,1,.76-1.6,3.041,3.041,0,0,1,1.76-.52,3.041,3.041,0,0,1,1.76.52,1.8,1.8,0,0,1,.76,1.6ZM251.12-9.32q-1.92.16-4.24.28t-4.86.22q-2.54.1-5.24.14t-5.42.04A1.536,1.536,0,0,1,230-9.28a2.617,2.617,0,0,1-.44-1.52,2.617,2.617,0,0,1,.44-1.52,1.536,1.536,0,0,1,1.36-.64q1.16,0,2.36.02t2.4-.02V-18.6a1.829,1.829,0,0,1,.78-1.64,3.068,3.068,0,0,1,1.74-.52,3.068,3.068,0,0,1,1.74.52,1.829,1.829,0,0,1,.78,1.64v5.56q2.44-.08,4.82-.2t4.78-.32a1.5,1.5,0,0,1,1.38.48,2.633,2.633,0,0,1,.54,1.48,2.638,2.638,0,0,1-.28,1.5A1.468,1.468,0,0,1,251.12-9.32Zm7.24,10.56a1.536,1.536,0,0,1,1.36.64,2.617,2.617,0,0,1,.44,1.52,2.617,2.617,0,0,1-.44,1.52,1.536,1.536,0,0,1-1.36.64h-20.2a3.8,3.8,0,0,1-2.66-.72,3.585,3.585,0,0,1-.74-2.6V-3.88a1.829,1.829,0,0,1,.78-1.64,3.2,3.2,0,0,1,1.82-.52,3.135,3.135,0,0,1,1.78.52,1.829,1.829,0,0,1,.78,1.64V.32a.813.813,0,0,0,.92.92Z" transform="translate(17.5 74.78)" fill="#333"/>
    </g>
    <g transform="matrix(1, 0, 0, 1, 810.5, 706.96)" filter="url(#noun_premium_2005312)">
      <path id="noun_premium_2005312-2" data-name="noun_premium_2005312" d="M37.717,39.66H12.3a2.118,2.118,0,0,1-2.118-2.118V28.888L7.063,15.923a2.118,2.118,0,0,1,3.644-1.9l5.826,6.567A2.468,2.468,0,0,0,19,21.41a2.648,2.648,0,0,0,1.949-2l2.013-7.838a2.118,2.118,0,0,1,4.11,0l2.013,7.838h0a2.648,2.648,0,0,0,1.949,2,2.447,2.447,0,0,0,2.447-.816l5.826-6.567a2.118,2.118,0,0,1,3.644,1.9L39.835,28.888v8.654A2.118,2.118,0,0,1,37.717,39.66Zm-23.3-4.237H35.6V28.644a1.949,1.949,0,0,1,.064-.5l1.176-4.925-.169.2a6.684,6.684,0,0,1-6.641,2.118,6.917,6.917,0,0,1-5.021-4.947,6.917,6.917,0,0,1-5.021,4.915,6.684,6.684,0,0,1-6.641-2.118l-.169-.2,1.176,4.925a1.949,1.949,0,0,1,.064.5Z" transform="translate(125.49 -7.97)" fill="#fbb95b"/>
    </g>
  </g>
</svg>
