<svg xmlns="http://www.w3.org/2000/svg" xmlns:xlink="http://www.w3.org/1999/xlink" width="375" height="100" viewBox="0 0 375 100">
  <defs>
    <filter id="Rectangle_25" x="0" y="0" width="375" height="100" filterUnits="userSpaceOnUse">
      <feOffset dy="3" input="SourceAlpha"/>
      <feGaussianBlur stdDeviation="5" result="blur"/>
      <feFlood flood-opacity="0.161"/>
      <feComposite operator="in" in2="blur"/>
      <feComposite in="SourceGraphic"/>
    </filter>
  </defs>
  <g id="ResumeInfo_Apply-obj" transform="translate(-1250 -506)">
    <g transform="matrix(1, 0, 0, 1, 1250, 506)" filter="url(#Rectangle_25)">
      <rect id="Rectangle_25-2" data-name="Rectangle 25" width="345" height="70" transform="translate(15 12)" fill="#dd7171"/>
    </g>
    <g id="이력서등록하기-obj" transform="translate(96 359)">
      <path id="Path_55" data-name="Path 55" d="M0,0H160V30H0Z" transform="translate(1250 176)" fill="none"/>
      <g id="Group_13" data-name="Group 13" transform="translate(1251.5 170.611)">
        <path id="Path_48" data-name="Path 48" d="M25.239,31.714v1.051H9.857V20.026A6.409,6.409,0,0,0,13.3,18.5h8.79a.843.843,0,0,0,.828-.828.822.822,0,0,0-.828-.828H14.7a6.743,6.743,0,0,0,.86-2.516h9.682V23.37l1.624-1.815V14.006a1.278,1.278,0,0,0-1.274-1.274H15.526a6.538,6.538,0,1,0-7.293,7.293V33.115a1.278,1.278,0,0,0,1.274,1.274H25.558a1.278,1.278,0,0,0,1.274-1.274V30.121l-1.051,1.147A1.061,1.061,0,0,1,25.239,31.714ZM4.124,13.561A4.936,4.936,0,1,1,9.061,18.5,4.941,4.941,0,0,1,4.124,13.561Z" fill="#fff"/>
        <path id="Path_49" data-name="Path 49" d="M33.728,51.856H42.8a.822.822,0,0,0,.828-.828A.8.8,0,0,0,42.8,50.2H33.728a.828.828,0,1,0,0,1.656Z" transform="translate(-20.718 -29.442)" fill="#fff"/>
        <path id="Path_50" data-name="Path 50" d="M43.633,63.428A.822.822,0,0,0,42.8,62.6H33.728a.828.828,0,0,0,0,1.656H42.8A.866.866,0,0,0,43.633,63.428Z" transform="translate(-20.718 -37.893)" fill="#fff"/>
        <path id="Path_51" data-name="Path 51" d="M32.9,75.792a.822.822,0,0,0,.828.828h7.835L41.849,75H33.728A.777.777,0,0,0,32.9,75.792Z" transform="translate(-20.718 -46.339)" fill="#fff"/>
        <rect id="Rectangle_19" data-name="Rectangle 19" width="7.261" height="3.089" transform="matrix(0.667, -0.745, 0.745, 0.667, 23.822, 26.933)" fill="#fff"/>
        <path id="Path_52" data-name="Path 52" d="M64.6,75.476l1.943-.541a.513.513,0,0,0,.223-.127l.573-.637L65.046,72.1l-.573.637a.8.8,0,0,0-.127.223l-.35,2.006A.476.476,0,0,0,64.6,75.476Z" transform="translate(-41.909 -44.367)" fill="#fff"/>
        <path id="Path_53" data-name="Path 53" d="M90.117,47.886l-1.592-1.433a.493.493,0,0,0-.669.032L86.9,47.567l2.293,2.07.955-1.083A.462.462,0,0,0,90.117,47.886Z" transform="translate(-57.521 -26.809)" fill="#fff"/>
        <path id="Path_54" data-name="Path 54" d="M19.376,22.126a.812.812,0,0,0-1.21-1.083L16.191,23.3l-.955-.955A.811.811,0,0,0,14.089,23.5l1.561,1.561a.767.767,0,0,0,.573.223h.032a.681.681,0,0,0,.573-.287Z" transform="translate(-7.735 -9.393)" fill="#fff"/>
      </g>
      <path id="Path_56" data-name="Path 56" d="M5.688-1.35a4.88,4.88,0,0,1-1.971-.36A3.493,3.493,0,0,1,2.376-2.718a4.172,4.172,0,0,1-.765-1.53,7.307,7.307,0,0,1-.243-1.944v-2a7.335,7.335,0,0,1,.243-1.935,4.167,4.167,0,0,1,.765-1.539,3.493,3.493,0,0,1,1.341-1.008,4.88,4.88,0,0,1,1.971-.36,4.88,4.88,0,0,1,1.971.36A3.493,3.493,0,0,1,9-11.664a4.167,4.167,0,0,1,.765,1.539,7.335,7.335,0,0,1,.243,1.935v2a7.307,7.307,0,0,1-.243,1.944A4.172,4.172,0,0,1,9-2.718,3.493,3.493,0,0,1,7.659-1.71,4.88,4.88,0,0,1,5.688-1.35Zm0-9.684a1.791,1.791,0,0,0-1.647.792,4.425,4.425,0,0,0-.5,2.322v1.458a4.425,4.425,0,0,0,.5,2.322,1.791,1.791,0,0,0,1.647.792A1.791,1.791,0,0,0,7.335-4.14,4.425,4.425,0,0,0,7.83-6.462V-7.92a4.425,4.425,0,0,0-.495-2.322A1.791,1.791,0,0,0,5.688-11.034ZM14.616,2.592H12.33v-16.74h2.286ZM19.8-6.318q1.89,0,3.51-.045t3.276-.207l.2,1.872q-.774.09-1.665.144t-2,.081q-1.107.027-2.466.036t-3.087.009V-9.81h4.986V-11.5H17.568v-1.89h7.218v5.4H19.8Zm8.748-.936H25.866V-9.162h2.682v-1.1H25.866v-1.908h2.682v-1.98H30.8v10.26h-2.25ZM19.71-3.132H30.8v5.94H28.53V-1.224H19.71ZM41.832-9.108h3.294v-5.04h2.286V2.592H45.126v-9.72H41.832ZM40.788-5.724q.576.63,1.26,1.305t1.386,1.305l-1.458,1.53q-.612-.576-1.188-1.143t-1.08-1.089q-.522-.522-.882-.945a2.647,2.647,0,0,1-.45-.657H38.34a2.788,2.788,0,0,1-.495.729q-.405.477-.855.945-.5.522-1.062,1.071T34.6-1.4L33.1-2.952Q34.632-4.32,35.8-5.6a6.692,6.692,0,0,0,.657-.828,4.356,4.356,0,0,0,.423-.81,4.173,4.173,0,0,0,.234-.864,6.415,6.415,0,0,0,.072-1.008V-12.96H39.51v3.852a9.456,9.456,0,0,0,.045.972,3.327,3.327,0,0,0,.189.819,4.237,4.237,0,0,0,.387.774A5.227,5.227,0,0,0,40.788-5.724Zm28.71-.63V-4.5H54.162V-6.354ZM61.83,3.1a10.978,10.978,0,0,1-2.079-.189,6.427,6.427,0,0,1-1.719-.567,3.324,3.324,0,0,1-1.17-.954A2.216,2.216,0,0,1,56.43.018v-.54a2.226,2.226,0,0,1,.432-1.359,3.281,3.281,0,0,1,1.17-.963,6.427,6.427,0,0,1,1.719-.567,11.529,11.529,0,0,1,4.158,0,6.427,6.427,0,0,1,1.719.567,3.281,3.281,0,0,1,1.17.963A2.226,2.226,0,0,1,67.23-.522v.54A2.216,2.216,0,0,1,66.8,1.386a3.325,3.325,0,0,1-1.17.954,6.427,6.427,0,0,1-1.719.567A10.978,10.978,0,0,1,61.83,3.1Zm0-4.86a6.738,6.738,0,0,0-1.161.1,4.9,4.9,0,0,0-1.008.279,2.311,2.311,0,0,0-.711.432.769.769,0,0,0-.27.576v.252a.769.769,0,0,0,.27.576,2.311,2.311,0,0,0,.711.432,4.9,4.9,0,0,0,1.008.279,6.738,6.738,0,0,0,1.161.1,6.738,6.738,0,0,0,1.161-.1A4.9,4.9,0,0,0,64,.882,2.311,2.311,0,0,0,64.71.45a.769.769,0,0,0,.27-.576V-.378a.769.769,0,0,0-.27-.576A2.311,2.311,0,0,0,64-1.386a4.9,4.9,0,0,0-1.008-.279A6.738,6.738,0,0,0,61.83-1.764ZM67.176-11.7H58.59v2.268H67.3v1.854H56.34v-5.976H67.176ZM79.344-6.516v1.134h6.534v1.818H70.542V-5.382h6.534V-6.516H72.684v-4.446h8.73v-.918H72.63v-1.8H83.646v4.446h-8.73v.918h9.018v1.8Zm-6.8,3.96H83.808V2.808H81.54V-.72h-9Zm27.666-5.112h2.3v1.98h-2.3v8.28H97.92v-16.74h2.286ZM91.89-1.062a4.88,4.88,0,0,1-1.773-.3,4,4,0,0,1-1.3-.792,3.29,3.29,0,0,1-.8-1.134,3.324,3.324,0,0,1-.27-1.305V-5.652a3.324,3.324,0,0,1,.27-1.305,3.29,3.29,0,0,1,.8-1.134,4,4,0,0,1,1.3-.792,4.88,4.88,0,0,1,1.773-.3,4.9,4.9,0,0,1,1.764.3,3.977,3.977,0,0,1,1.305.792,3.29,3.29,0,0,1,.8,1.134,3.324,3.324,0,0,1,.27,1.305V-4.59a3.324,3.324,0,0,1-.27,1.305,3.29,3.29,0,0,1-.8,1.134,3.977,3.977,0,0,1-1.305.792A4.9,4.9,0,0,1,91.89-1.062Zm0-1.908a2.288,2.288,0,0,0,.864-.153,1.973,1.973,0,0,0,.639-.4,1.707,1.707,0,0,0,.4-.576,1.716,1.716,0,0,0,.135-.666v-.7a1.716,1.716,0,0,0-.135-.666,1.707,1.707,0,0,0-.4-.576,1.973,1.973,0,0,0-.639-.4,2.288,2.288,0,0,0-.864-.153,2.288,2.288,0,0,0-.864.153,1.973,1.973,0,0,0-.639.4,1.707,1.707,0,0,0-.4.576,1.716,1.716,0,0,0-.135.666v.7a1.716,1.716,0,0,0,.135.666,1.707,1.707,0,0,0,.4.576,1.973,1.973,0,0,0,.639.4A2.288,2.288,0,0,0,91.89-2.97Zm1.152-11.052v2.16h3.6v1.926H86.976v-1.926h3.762v-2.16ZM117.4,2.592H115.11v-16.74H117.4ZM104.04-2.646q1.35-.81,2.3-1.44a18.309,18.309,0,0,0,1.593-1.161,6.629,6.629,0,0,0,1.008-1.008,3.88,3.88,0,0,0,.558-.963,3.883,3.883,0,0,0,.243-1.026q.054-.54.054-1.206v-1.242h-5.454v-1.962h7.74v3.312A13.608,13.608,0,0,1,112-7.7a5.332,5.332,0,0,1-.351,1.377,4.976,4.976,0,0,1-.738,1.233,9.169,9.169,0,0,1-1.233,1.233,20.841,20.841,0,0,1-1.845,1.368q-1.089.729-2.583,1.647Z" transform="translate(1299 200)" fill="#fff"/>
    </g>
  </g>
</svg>
